solid OpenSCAD_Model
  facet normal 1 -0 0
    outer loop
      vertex 10 -7.5 0
      vertex 10 -1.1 -1.9
      vertex 10 -3 0
    endloop
  endfacet
  facet normal 1 0 0
    outer loop
      vertex 10 1.1 -1.9
      vertex 10 7.5 0
      vertex 10 3 0
    endloop
  endfacet
  facet normal 1 0 0
    outer loop
      vertex 10 7.5 0
      vertex 10 1.1 -1.9
      vertex 10 1.1 -9
    endloop
  endfacet
  facet normal 1 0 0
    outer loop
      vertex 10 7.5 0
      vertex 10 1.1 -9
      vertex 10 7.5 -16.5
    endloop
  endfacet
  facet normal 1 -0 0
    outer loop
      vertex 10 -1.1 -9
      vertex 10 7.5 -16.5
      vertex 10 1.1 -9
    endloop
  endfacet
  facet normal 1 0 0
    outer loop
      vertex 10 -1.1 -1.9
      vertex 10 -7.5 0
      vertex 10 -1.1 -9
    endloop
  endfacet
  facet normal 1 0 0
    outer loop
      vertex 10 -1.1 -9
      vertex 10 -7.5 -16.5
      vertex 10 7.5 -16.5
    endloop
  endfacet
  facet normal 1 0 0
    outer loop
      vertex 10 -7.5 -16.5
      vertex 10 -1.1 -9
      vertex 10 -7.5 0
    endloop
  endfacet
  facet normal -0 0 1
    outer loop
      vertex -10 7.5 0
      vertex 10 3 0
      vertex 10 7.5 0
    endloop
  endfacet
  facet normal 0 0 1
    outer loop
      vertex 10 3 0
      vertex -10 7.5 0
      vertex -10 3 0
    endloop
  endfacet
  facet normal -0 0 1
    outer loop
      vertex -10 -3 0
      vertex 10 -7.5 0
      vertex 10 -3 0
    endloop
  endfacet
  facet normal 0 0 1
    outer loop
      vertex 10 -7.5 0
      vertex -10 -3 0
      vertex -10 -7.5 0
    endloop
  endfacet
  facet normal 0 0 -1
    outer loop
      vertex -10 -7.5 -16.5
      vertex 10 7.5 -16.5
      vertex 10 -7.5 -16.5
    endloop
  endfacet
  facet normal -0 0 -1
    outer loop
      vertex 10 7.5 -16.5
      vertex -10 -7.5 -16.5
      vertex -10 7.5 -16.5
    endloop
  endfacet
  facet normal -1 0 0
    outer loop
      vertex -10 1.1 -9
      vertex -10 7.5 0
      vertex -10 7.5 -16.5
    endloop
  endfacet
  facet normal -1 0 0
    outer loop
      vertex -10 1.1 -1.9
      vertex -10 7.5 0
      vertex -10 1.1 -9
    endloop
  endfacet
  facet normal -1 0 0
    outer loop
      vertex -10 7.5 -16.5
      vertex -10 -1.1 -9
      vertex -10 1.1 -9
    endloop
  endfacet
  facet normal -1 0 0
    outer loop
      vertex -10 -7.5 0
      vertex -10 -1.1 -1.9
      vertex -10 -1.1 -9
    endloop
  endfacet
  facet normal -1 0 0
    outer loop
      vertex -10 -7.5 -16.5
      vertex -10 -1.1 -9
      vertex -10 7.5 -16.5
    endloop
  endfacet
  facet normal -1 0 0
    outer loop
      vertex -10 -7.5 0
      vertex -10 -1.1 -9
      vertex -10 -7.5 -16.5
    endloop
  endfacet
  facet normal -1 0 0
    outer loop
      vertex -10 -1.1 -1.9
      vertex -10 -7.5 0
      vertex -10 -3 0
    endloop
  endfacet
  facet normal -1 -0 0
    outer loop
      vertex -10 7.5 0
      vertex -10 1.1 -1.9
      vertex -10 3 0
    endloop
  endfacet
  facet normal 0 1 -0
    outer loop
      vertex 10 7.5 -16.5
      vertex -10 7.5 0
      vertex 10 7.5 0
    endloop
  endfacet
  facet normal 0 1 0
    outer loop
      vertex -10 7.5 0
      vertex 10 7.5 -16.5
      vertex -10 7.5 -16.5
    endloop
  endfacet
  facet normal 0 -1 0
    outer loop
      vertex -10 -7.5 -16.5
      vertex 10 -7.5 0
      vertex -10 -7.5 0
    endloop
  endfacet
  facet normal 0 -1 -0
    outer loop
      vertex 10 -7.5 0
      vertex -10 -7.5 -16.5
      vertex 10 -7.5 -16.5
    endloop
  endfacet
  facet normal -0 0 1
    outer loop
      vertex -10 1.1 -9
      vertex 10 -1.1 -9
      vertex 10 1.1 -9
    endloop
  endfacet
  facet normal 0 0 1
    outer loop
      vertex 10 -1.1 -9
      vertex -10 1.1 -9
      vertex -10 -1.1 -9
    endloop
  endfacet
  facet normal 0 -1 0
    outer loop
      vertex -10 1.1 -9
      vertex 10 1.1 -1.9
      vertex -10 1.1 -1.9
    endloop
  endfacet
  facet normal 0 -1 -0
    outer loop
      vertex 10 1.1 -1.9
      vertex -10 1.1 -9
      vertex 10 1.1 -9
    endloop
  endfacet
  facet normal 0 1 -0
    outer loop
      vertex 10 -1.1 -9
      vertex -10 -1.1 -1.9
      vertex 10 -1.1 -1.9
    endloop
  endfacet
  facet normal 0 1 0
    outer loop
      vertex -10 -1.1 -1.9
      vertex 10 -1.1 -9
      vertex -10 -1.1 -9
    endloop
  endfacet
  facet normal 0 -0.707107 0.707107
    outer loop
      vertex -10 1.1 -1.9
      vertex 10 3 0
      vertex -10 3 0
    endloop
  endfacet
  facet normal 0 -0.707107 0.707107
    outer loop
      vertex 10 3 0
      vertex -10 1.1 -1.9
      vertex 10 1.1 -1.9
    endloop
  endfacet
  facet normal 0 0.707107 0.707107
    outer loop
      vertex 10 -1.1 -1.9
      vertex -10 -3 0
      vertex 10 -3 0
    endloop
  endfacet
  facet normal 0 0.707107 0.707107
    outer loop
      vertex -10 -3 0
      vertex 10 -1.1 -1.9
      vertex -10 -1.1 -1.9
    endloop
  endfacet
endsolid OpenSCAD_Model
