solid OpenSCAD_Model
  facet normal -1 0 0
    outer loop
      vertex 20 3.325 16.1366
      vertex 20 6.675 16.151
      vertex 20 6.675 16.1366
    endloop
  endfacet
  facet normal -1 -0 0
    outer loop
      vertex 20 6.675 16.151
      vertex 20 3.325 16.1366
      vertex 20 3.325 16.151
    endloop
  endfacet
  facet normal -1 0 0
    outer loop
      vertex 0 21.675 16.1366
      vertex 0 25 16.151
      vertex 0 25 0
    endloop
  endfacet
  facet normal -1 -0 0
    outer loop
      vertex 0 25 16.151
      vertex 0 21.675 16.1366
      vertex 0 21.675 16.151
    endloop
  endfacet
  facet normal -1 0 0
    outer loop
      vertex 0 25 0
      vertex 0 18.325 16.1366
      vertex 0 21.675 16.1366
    endloop
  endfacet
  facet normal -1 0 0
    outer loop
      vertex 0 18.325 16.1366
      vertex 0 15 16.151
      vertex 0 18.325 16.151
    endloop
  endfacet
  facet normal -1 0 0
    outer loop
      vertex 0 25 0
      vertex 0 15 16.151
      vertex 0 18.325 16.1366
    endloop
  endfacet
  facet normal -1 0 0
    outer loop
      vertex 0 25 0
      vertex 0 10 16.151
      vertex 0 15 16.151
    endloop
  endfacet
  facet normal -1 0 0
    outer loop
      vertex 0 0 0
      vertex 0 10 16.151
      vertex 0 25 0
    endloop
  endfacet
  facet normal -1 -0 0
    outer loop
      vertex 0 10 16.151
      vertex 0 6.675 16.1366
      vertex 0 6.675 16.151
    endloop
  endfacet
  facet normal -1 0 0
    outer loop
      vertex 0 10 16.151
      vertex 0 0 0
      vertex 0 6.675 16.1366
    endloop
  endfacet
  facet normal -1 -0 0
    outer loop
      vertex 0 6.675 16.1366
      vertex 0 0 0
      vertex 0 3.325 16.1366
    endloop
  endfacet
  facet normal -1 0 0
    outer loop
      vertex 0 0 16.151
      vertex 0 3.325 16.1366
      vertex 0 0 0
    endloop
  endfacet
  facet normal -1 0 0
    outer loop
      vertex 0 3.325 16.1366
      vertex 0 0 16.151
      vertex 0 3.325 16.151
    endloop
  endfacet
  facet normal 0 1 0
    outer loop
      vertex 13.3333 10 20
      vertex 20 10 16.151
      vertex 6.66667 10 20
    endloop
  endfacet
  facet normal 0 1 0
    outer loop
      vertex 0 10 16.151
      vertex 6.66667 10 20
      vertex 20 10 16.151
    endloop
  endfacet
  facet normal 0 -1 0
    outer loop
      vertex 0 0 0
      vertex 6.66667 0 20
      vertex 0 0 16.151
    endloop
  endfacet
  facet normal 0 -1 -0
    outer loop
      vertex 6.66667 0 20
      vertex 0 0 0
      vertex 13.3333 0 20
    endloop
  endfacet
  facet normal 0 -1 0
    outer loop
      vertex 20 0 16.151
      vertex 40.64 0 8.98629e-08
      vertex 30 0 16.151
    endloop
  endfacet
  facet normal 0 -1 -0
    outer loop
      vertex 13.3333 0 20
      vertex 0 0 0
      vertex 20 0 16.151
    endloop
  endfacet
  facet normal 0 -1 0
    outer loop
      vertex 40.64 0 0
      vertex 20 0 16.151
      vertex 0 0 0
    endloop
  endfacet
  facet normal 0 -1 0
    outer loop
      vertex 20 0 16.151
      vertex 40.64 0 0
      vertex 40.64 0 8.98629e-08
    endloop
  endfacet
  facet normal 0 -1 0
    outer loop
      vertex 40.64 0 8.98629e-08
      vertex 36.6667 0 20
      vertex 30 0 16.151
    endloop
  endfacet
  facet normal 0 -1 0
    outer loop
      vertex 36.6667 0 20
      vertex 40.64 0 8.98629e-08
      vertex 43.3333 0 20
    endloop
  endfacet
  facet normal 0 -1 -0
    outer loop
      vertex 43.3333 0 20
      vertex 40.64 0 8.98629e-08
      vertex 50 0 16.151
    endloop
  endfacet
  facet normal 0 -1 -0
    outer loop
      vertex 50 0 16.151
      vertex 40.64 0 8.98629e-08
      vertex 50 0 8.98629e-08
    endloop
  endfacet
  facet normal -1 0 0
    outer loop
      vertex 20 18.325 16.1366
      vertex 20 21.675 16.151
      vertex 20 21.675 16.1366
    endloop
  endfacet
  facet normal -1 -0 0
    outer loop
      vertex 20 21.675 16.151
      vertex 20 18.325 16.1366
      vertex 20 18.325 16.151
    endloop
  endfacet
  facet normal 0 1 -0
    outer loop
      vertex 50 25 8.98629e-08
      vertex 40.64 25 16.151
      vertex 50 25 16.151
    endloop
  endfacet
  facet normal 0 1 0
    outer loop
      vertex 40.64 25 16.151
      vertex 50 25 8.98629e-08
      vertex 40.64 25 8.98629e-08
    endloop
  endfacet
  facet normal 0 1 0
    outer loop
      vertex 40.64 25 16.151
      vertex 43.3333 25 20
      vertex 50 25 16.151
    endloop
  endfacet
  facet normal 0 1 0
    outer loop
      vertex 43.3333 25 20
      vertex 40.64 25 16.151
      vertex 36.6667 25 20
    endloop
  endfacet
  facet normal 0 1 0
    outer loop
      vertex 35.64 25 16.151
      vertex 36.6667 25 20
      vertex 40.64 25 16.151
    endloop
  endfacet
  facet normal 0 1 -0
    outer loop
      vertex 35.64 25 16.151
      vertex 30 25 16.151
      vertex 36.6667 25 20
    endloop
  endfacet
  facet normal 0 1 0
    outer loop
      vertex 30 25 16.151
      vertex 35.64 25 0
      vertex 20 25 16.151
    endloop
  endfacet
  facet normal 0 1 -0
    outer loop
      vertex 35.64 25 0
      vertex 30 25 16.151
      vertex 35.64 25 16.151
    endloop
  endfacet
  facet normal 0 1 0
    outer loop
      vertex 0 25 0
      vertex 13.3333 25 20
      vertex 20 25 16.151
    endloop
  endfacet
  facet normal 0 1 0
    outer loop
      vertex 13.3333 25 20
      vertex 0 25 0
      vertex 6.66667 25 20
    endloop
  endfacet
  facet normal 0 1 0
    outer loop
      vertex 0 25 0
      vertex 20 25 16.151
      vertex 35.64 25 0
    endloop
  endfacet
  facet normal 0 1 0
    outer loop
      vertex 6.66667 25 20
      vertex 0 25 0
      vertex 0 25 16.151
    endloop
  endfacet
  facet normal 0 -1 -0
    outer loop
      vertex 6.66667 15 20
      vertex 0 15 16.151
      vertex 13.3333 15 20
    endloop
  endfacet
  facet normal 0 -1 0
    outer loop
      vertex 20 15 16.151
      vertex 13.3333 15 20
      vertex 0 15 16.151
    endloop
  endfacet
  facet normal 1 0 0
    outer loop
      vertex 50 6.675 16.1366
      vertex 50 10 16.151
      vertex 50 6.675 16.151
    endloop
  endfacet
  facet normal 1 0 0
    outer loop
      vertex 50 10 16.151
      vertex 50 6.675 16.1366
      vertex 50 10 8.98629e-08
    endloop
  endfacet
  facet normal 1 -0 0
    outer loop
      vertex 50 3.325 16.1366
      vertex 50 10 8.98629e-08
      vertex 50 6.675 16.1366
    endloop
  endfacet
  facet normal 1 -0 0
    outer loop
      vertex 50 0 16.151
      vertex 50 3.325 16.1366
      vertex 50 3.325 16.151
    endloop
  endfacet
  facet normal 1 0 0
    outer loop
      vertex 50 0 8.98629e-08
      vertex 50 3.325 16.1366
      vertex 50 0 16.151
    endloop
  endfacet
  facet normal 1 0 0
    outer loop
      vertex 50 3.325 16.1366
      vertex 50 0 8.98629e-08
      vertex 50 10 8.98629e-08
    endloop
  endfacet
  facet normal 1 -0 0
    outer loop
      vertex 30 3.325 16.151
      vertex 30 6.675 16.1366
      vertex 30 6.675 16.151
    endloop
  endfacet
  facet normal 1 0 0
    outer loop
      vertex 30 6.675 16.1366
      vertex 30 3.325 16.151
      vertex 30 3.325 16.1366
    endloop
  endfacet
  facet normal 0 0 -1
    outer loop
      vertex 40.64 0 8.98629e-08
      vertex 50 10 8.98629e-08
      vertex 50 0 8.98629e-08
    endloop
  endfacet
  facet normal -0 0 -1
    outer loop
      vertex 50 10 8.98629e-08
      vertex 40.64 0 8.98629e-08
      vertex 40.64 10 8.98629e-08
    endloop
  endfacet
  facet normal 0 1 -0
    outer loop
      vertex 50 10 8.98629e-08
      vertex 40.64 10 16.151
      vertex 50 10 16.151
    endloop
  endfacet
  facet normal 0 1 0
    outer loop
      vertex 40.64 10 16.151
      vertex 50 10 8.98629e-08
      vertex 40.64 10 8.98629e-08
    endloop
  endfacet
  facet normal 0 1 0
    outer loop
      vertex 40.64 10 16.151
      vertex 43.3333 10 20
      vertex 50 10 16.151
    endloop
  endfacet
  facet normal 0 1 0
    outer loop
      vertex 43.3333 10 20
      vertex 40.64 10 16.151
      vertex 36.6667 10 20
    endloop
  endfacet
  facet normal 0 1 0
    outer loop
      vertex 35.64 10 16.151
      vertex 36.6667 10 20
      vertex 40.64 10 16.151
    endloop
  endfacet
  facet normal 0 1 -0
    outer loop
      vertex 35.64 10 16.151
      vertex 30 10 16.151
      vertex 36.6667 10 20
    endloop
  endfacet
  facet normal 1 0 0
    outer loop
      vertex 50 21.675 16.1366
      vertex 50 25 16.151
      vertex 50 21.675 16.151
    endloop
  endfacet
  facet normal 1 0 0
    outer loop
      vertex 50 25 16.151
      vertex 50 21.675 16.1366
      vertex 50 25 8.98629e-08
    endloop
  endfacet
  facet normal 1 -0 0
    outer loop
      vertex 50 18.325 16.1366
      vertex 50 25 8.98629e-08
      vertex 50 21.675 16.1366
    endloop
  endfacet
  facet normal 1 -0 0
    outer loop
      vertex 50 15 16.151
      vertex 50 18.325 16.1366
      vertex 50 18.325 16.151
    endloop
  endfacet
  facet normal 1 0 0
    outer loop
      vertex 50 15 8.98629e-08
      vertex 50 18.325 16.1366
      vertex 50 15 16.151
    endloop
  endfacet
  facet normal 1 0 0
    outer loop
      vertex 50 18.325 16.1366
      vertex 50 15 8.98629e-08
      vertex 50 25 8.98629e-08
    endloop
  endfacet
  facet normal 1 -0 0
    outer loop
      vertex 30 18.325 16.151
      vertex 30 21.675 16.1366
      vertex 30 21.675 16.151
    endloop
  endfacet
  facet normal 1 0 0
    outer loop
      vertex 30 21.675 16.1366
      vertex 30 18.325 16.151
      vertex 30 18.325 16.1366
    endloop
  endfacet
  facet normal 0 0 -1
    outer loop
      vertex 40.64 15 8.98629e-08
      vertex 50 25 8.98629e-08
      vertex 50 15 8.98629e-08
    endloop
  endfacet
  facet normal -0 0 -1
    outer loop
      vertex 50 25 8.98629e-08
      vertex 40.64 15 8.98629e-08
      vertex 40.64 25 8.98629e-08
    endloop
  endfacet
  facet normal 0 -1 0
    outer loop
      vertex 35.64 15 16.151
      vertex 36.6667 15 20
      vertex 30 15 16.151
    endloop
  endfacet
  facet normal 0 -1 0
    outer loop
      vertex 40.64 15 16.151
      vertex 36.6667 15 20
      vertex 35.64 15 16.151
    endloop
  endfacet
  facet normal 0 -1 0
    outer loop
      vertex 36.6667 15 20
      vertex 40.64 15 16.151
      vertex 43.3333 15 20
    endloop
  endfacet
  facet normal 0 -1 0
    outer loop
      vertex 40.64 15 16.151
      vertex 50 15 16.151
      vertex 43.3333 15 20
    endloop
  endfacet
  facet normal 0 -1 0
    outer loop
      vertex 40.64 15 8.98629e-08
      vertex 50 15 16.151
      vertex 40.64 15 16.151
    endloop
  endfacet
  facet normal 0 -1 -0
    outer loop
      vertex 50 15 16.151
      vertex 40.64 15 8.98629e-08
      vertex 50 15 8.98629e-08
    endloop
  endfacet
  facet normal -0 0 1
    outer loop
      vertex 35.64 37.82 20
      vertex 40.64 26 20
      vertex 40.64 37.82 20
    endloop
  endfacet
  facet normal 0 0 1
    outer loop
      vertex 40.64 26 20
      vertex 35.64 37.82 20
      vertex 35.64 26 20
    endloop
  endfacet
  facet normal -0 0 1
    outer loop
      vertex 35.64 14 20
      vertex 40.64 11 20
      vertex 40.64 14 20
    endloop
  endfacet
  facet normal 0 0 1
    outer loop
      vertex 40.64 11 20
      vertex 35.64 14 20
      vertex 35.64 11 20
    endloop
  endfacet
  facet normal 1 0 0
    outer loop
      vertex 40.64 14 20
      vertex 40.64 11 20
      vertex 40.64 14 16.151
    endloop
  endfacet
  facet normal 1 0 0
    outer loop
      vertex 40.64 15 16.151
      vertex 40.64 14 16.151
      vertex 40.64 15 8.98629e-08
    endloop
  endfacet
  facet normal 1 0 0
    outer loop
      vertex 40.64 26 16.151
      vertex 40.64 37.82 20
      vertex 40.64 26 20
    endloop
  endfacet
  facet normal 1 0 0
    outer loop
      vertex 40.64 37.82 20
      vertex 40.64 26 16.151
      vertex 40.64 37.82 0
    endloop
  endfacet
  facet normal 1 0 0
    outer loop
      vertex 40.64 25 8.98629e-08
      vertex 40.64 26 16.151
      vertex 40.64 25 16.151
    endloop
  endfacet
  facet normal 1 0 0
    outer loop
      vertex 40.64 26 16.151
      vertex 40.64 25 8.98629e-08
      vertex 40.64 37.82 0
    endloop
  endfacet
  facet normal 1 -0 0
    outer loop
      vertex 40.64 15 8.98629e-08
      vertex 40.64 37.82 0
      vertex 40.64 25 8.98629e-08
    endloop
  endfacet
  facet normal 1 0 0
    outer loop
      vertex 40.64 11 16.151
      vertex 40.64 14 16.151
      vertex 40.64 11 20
    endloop
  endfacet
  facet normal 1 0 0
    outer loop
      vertex 40.64 14 16.151
      vertex 40.64 11 16.151
      vertex 40.64 15 8.98629e-08
    endloop
  endfacet
  facet normal 1 0 0
    outer loop
      vertex 40.64 10 8.98629e-08
      vertex 40.64 11 16.151
      vertex 40.64 10 16.151
    endloop
  endfacet
  facet normal 1 0 0
    outer loop
      vertex 40.64 11 16.151
      vertex 40.64 10 8.98629e-08
      vertex 40.64 15 8.98629e-08
    endloop
  endfacet
  facet normal 1 -0 0
    outer loop
      vertex 40.64 10 8.98629e-08
      vertex 40.64 37.82 0
      vertex 40.64 15 8.98629e-08
    endloop
  endfacet
  facet normal 1 0 0
    outer loop
      vertex 40.64 0 0
      vertex 40.64 10 8.98629e-08
      vertex 40.64 0 8.98629e-08
    endloop
  endfacet
  facet normal 1 0 0
    outer loop
      vertex 40.64 10 8.98629e-08
      vertex 40.64 0 0
      vertex 40.64 37.82 0
    endloop
  endfacet
  facet normal -1 0 0
    outer loop
      vertex 35.64 37.82 0
      vertex 35.64 26 16.151
      vertex 35.64 37.82 20
    endloop
  endfacet
  facet normal -1 0 0
    outer loop
      vertex 35.64 25 0
      vertex 35.64 26 16.151
      vertex 35.64 37.82 0
    endloop
  endfacet
  facet normal -1 -0 0
    outer loop
      vertex 35.64 26 16.151
      vertex 35.64 25 0
      vertex 35.64 25 16.151
    endloop
  endfacet
  facet normal -1 -0 0
    outer loop
      vertex 35.64 37.82 20
      vertex 35.64 26 16.151
      vertex 35.64 26 20
    endloop
  endfacet
  facet normal -1 0 0
    outer loop
      vertex 35.64 14 16.151
      vertex 35.64 11 16.151
      vertex 35.64 14 20
    endloop
  endfacet
  facet normal 0 0 0
    outer loop
      vertex 35.64 15 16.151
      vertex 35.64 11 16.151
      vertex 35.64 14 16.151
    endloop
  endfacet
  facet normal 0 0 0
    outer loop
      vertex 35.64 10 16.151
      vertex 35.64 11 16.151
      vertex 35.64 15 16.151
    endloop
  endfacet
  facet normal -1 -0 0
    outer loop
      vertex 35.64 14 20
      vertex 35.64 11 16.151
      vertex 35.64 11 20
    endloop
  endfacet
  facet normal 0 0 -1
    outer loop
      vertex 40.64 0 0
      vertex 35.64 25 0
      vertex 40.64 37.82 0
    endloop
  endfacet
  facet normal 0 0 -1
    outer loop
      vertex 0 0 0
      vertex 35.64 25 0
      vertex 40.64 0 0
    endloop
  endfacet
  facet normal -0 0 -1
    outer loop
      vertex 35.64 25 0
      vertex 0 0 0
      vertex 0 25 0
    endloop
  endfacet
  facet normal -0 0 -1
    outer loop
      vertex 40.64 37.82 0
      vertex 35.64 25 0
      vertex 35.64 37.82 0
    endloop
  endfacet
  facet normal 0 1 -0
    outer loop
      vertex 40.64 37.82 0
      vertex 35.64 37.82 20
      vertex 40.64 37.82 20
    endloop
  endfacet
  facet normal 0 1 0
    outer loop
      vertex 35.64 37.82 20
      vertex 40.64 37.82 0
      vertex 35.64 37.82 0
    endloop
  endfacet
  facet normal -0 0 1
    outer loop
      vertex 0 15 16.151
      vertex 20 10 16.151
      vertex 20 15 16.151
    endloop
  endfacet
  facet normal 0 0 1
    outer loop
      vertex 20 10 16.151
      vertex 0 15 16.151
      vertex 0 10 16.151
    endloop
  endfacet
  facet normal 0 0 1
    outer loop
      vertex 20 21.675 16.151
      vertex 30 21.675 16.151
      vertex 30 25 16.151
    endloop
  endfacet
  facet normal 0 0 1
    outer loop
      vertex 30 21.675 16.151
      vertex 20 21.675 16.151
      vertex 30 18.325 16.151
    endloop
  endfacet
  facet normal 0 0 1
    outer loop
      vertex 30 18.325 16.151
      vertex 20 18.325 16.151
      vertex 30 15 16.151
    endloop
  endfacet
  facet normal 0 0 1
    outer loop
      vertex 20 15 16.151
      vertex 30 15 16.151
      vertex 20 18.325 16.151
    endloop
  endfacet
  facet normal 0 0 1
    outer loop
      vertex 20 10 16.151
      vertex 30 10 16.151
      vertex 20 15 16.151
    endloop
  endfacet
  facet normal 0 0 1
    outer loop
      vertex 30 10 16.151
      vertex 20 10 16.151
      vertex 30 6.675 16.151
    endloop
  endfacet
  facet normal 0 0 1
    outer loop
      vertex 20 21.675 16.151
      vertex 30 25 16.151
      vertex 20 25 16.151
    endloop
  endfacet
  facet normal 0 0 1
    outer loop
      vertex 30 18.325 16.151
      vertex 20 21.675 16.151
      vertex 20 18.325 16.151
    endloop
  endfacet
  facet normal 0 0 1
    outer loop
      vertex 30 15 16.151
      vertex 20 15 16.151
      vertex 30 10 16.151
    endloop
  endfacet
  facet normal 0 0 1
    outer loop
      vertex 20 6.675 16.151
      vertex 30 6.675 16.151
      vertex 20 10 16.151
    endloop
  endfacet
  facet normal 0 0 1
    outer loop
      vertex 30 6.675 16.151
      vertex 20 6.675 16.151
      vertex 30 3.325 16.151
    endloop
  endfacet
  facet normal 0 0 1
    outer loop
      vertex 20 3.325 16.151
      vertex 30 3.325 16.151
      vertex 20 6.675 16.151
    endloop
  endfacet
  facet normal 0 0 1
    outer loop
      vertex 30 3.325 16.151
      vertex 20 3.325 16.151
      vertex 30 0 16.151
    endloop
  endfacet
  facet normal 0 0 1
    outer loop
      vertex 30 0 16.151
      vertex 20 3.325 16.151
      vertex 20 0 16.151
    endloop
  endfacet
  facet normal -0 0 1
    outer loop
      vertex 30 15 16.151
      vertex 35.64 10 16.151
      vertex 35.64 15 16.151
    endloop
  endfacet
  facet normal 0 0 1
    outer loop
      vertex 35.64 10 16.151
      vertex 30 15 16.151
      vertex 30 10 16.151
    endloop
  endfacet
  facet normal -0 0 1
    outer loop
      vertex 35.64 11 16.151
      vertex 40.64 10 16.151
      vertex 40.64 11 16.151
    endloop
  endfacet
  facet normal 0 0 1
    outer loop
      vertex 40.64 10 16.151
      vertex 35.64 11 16.151
      vertex 35.64 10 16.151
    endloop
  endfacet
  facet normal 0 -1 0
    outer loop
      vertex 35.64 11 16.151
      vertex 40.64 11 20
      vertex 35.64 11 20
    endloop
  endfacet
  facet normal 0 -1 -0
    outer loop
      vertex 40.64 11 20
      vertex 35.64 11 16.151
      vertex 40.64 11 16.151
    endloop
  endfacet
  facet normal -0 0 1
    outer loop
      vertex 35.64 26 16.151
      vertex 40.64 25 16.151
      vertex 40.64 26 16.151
    endloop
  endfacet
  facet normal 0 0 1
    outer loop
      vertex 40.64 25 16.151
      vertex 35.64 26 16.151
      vertex 35.64 25 16.151
    endloop
  endfacet
  facet normal -0 0 1
    outer loop
      vertex 35.64 15 16.151
      vertex 40.64 14 16.151
      vertex 40.64 15 16.151
    endloop
  endfacet
  facet normal 0 0 1
    outer loop
      vertex 40.64 14 16.151
      vertex 35.64 15 16.151
      vertex 35.64 14 16.151
    endloop
  endfacet
  facet normal 0 -1 0
    outer loop
      vertex 35.64 26 16.151
      vertex 40.64 26 20
      vertex 35.64 26 20
    endloop
  endfacet
  facet normal 0 -1 -0
    outer loop
      vertex 40.64 26 20
      vertex 35.64 26 16.151
      vertex 40.64 26 16.151
    endloop
  endfacet
  facet normal 0 1 -0
    outer loop
      vertex 40.64 14 16.151
      vertex 35.64 14 20
      vertex 40.64 14 20
    endloop
  endfacet
  facet normal 0 1 0
    outer loop
      vertex 35.64 14 20
      vertex 40.64 14 16.151
      vertex 35.64 14 16.151
    endloop
  endfacet
  facet normal 0 0 1
    outer loop
      vertex 13.3333 10 20
      vertex 10 7.93125 20
      vertex 13.3333 6.68125 20
    endloop
  endfacet
  facet normal -0 0 1
    outer loop
      vertex 6.66667 10 20
      vertex 10 7.93125 20
      vertex 13.3333 10 20
    endloop
  endfacet
  facet normal 0 0 1
    outer loop
      vertex 10 7.93125 20
      vertex 6.66667 10 20
      vertex 6.66667 6.68125 20
    endloop
  endfacet
  facet normal -0 0 1
    outer loop
      vertex 10 2.06875 20
      vertex 13.3333 0 20
      vertex 13.3333 3.31875 20
    endloop
  endfacet
  facet normal 0 0 1
    outer loop
      vertex 6.66667 0 20
      vertex 10 2.06875 20
      vertex 6.66667 3.31875 20
    endloop
  endfacet
  facet normal 0 0 1
    outer loop
      vertex 10 2.06875 20
      vertex 6.66667 0 20
      vertex 13.3333 0 20
    endloop
  endfacet
  facet normal -0.499047 0 0.866575
    outer loop
      vertex 6.65 3.325 19.9904
      vertex 6.66667 0 20
      vertex 6.66667 3.31875 20
    endloop
  endfacet
  facet normal -0.500002 -6.37626e-06 0.866024
    outer loop
      vertex 0 3.325 16.151
      vertex 6.66667 0 20
      vertex 6.65 3.325 19.9904
    endloop
  endfacet
  facet normal -0.5 0 0.866026
    outer loop
      vertex 6.66667 0 20
      vertex 0 3.325 16.151
      vertex 0 0 16.151
    endloop
  endfacet
  facet normal -0.499047 0 0.866575
    outer loop
      vertex 6.66667 10 20
      vertex 6.65 6.675 19.9904
      vertex 6.66667 6.68125 20
    endloop
  endfacet
  facet normal -0.5 6.36032e-06 0.866026
    outer loop
      vertex 0 10 16.151
      vertex 6.65 6.675 19.9904
      vertex 6.66667 10 20
    endloop
  endfacet
  facet normal -0.500002 0 0.866024
    outer loop
      vertex 6.65 6.675 19.9904
      vertex 0 10 16.151
      vertex 0 6.675 16.151
    endloop
  endfacet
  facet normal 0.500002 0 0.866024
    outer loop
      vertex 20 10 16.151
      vertex 13.35 6.675 19.9904
      vertex 20 6.675 16.151
    endloop
  endfacet
  facet normal 0.499998 1.08603e-05 0.866027
    outer loop
      vertex 13.3333 10 20
      vertex 13.35 6.675 19.9904
      vertex 20 10 16.151
    endloop
  endfacet
  facet normal 0.498374 0 0.866962
    outer loop
      vertex 13.35 6.675 19.9904
      vertex 13.3333 10 20
      vertex 13.3333 6.68125 20
    endloop
  endfacet
  facet normal 0.500002 0 0.866024
    outer loop
      vertex 13.35 3.325 19.9904
      vertex 20 0 16.151
      vertex 20 3.325 16.151
    endloop
  endfacet
  facet normal 0.498374 -0 0.866962
    outer loop
      vertex 13.3333 0 20
      vertex 13.35 3.325 19.9904
      vertex 13.3333 3.31875 20
    endloop
  endfacet
  facet normal 0.499998 -1.08603e-05 0.866027
    outer loop
      vertex 13.35 3.325 19.9904
      vertex 13.3333 0 20
      vertex 20 0 16.151
    endloop
  endfacet
  facet normal 0 1 0
    outer loop
      vertex 20 3.325 16.151
      vertex 15.7879 3.325 16.9885
      vertex 13.35 3.325 19.9904
    endloop
  endfacet
  facet normal 0 1 0
    outer loop
      vertex 15.7879 3.325 16.9885
      vertex 20 3.325 16.151
      vertex 15.7879 3.325 16.151
    endloop
  endfacet
  facet normal 0 1 0
    outer loop
      vertex 13.35 3.325 19.9904
      vertex 15.7879 3.325 16.9885
      vertex 13.35 3.325 16.9885
    endloop
  endfacet
  facet normal 0 1 0
    outer loop
      vertex 4.21206 3.325 16.9885
      vertex 6.65 3.325 19.9904
      vertex 6.65 3.325 16.9885
    endloop
  endfacet
  facet normal 0 1 -0
    outer loop
      vertex 4.21206 3.325 16.9885
      vertex 0 3.325 16.151
      vertex 6.65 3.325 19.9904
    endloop
  endfacet
  facet normal 0 1 0
    outer loop
      vertex 0 3.325 16.151
      vertex 4.21206 3.325 16.9885
      vertex 4.21206 3.325 16.151
    endloop
  endfacet
  facet normal 0 -1 0
    outer loop
      vertex 15.7879 6.675 16.9885
      vertex 13.35 6.675 19.9904
      vertex 13.35 6.675 16.9885
    endloop
  endfacet
  facet normal 0 -1 0
    outer loop
      vertex 15.7879 6.675 16.9885
      vertex 20 6.675 16.151
      vertex 13.35 6.675 19.9904
    endloop
  endfacet
  facet normal 0 -1 0
    outer loop
      vertex 20 6.675 16.151
      vertex 15.7879 6.675 16.9885
      vertex 15.7879 6.675 16.151
    endloop
  endfacet
  facet normal 0 -1 0
    outer loop
      vertex 0 6.675 16.151
      vertex 4.21206 6.675 16.9885
      vertex 6.65 6.675 19.9904
    endloop
  endfacet
  facet normal 0 -1 -0
    outer loop
      vertex 4.21206 6.675 16.9885
      vertex 0 6.675 16.151
      vertex 4.21206 6.675 16.151
    endloop
  endfacet
  facet normal 0 -1 -0
    outer loop
      vertex 6.65 6.675 19.9904
      vertex 4.21206 6.675 16.9885
      vertex 6.65 6.675 16.9885
    endloop
  endfacet
  facet normal 0 1 -0
    outer loop
      vertex 20 3.325 16.1366
      vertex 15.7879 3.325 16.151
      vertex 20 3.325 16.151
    endloop
  endfacet
  facet normal 0 1 0
    outer loop
      vertex 20 3.325 16.1366
      vertex 15.7879 3.325 15.3135
      vertex 15.7879 3.325 16.151
    endloop
  endfacet
  facet normal 0 1 0
    outer loop
      vertex 15.7879 3.325 15.3135
      vertex 13.35 3.325 12.2972
      vertex 13.35 3.325 15.3135
    endloop
  endfacet
  facet normal 0 1 0
    outer loop
      vertex 13.35 3.325 12.2972
      vertex 15.7879 3.325 15.3135
      vertex 20 3.325 16.1366
    endloop
  endfacet
  facet normal 0 1 0
    outer loop
      vertex 4.21206 3.325 16.151
      vertex 0 3.325 16.1366
      vertex 0 3.325 16.151
    endloop
  endfacet
  facet normal 0 1 -0
    outer loop
      vertex 4.21206 3.325 15.3135
      vertex 0 3.325 16.1366
      vertex 4.21206 3.325 16.151
    endloop
  endfacet
  facet normal 0 1 0
    outer loop
      vertex 6.65 3.325 15.3135
      vertex 6.65 3.325 12.2972
      vertex 4.21206 3.325 15.3135
    endloop
  endfacet
  facet normal 0 1 0
    outer loop
      vertex 4.21206 3.325 15.3135
      vertex 6.65 3.325 12.2972
      vertex 0 3.325 16.1366
    endloop
  endfacet
  facet normal 0 -1 0
    outer loop
      vertex 15.7879 6.675 16.151
      vertex 20 6.675 16.1366
      vertex 20 6.675 16.151
    endloop
  endfacet
  facet normal 0 -1 0
    outer loop
      vertex 15.7879 6.675 15.3135
      vertex 20 6.675 16.1366
      vertex 15.7879 6.675 16.151
    endloop
  endfacet
  facet normal 0 -1 0
    outer loop
      vertex 13.35 6.675 15.3135
      vertex 13.35 6.675 12.2972
      vertex 15.7879 6.675 15.3135
    endloop
  endfacet
  facet normal 0 -1 -0
    outer loop
      vertex 15.7879 6.675 15.3135
      vertex 13.35 6.675 12.2972
      vertex 20 6.675 16.1366
    endloop
  endfacet
  facet normal 0 -1 0
    outer loop
      vertex 0 6.675 16.1366
      vertex 4.21206 6.675 16.151
      vertex 0 6.675 16.151
    endloop
  endfacet
  facet normal 0 -1 0
    outer loop
      vertex 0 6.675 16.1366
      vertex 4.21206 6.675 15.3135
      vertex 4.21206 6.675 16.151
    endloop
  endfacet
  facet normal 0 -1 0
    outer loop
      vertex 4.21206 6.675 15.3135
      vertex 6.65 6.675 12.2972
      vertex 6.65 6.675 15.3135
    endloop
  endfacet
  facet normal 0 -1 0
    outer loop
      vertex 6.65 6.675 12.2972
      vertex 4.21206 6.675 15.3135
      vertex 0 6.675 16.1366
    endloop
  endfacet
  facet normal 0.500002 0 0.866024
    outer loop
      vertex 0 6.675 16.1366
      vertex 6.65 3.325 12.2972
      vertex 6.65 6.675 12.2972
    endloop
  endfacet
  facet normal 0.500002 0 0.866024
    outer loop
      vertex 6.65 3.325 12.2972
      vertex 0 6.675 16.1366
      vertex 0 3.325 16.1366
    endloop
  endfacet
  facet normal -0.500002 0 0.866024
    outer loop
      vertex 13.35 6.675 12.2972
      vertex 20 3.325 16.1366
      vertex 20 6.675 16.1366
    endloop
  endfacet
  facet normal -0.500002 0 0.866024
    outer loop
      vertex 20 3.325 16.1366
      vertex 13.35 6.675 12.2972
      vertex 13.35 3.325 12.2972
    endloop
  endfacet
  facet normal -0 0 1
    outer loop
      vertex 10 5.41875 12.2972
      vertex 13.35 3.325 12.2972
      vertex 13.35 6.675 12.2972
    endloop
  endfacet
  facet normal 0 0 1
    outer loop
      vertex 10 5.41875 12.2972
      vertex 10 4.58125 12.2972
      vertex 13.35 3.325 12.2972
    endloop
  endfacet
  facet normal 0 0 1
    outer loop
      vertex 6.65 6.675 12.2972
      vertex 10 4.58125 12.2972
      vertex 10 5.41875 12.2972
    endloop
  endfacet
  facet normal 0 0 1
    outer loop
      vertex 6.65 6.675 12.2972
      vertex 6.65 3.325 12.2972
      vertex 10 4.58125 12.2972
    endloop
  endfacet
  facet normal 0 0 1
    outer loop
      vertex 10 2.06875 12.2972
      vertex 13.35 3.325 12.2972
      vertex 10 4.58125 12.2972
    endloop
  endfacet
  facet normal -0 0 1
    outer loop
      vertex 6.65 3.325 12.2972
      vertex 10 2.06875 12.2972
      vertex 10 4.58125 12.2972
    endloop
  endfacet
  facet normal 0 0 1
    outer loop
      vertex 10 7.93125 12.2972
      vertex 10 5.41875 12.2972
      vertex 13.35 6.675 12.2972
    endloop
  endfacet
  facet normal 0 0 1
    outer loop
      vertex 10 7.93125 12.2972
      vertex 6.65 6.675 12.2972
      vertex 10 5.41875 12.2972
    endloop
  endfacet
  facet normal 0.351124 0.936329 -3.90591e-07
    outer loop
      vertex 6.65 3.325 16.9885
      vertex 6.66667 3.31875 20
      vertex 10 2.06875 20
    endloop
  endfacet
  facet normal 0.351062 0.936352 0
    outer loop
      vertex 6.66667 3.31875 20
      vertex 6.65 3.325 16.9885
      vertex 6.65 3.325 19.9904
    endloop
  endfacet
  facet normal 0.351123 0.936329 6.35632e-07
    outer loop
      vertex 10 2.06875 20
      vertex 7.76667 2.90625 16.151
      vertex 6.65 3.325 16.9885
    endloop
  endfacet
  facet normal 0.351124 0.936329 -0
    outer loop
      vertex 10 2.06875 12.2972
      vertex 7.76667 2.90625 16.151
      vertex 10 2.06875 20
    endloop
  endfacet
  facet normal 0.351123 0.936329 -6.3508e-07
    outer loop
      vertex 10 2.06875 12.2972
      vertex 6.65 3.325 15.3135
      vertex 7.76667 2.90625 16.151
    endloop
  endfacet
  facet normal 0.351123 0.936329 0
    outer loop
      vertex 6.65 3.325 15.3135
      vertex 10 2.06875 12.2972
      vertex 6.65 3.325 12.2972
    endloop
  endfacet
  facet normal -0.350509 0.936559 0
    outer loop
      vertex 13.35 3.325 16.9885
      vertex 13.3333 3.31875 20
      vertex 13.35 3.325 19.9904
    endloop
  endfacet
  facet normal -0.351127 0.936328 -3.90594e-06
    outer loop
      vertex 13.3333 3.31875 20
      vertex 13.35 3.325 16.9885
      vertex 10 2.06875 20
    endloop
  endfacet
  facet normal -0.351118 0.936331 6.35624e-06
    outer loop
      vertex 12.2333 2.90625 16.151
      vertex 10 2.06875 20
      vertex 13.35 3.325 16.9885
    endloop
  endfacet
  facet normal -0.351123 0.936329 0
    outer loop
      vertex 10 2.06875 12.2972
      vertex 13.35 3.325 15.3135
      vertex 13.35 3.325 12.2972
    endloop
  endfacet
  facet normal -0.351118 0.936331 -6.35072e-06
    outer loop
      vertex 13.35 3.325 15.3135
      vertex 10 2.06875 12.2972
      vertex 12.2333 2.90625 16.151
    endloop
  endfacet
  facet normal -0.351128 0.936327 0
    outer loop
      vertex 12.2333 2.90625 16.151
      vertex 10 2.06875 12.2972
      vertex 10 2.06875 20
    endloop
  endfacet
  facet normal -1 0 0
    outer loop
      vertex 15.7879 3.325 16.151
      vertex 15.7879 2.90625 16.151
      vertex 15.7879 3.325 16.9885
    endloop
  endfacet
  facet normal -1 0 0
    outer loop
      vertex 15.7879 3.325 15.3135
      vertex 15.7879 2.90625 16.151
      vertex 15.7879 3.325 16.151
    endloop
  endfacet
  facet normal 0 0.894427 -0.447214
    outer loop
      vertex 15.7879 2.90625 16.151
      vertex 13.35 3.325 16.9885
      vertex 15.7879 3.325 16.9885
    endloop
  endfacet
  facet normal 0 0.894427 -0.447214
    outer loop
      vertex 13.35 3.325 16.9885
      vertex 15.7879 2.90625 16.151
      vertex 12.2333 2.90625 16.151
    endloop
  endfacet
  facet normal 0 0.894427 -0.447214
    outer loop
      vertex 4.21206 2.90625 16.151
      vertex 6.65 3.325 16.9885
      vertex 7.76667 2.90625 16.151
    endloop
  endfacet
  facet normal 0 0.894427 -0.447214
    outer loop
      vertex 6.65 3.325 16.9885
      vertex 4.21206 2.90625 16.151
      vertex 4.21206 3.325 16.9885
    endloop
  endfacet
  facet normal -0 0.894427 0.447214
    outer loop
      vertex 13.35 3.325 15.3135
      vertex 15.7879 2.90625 16.151
      vertex 15.7879 3.325 15.3135
    endloop
  endfacet
  facet normal 0 0.894427 0.447214
    outer loop
      vertex 15.7879 2.90625 16.151
      vertex 13.35 3.325 15.3135
      vertex 12.2333 2.90625 16.151
    endloop
  endfacet
  facet normal 0 0.894427 0.447214
    outer loop
      vertex 6.65 3.325 15.3135
      vertex 4.21206 2.90625 16.151
      vertex 7.76667 2.90625 16.151
    endloop
  endfacet
  facet normal 0 0.894427 0.447214
    outer loop
      vertex 4.21206 2.90625 16.151
      vertex 6.65 3.325 15.3135
      vertex 4.21206 3.325 15.3135
    endloop
  endfacet
  facet normal 1 0 0
    outer loop
      vertex 4.21206 3.325 16.9885
      vertex 4.21206 2.90625 16.151
      vertex 4.21206 3.325 16.151
    endloop
  endfacet
  facet normal 1 -0 0
    outer loop
      vertex 4.21206 2.90625 16.151
      vertex 4.21206 3.325 15.3135
      vertex 4.21206 3.325 16.151
    endloop
  endfacet
  facet normal 0.351062 -0.936352 0
    outer loop
      vertex 6.65 6.675 16.9885
      vertex 6.66667 6.68125 20
      vertex 6.65 6.675 19.9904
    endloop
  endfacet
  facet normal 0.351124 -0.936329 -3.90591e-07
    outer loop
      vertex 6.66667 6.68125 20
      vertex 6.65 6.675 16.9885
      vertex 10 7.93125 20
    endloop
  endfacet
  facet normal 0.351123 -0.936329 6.35632e-07
    outer loop
      vertex 7.76667 7.09375 16.151
      vertex 10 7.93125 20
      vertex 6.65 6.675 16.9885
    endloop
  endfacet
  facet normal 0.351123 -0.936329 0
    outer loop
      vertex 10 7.93125 12.2972
      vertex 6.65 6.675 15.3135
      vertex 6.65 6.675 12.2972
    endloop
  endfacet
  facet normal 0.351123 -0.936329 -6.3508e-07
    outer loop
      vertex 6.65 6.675 15.3135
      vertex 10 7.93125 12.2972
      vertex 7.76667 7.09375 16.151
    endloop
  endfacet
  facet normal 0.351124 -0.936329 0
    outer loop
      vertex 7.76667 7.09375 16.151
      vertex 10 7.93125 12.2972
      vertex 10 7.93125 20
    endloop
  endfacet
  facet normal -0.351127 -0.936328 -3.90594e-06
    outer loop
      vertex 13.35 6.675 16.9885
      vertex 13.3333 6.68125 20
      vertex 10 7.93125 20
    endloop
  endfacet
  facet normal -0.350509 -0.936559 0
    outer loop
      vertex 13.3333 6.68125 20
      vertex 13.35 6.675 16.9885
      vertex 13.35 6.675 19.9904
    endloop
  endfacet
  facet normal -0.351118 -0.936331 6.35624e-06
    outer loop
      vertex 10 7.93125 20
      vertex 12.2333 7.09375 16.151
      vertex 13.35 6.675 16.9885
    endloop
  endfacet
  facet normal -0.351128 -0.936327 0
    outer loop
      vertex 10 7.93125 12.2972
      vertex 12.2333 7.09375 16.151
      vertex 10 7.93125 20
    endloop
  endfacet
  facet normal -0.351118 -0.936331 -6.35072e-06
    outer loop
      vertex 10 7.93125 12.2972
      vertex 13.35 6.675 15.3135
      vertex 12.2333 7.09375 16.151
    endloop
  endfacet
  facet normal -0.351123 -0.936329 -0
    outer loop
      vertex 13.35 6.675 15.3135
      vertex 10 7.93125 12.2972
      vertex 13.35 6.675 12.2972
    endloop
  endfacet
  facet normal -1 -0 0
    outer loop
      vertex 15.7879 7.09375 16.151
      vertex 15.7879 6.675 15.3135
      vertex 15.7879 6.675 16.151
    endloop
  endfacet
  facet normal -1 0 0
    outer loop
      vertex 15.7879 7.09375 16.151
      vertex 15.7879 6.675 16.151
      vertex 15.7879 6.675 16.9885
    endloop
  endfacet
  facet normal 0 -0.894427 0.447214
    outer loop
      vertex 13.35 6.675 15.3135
      vertex 15.7879 7.09375 16.151
      vertex 12.2333 7.09375 16.151
    endloop
  endfacet
  facet normal 0 -0.894427 0.447214
    outer loop
      vertex 15.7879 7.09375 16.151
      vertex 13.35 6.675 15.3135
      vertex 15.7879 6.675 15.3135
    endloop
  endfacet
  facet normal 0 -0.894427 0.447214
    outer loop
      vertex 6.65 6.675 15.3135
      vertex 4.21206 7.09375 16.151
      vertex 4.21206 6.675 15.3135
    endloop
  endfacet
  facet normal 0 -0.894427 0.447214
    outer loop
      vertex 4.21206 7.09375 16.151
      vertex 6.65 6.675 15.3135
      vertex 7.76667 7.09375 16.151
    endloop
  endfacet
  facet normal 1 0 0
    outer loop
      vertex 4.21206 6.675 16.151
      vertex 4.21206 7.09375 16.151
      vertex 4.21206 6.675 16.9885
    endloop
  endfacet
  facet normal 1 0 0
    outer loop
      vertex 4.21206 6.675 15.3135
      vertex 4.21206 7.09375 16.151
      vertex 4.21206 6.675 16.151
    endloop
  endfacet
  facet normal -0 -0.894427 -0.447214
    outer loop
      vertex 15.7879 7.09375 16.151
      vertex 13.35 6.675 16.9885
      vertex 12.2333 7.09375 16.151
    endloop
  endfacet
  facet normal 0 -0.894427 -0.447214
    outer loop
      vertex 13.35 6.675 16.9885
      vertex 15.7879 7.09375 16.151
      vertex 15.7879 6.675 16.9885
    endloop
  endfacet
  facet normal 0 -0.894427 -0.447214
    outer loop
      vertex 4.21206 7.09375 16.151
      vertex 6.65 6.675 16.9885
      vertex 4.21206 6.675 16.9885
    endloop
  endfacet
  facet normal 0 -0.894427 -0.447214
    outer loop
      vertex 6.65 6.675 16.9885
      vertex 4.21206 7.09375 16.151
      vertex 7.76667 7.09375 16.151
    endloop
  endfacet
  facet normal 0 0 1
    outer loop
      vertex 13.3333 25 20
      vertex 10 22.9312 20
      vertex 13.3333 21.6812 20
    endloop
  endfacet
  facet normal -0 0 1
    outer loop
      vertex 6.66667 25 20
      vertex 10 22.9312 20
      vertex 13.3333 25 20
    endloop
  endfacet
  facet normal 0 0 1
    outer loop
      vertex 10 22.9312 20
      vertex 6.66667 25 20
      vertex 6.66667 21.6812 20
    endloop
  endfacet
  facet normal -0 0 1
    outer loop
      vertex 10 17.0688 20
      vertex 13.3333 15 20
      vertex 13.3333 18.3188 20
    endloop
  endfacet
  facet normal 0 0 1
    outer loop
      vertex 6.66667 15 20
      vertex 10 17.0688 20
      vertex 6.66667 18.3188 20
    endloop
  endfacet
  facet normal 0 0 1
    outer loop
      vertex 10 17.0688 20
      vertex 6.66667 15 20
      vertex 13.3333 15 20
    endloop
  endfacet
  facet normal -0.499047 0 0.866575
    outer loop
      vertex 6.65 18.325 19.9904
      vertex 6.66667 15 20
      vertex 6.66667 18.3188 20
    endloop
  endfacet
  facet normal -0.500002 -6.37626e-06 0.866024
    outer loop
      vertex 0 18.325 16.151
      vertex 6.66667 15 20
      vertex 6.65 18.325 19.9904
    endloop
  endfacet
  facet normal -0.5 0 0.866026
    outer loop
      vertex 6.66667 15 20
      vertex 0 18.325 16.151
      vertex 0 15 16.151
    endloop
  endfacet
  facet normal -0.499047 0 0.866575
    outer loop
      vertex 6.66667 25 20
      vertex 6.65 21.675 19.9904
      vertex 6.66667 21.6812 20
    endloop
  endfacet
  facet normal -0.5 6.36032e-06 0.866026
    outer loop
      vertex 0 25 16.151
      vertex 6.65 21.675 19.9904
      vertex 6.66667 25 20
    endloop
  endfacet
  facet normal -0.500002 0 0.866024
    outer loop
      vertex 6.65 21.675 19.9904
      vertex 0 25 16.151
      vertex 0 21.675 16.151
    endloop
  endfacet
  facet normal 0.500002 0 0.866024
    outer loop
      vertex 20 25 16.151
      vertex 13.35 21.675 19.9904
      vertex 20 21.675 16.151
    endloop
  endfacet
  facet normal 0.499998 1.08603e-05 0.866027
    outer loop
      vertex 13.3333 25 20
      vertex 13.35 21.675 19.9904
      vertex 20 25 16.151
    endloop
  endfacet
  facet normal 0.498374 0 0.866962
    outer loop
      vertex 13.35 21.675 19.9904
      vertex 13.3333 25 20
      vertex 13.3333 21.6812 20
    endloop
  endfacet
  facet normal 0.500002 0 0.866024
    outer loop
      vertex 13.35 18.325 19.9904
      vertex 20 15 16.151
      vertex 20 18.325 16.151
    endloop
  endfacet
  facet normal 0.498374 -0 0.866962
    outer loop
      vertex 13.3333 15 20
      vertex 13.35 18.325 19.9904
      vertex 13.3333 18.3188 20
    endloop
  endfacet
  facet normal 0.499998 -1.08603e-05 0.866027
    outer loop
      vertex 13.35 18.325 19.9904
      vertex 13.3333 15 20
      vertex 20 15 16.151
    endloop
  endfacet
  facet normal 0 1 0
    outer loop
      vertex 20 18.325 16.151
      vertex 15.7879 18.325 16.9885
      vertex 13.35 18.325 19.9904
    endloop
  endfacet
  facet normal 0 1 0
    outer loop
      vertex 15.7879 18.325 16.9885
      vertex 20 18.325 16.151
      vertex 15.7879 18.325 16.151
    endloop
  endfacet
  facet normal 0 1 0
    outer loop
      vertex 13.35 18.325 19.9904
      vertex 15.7879 18.325 16.9885
      vertex 13.35 18.325 16.9885
    endloop
  endfacet
  facet normal 0 1 0
    outer loop
      vertex 4.21206 18.325 16.9885
      vertex 6.65 18.325 19.9904
      vertex 6.65 18.325 16.9885
    endloop
  endfacet
  facet normal 0 1 -0
    outer loop
      vertex 4.21206 18.325 16.9885
      vertex 0 18.325 16.151
      vertex 6.65 18.325 19.9904
    endloop
  endfacet
  facet normal 0 1 0
    outer loop
      vertex 0 18.325 16.151
      vertex 4.21206 18.325 16.9885
      vertex 4.21206 18.325 16.151
    endloop
  endfacet
  facet normal 0 -1 0
    outer loop
      vertex 15.7879 21.675 16.9885
      vertex 13.35 21.675 19.9904
      vertex 13.35 21.675 16.9885
    endloop
  endfacet
  facet normal 0 -1 0
    outer loop
      vertex 15.7879 21.675 16.9885
      vertex 20 21.675 16.151
      vertex 13.35 21.675 19.9904
    endloop
  endfacet
  facet normal 0 -1 0
    outer loop
      vertex 20 21.675 16.151
      vertex 15.7879 21.675 16.9885
      vertex 15.7879 21.675 16.151
    endloop
  endfacet
  facet normal 0 -1 0
    outer loop
      vertex 0 21.675 16.151
      vertex 4.21206 21.675 16.9885
      vertex 6.65 21.675 19.9904
    endloop
  endfacet
  facet normal 0 -1 -0
    outer loop
      vertex 4.21206 21.675 16.9885
      vertex 0 21.675 16.151
      vertex 4.21206 21.675 16.151
    endloop
  endfacet
  facet normal 0 -1 -0
    outer loop
      vertex 6.65 21.675 19.9904
      vertex 4.21206 21.675 16.9885
      vertex 6.65 21.675 16.9885
    endloop
  endfacet
  facet normal 0 1 -0
    outer loop
      vertex 20 18.325 16.1366
      vertex 15.7879 18.325 16.151
      vertex 20 18.325 16.151
    endloop
  endfacet
  facet normal 0 1 0
    outer loop
      vertex 20 18.325 16.1366
      vertex 15.7879 18.325 15.3135
      vertex 15.7879 18.325 16.151
    endloop
  endfacet
  facet normal 0 1 0
    outer loop
      vertex 15.7879 18.325 15.3135
      vertex 13.35 18.325 12.2972
      vertex 13.35 18.325 15.3135
    endloop
  endfacet
  facet normal 0 1 0
    outer loop
      vertex 13.35 18.325 12.2972
      vertex 15.7879 18.325 15.3135
      vertex 20 18.325 16.1366
    endloop
  endfacet
  facet normal 0 1 0
    outer loop
      vertex 4.21206 18.325 16.151
      vertex 0 18.325 16.1366
      vertex 0 18.325 16.151
    endloop
  endfacet
  facet normal 0 1 -0
    outer loop
      vertex 4.21206 18.325 15.3135
      vertex 0 18.325 16.1366
      vertex 4.21206 18.325 16.151
    endloop
  endfacet
  facet normal 0 1 0
    outer loop
      vertex 6.65 18.325 15.3135
      vertex 6.65 18.325 12.2972
      vertex 4.21206 18.325 15.3135
    endloop
  endfacet
  facet normal 0 1 0
    outer loop
      vertex 4.21206 18.325 15.3135
      vertex 6.65 18.325 12.2972
      vertex 0 18.325 16.1366
    endloop
  endfacet
  facet normal 0 -1 0
    outer loop
      vertex 15.7879 21.675 16.151
      vertex 20 21.675 16.1366
      vertex 20 21.675 16.151
    endloop
  endfacet
  facet normal 0 -1 0
    outer loop
      vertex 15.7879 21.675 15.3135
      vertex 20 21.675 16.1366
      vertex 15.7879 21.675 16.151
    endloop
  endfacet
  facet normal 0 -1 0
    outer loop
      vertex 13.35 21.675 15.3135
      vertex 13.35 21.675 12.2972
      vertex 15.7879 21.675 15.3135
    endloop
  endfacet
  facet normal 0 -1 -0
    outer loop
      vertex 15.7879 21.675 15.3135
      vertex 13.35 21.675 12.2972
      vertex 20 21.675 16.1366
    endloop
  endfacet
  facet normal 0 -1 0
    outer loop
      vertex 0 21.675 16.1366
      vertex 4.21206 21.675 16.151
      vertex 0 21.675 16.151
    endloop
  endfacet
  facet normal 0 -1 0
    outer loop
      vertex 0 21.675 16.1366
      vertex 4.21206 21.675 15.3135
      vertex 4.21206 21.675 16.151
    endloop
  endfacet
  facet normal 0 -1 0
    outer loop
      vertex 4.21206 21.675 15.3135
      vertex 6.65 21.675 12.2972
      vertex 6.65 21.675 15.3135
    endloop
  endfacet
  facet normal 0 -1 0
    outer loop
      vertex 6.65 21.675 12.2972
      vertex 4.21206 21.675 15.3135
      vertex 0 21.675 16.1366
    endloop
  endfacet
  facet normal 0.500002 0 0.866024
    outer loop
      vertex 0 21.675 16.1366
      vertex 6.65 18.325 12.2972
      vertex 6.65 21.675 12.2972
    endloop
  endfacet
  facet normal 0.500002 0 0.866024
    outer loop
      vertex 6.65 18.325 12.2972
      vertex 0 21.675 16.1366
      vertex 0 18.325 16.1366
    endloop
  endfacet
  facet normal -0.500002 0 0.866024
    outer loop
      vertex 13.35 21.675 12.2972
      vertex 20 18.325 16.1366
      vertex 20 21.675 16.1366
    endloop
  endfacet
  facet normal -0.500002 0 0.866024
    outer loop
      vertex 20 18.325 16.1366
      vertex 13.35 21.675 12.2972
      vertex 13.35 18.325 12.2972
    endloop
  endfacet
  facet normal -0 0 1
    outer loop
      vertex 10 20.4188 12.2972
      vertex 13.35 18.325 12.2972
      vertex 13.35 21.675 12.2972
    endloop
  endfacet
  facet normal 0 0 1
    outer loop
      vertex 10 20.4188 12.2972
      vertex 10 19.5812 12.2972
      vertex 13.35 18.325 12.2972
    endloop
  endfacet
  facet normal 0 0 1
    outer loop
      vertex 6.65 21.675 12.2972
      vertex 10 19.5812 12.2972
      vertex 10 20.4188 12.2972
    endloop
  endfacet
  facet normal 0 0 1
    outer loop
      vertex 6.65 21.675 12.2972
      vertex 6.65 18.325 12.2972
      vertex 10 19.5812 12.2972
    endloop
  endfacet
  facet normal 0 0 1
    outer loop
      vertex 10 19.5812 12.2972
      vertex 10 17.0688 12.2972
      vertex 13.35 18.325 12.2972
    endloop
  endfacet
  facet normal -0 0 1
    outer loop
      vertex 6.65 18.325 12.2972
      vertex 10 17.0688 12.2972
      vertex 10 19.5812 12.2972
    endloop
  endfacet
  facet normal 0 0 1
    outer loop
      vertex 10 22.9312 12.2972
      vertex 10 20.4188 12.2972
      vertex 13.35 21.675 12.2972
    endloop
  endfacet
  facet normal 0 0 1
    outer loop
      vertex 10 22.9312 12.2972
      vertex 6.65 21.675 12.2972
      vertex 10 20.4188 12.2972
    endloop
  endfacet
  facet normal 0.351124 0.936329 -1.59365e-05
    outer loop
      vertex 6.65 18.325 16.9885
      vertex 6.66667 18.3188 20
      vertex 10 17.0688 20
    endloop
  endfacet
  facet normal 0.348596 0.937273 0
    outer loop
      vertex 6.66667 18.3188 20
      vertex 6.65 18.325 16.9885
      vertex 6.65 18.325 19.9904
    endloop
  endfacet
  facet normal 0.351137 0.936324 -3.32646e-05
    outer loop
      vertex 10 17.0688 20
      vertex 7.76667 17.9062 16.151
      vertex 6.65 18.325 16.9885
    endloop
  endfacet
  facet normal 0.351087 0.936343 -0
    outer loop
      vertex 10 17.0688 12.2972
      vertex 7.76667 17.9062 16.151
      vertex 10 17.0688 20
    endloop
  endfacet
  facet normal 0.351137 0.936324 3.32357e-05
    outer loop
      vertex 10 17.0688 12.2972
      vertex 6.65 18.325 15.3135
      vertex 7.76667 17.9062 16.151
    endloop
  endfacet
  facet normal 0.351111 0.936334 0
    outer loop
      vertex 6.65 18.325 15.3135
      vertex 10 17.0688 12.2972
      vertex 6.65 18.325 12.2972
    endloop
  endfacet
  facet normal -0.348046 0.937478 0
    outer loop
      vertex 13.35 18.325 16.9885
      vertex 13.3333 18.3188 20
      vertex 13.35 18.325 19.9904
    endloop
  endfacet
  facet normal -0.351127 0.936328 -1.94518e-05
    outer loop
      vertex 13.3333 18.3188 20
      vertex 13.35 18.325 16.9885
      vertex 10 17.0688 20
    endloop
  endfacet
  facet normal -0.351133 0.936326 -2.75438e-05
    outer loop
      vertex 12.2333 17.9062 16.151
      vertex 10 17.0688 20
      vertex 13.35 18.325 16.9885
    endloop
  endfacet
  facet normal -0.351111 0.936334 0
    outer loop
      vertex 10 17.0688 12.2972
      vertex 13.35 18.325 15.3135
      vertex 13.35 18.325 12.2972
    endloop
  endfacet
  facet normal -0.351133 0.936326 2.75199e-05
    outer loop
      vertex 13.35 18.325 15.3135
      vertex 10 17.0688 12.2972
      vertex 12.2333 17.9062 16.151
    endloop
  endfacet
  facet normal -0.351091 0.936341 0
    outer loop
      vertex 12.2333 17.9062 16.151
      vertex 10 17.0688 12.2972
      vertex 10 17.0688 20
    endloop
  endfacet
  facet normal -1 0 0
    outer loop
      vertex 15.7879 18.325 16.151
      vertex 15.7879 17.9062 16.151
      vertex 15.7879 18.325 16.9885
    endloop
  endfacet
  facet normal -1 0 0
    outer loop
      vertex 15.7879 18.325 15.3135
      vertex 15.7879 17.9062 16.151
      vertex 15.7879 18.325 16.151
    endloop
  endfacet
  facet normal 0 0.894406 -0.447256
    outer loop
      vertex 15.7879 17.9062 16.151
      vertex 13.35 18.325 16.9885
      vertex 15.7879 18.325 16.9885
    endloop
  endfacet
  facet normal 0 0.894406 -0.447256
    outer loop
      vertex 13.35 18.325 16.9885
      vertex 15.7879 17.9062 16.151
      vertex 12.2333 17.9062 16.151
    endloop
  endfacet
  facet normal 0 0.894406 -0.447256
    outer loop
      vertex 4.21206 17.9062 16.151
      vertex 6.65 18.325 16.9885
      vertex 7.76667 17.9062 16.151
    endloop
  endfacet
  facet normal 0 0.894406 -0.447256
    outer loop
      vertex 6.65 18.325 16.9885
      vertex 4.21206 17.9062 16.151
      vertex 4.21206 18.325 16.9885
    endloop
  endfacet
  facet normal -0 0.894406 0.447256
    outer loop
      vertex 13.35 18.325 15.3135
      vertex 15.7879 17.9062 16.151
      vertex 15.7879 18.325 15.3135
    endloop
  endfacet
  facet normal 0 0.894406 0.447256
    outer loop
      vertex 15.7879 17.9062 16.151
      vertex 13.35 18.325 15.3135
      vertex 12.2333 17.9062 16.151
    endloop
  endfacet
  facet normal 0 0.894406 0.447256
    outer loop
      vertex 6.65 18.325 15.3135
      vertex 4.21206 17.9062 16.151
      vertex 7.76667 17.9062 16.151
    endloop
  endfacet
  facet normal 0 0.894406 0.447256
    outer loop
      vertex 4.21206 17.9062 16.151
      vertex 6.65 18.325 15.3135
      vertex 4.21206 18.325 15.3135
    endloop
  endfacet
  facet normal 1 0 0
    outer loop
      vertex 4.21206 18.325 16.9885
      vertex 4.21206 17.9062 16.151
      vertex 4.21206 18.325 16.151
    endloop
  endfacet
  facet normal 1 -0 0
    outer loop
      vertex 4.21206 17.9062 16.151
      vertex 4.21206 18.325 15.3135
      vertex 4.21206 18.325 16.151
    endloop
  endfacet
  facet normal 0.348596 -0.937273 0
    outer loop
      vertex 6.65 21.675 16.9885
      vertex 6.66667 21.6812 20
      vertex 6.65 21.675 19.9904
    endloop
  endfacet
  facet normal 0.351124 -0.936329 -1.59365e-05
    outer loop
      vertex 6.66667 21.6812 20
      vertex 6.65 21.675 16.9885
      vertex 10 22.9312 20
    endloop
  endfacet
  facet normal 0.351137 -0.936324 -3.32646e-05
    outer loop
      vertex 7.76667 22.0938 16.151
      vertex 10 22.9312 20
      vertex 6.65 21.675 16.9885
    endloop
  endfacet
  facet normal 0.351111 -0.936334 0
    outer loop
      vertex 10 22.9312 12.2972
      vertex 6.65 21.675 15.3135
      vertex 6.65 21.675 12.2972
    endloop
  endfacet
  facet normal 0.351137 -0.936324 3.32357e-05
    outer loop
      vertex 6.65 21.675 15.3135
      vertex 10 22.9312 12.2972
      vertex 7.76667 22.0938 16.151
    endloop
  endfacet
  facet normal 0.351087 -0.936343 0
    outer loop
      vertex 7.76667 22.0938 16.151
      vertex 10 22.9312 12.2972
      vertex 10 22.9312 20
    endloop
  endfacet
  facet normal -0.351127 -0.936328 -1.94518e-05
    outer loop
      vertex 13.35 21.675 16.9885
      vertex 13.3333 21.6812 20
      vertex 10 22.9312 20
    endloop
  endfacet
  facet normal -0.348046 -0.937478 0
    outer loop
      vertex 13.3333 21.6812 20
      vertex 13.35 21.675 16.9885
      vertex 13.35 21.675 19.9904
    endloop
  endfacet
  facet normal -0.351133 -0.936326 -2.75438e-05
    outer loop
      vertex 10 22.9312 20
      vertex 12.2333 22.0938 16.151
      vertex 13.35 21.675 16.9885
    endloop
  endfacet
  facet normal -0.351091 -0.936341 0
    outer loop
      vertex 10 22.9312 12.2972
      vertex 12.2333 22.0938 16.151
      vertex 10 22.9312 20
    endloop
  endfacet
  facet normal -0.351133 -0.936326 2.75199e-05
    outer loop
      vertex 10 22.9312 12.2972
      vertex 13.35 21.675 15.3135
      vertex 12.2333 22.0938 16.151
    endloop
  endfacet
  facet normal -0.351111 -0.936334 -0
    outer loop
      vertex 13.35 21.675 15.3135
      vertex 10 22.9312 12.2972
      vertex 13.35 21.675 12.2972
    endloop
  endfacet
  facet normal -1 -0 0
    outer loop
      vertex 15.7879 22.0938 16.151
      vertex 15.7879 21.675 15.3135
      vertex 15.7879 21.675 16.151
    endloop
  endfacet
  facet normal -1 0 0
    outer loop
      vertex 15.7879 22.0938 16.151
      vertex 15.7879 21.675 16.151
      vertex 15.7879 21.675 16.9885
    endloop
  endfacet
  facet normal 0 -0.894406 0.447256
    outer loop
      vertex 13.35 21.675 15.3135
      vertex 15.7879 22.0938 16.151
      vertex 12.2333 22.0938 16.151
    endloop
  endfacet
  facet normal 0 -0.894406 0.447256
    outer loop
      vertex 15.7879 22.0938 16.151
      vertex 13.35 21.675 15.3135
      vertex 15.7879 21.675 15.3135
    endloop
  endfacet
  facet normal 0 -0.894406 0.447256
    outer loop
      vertex 6.65 21.675 15.3135
      vertex 4.21206 22.0938 16.151
      vertex 4.21206 21.675 15.3135
    endloop
  endfacet
  facet normal 0 -0.894406 0.447256
    outer loop
      vertex 4.21206 22.0938 16.151
      vertex 6.65 21.675 15.3135
      vertex 7.76667 22.0938 16.151
    endloop
  endfacet
  facet normal 1 0 0
    outer loop
      vertex 4.21206 21.675 16.151
      vertex 4.21206 22.0938 16.151
      vertex 4.21206 21.675 16.9885
    endloop
  endfacet
  facet normal 1 -0 0
    outer loop
      vertex 4.21206 21.675 16.151
      vertex 4.21206 21.675 15.3135
      vertex 4.21206 22.0938 16.151
    endloop
  endfacet
  facet normal -0 -0.894406 -0.447256
    outer loop
      vertex 15.7879 22.0938 16.151
      vertex 13.35 21.675 16.9885
      vertex 12.2333 22.0938 16.151
    endloop
  endfacet
  facet normal 0 -0.894406 -0.447256
    outer loop
      vertex 13.35 21.675 16.9885
      vertex 15.7879 22.0938 16.151
      vertex 15.7879 21.675 16.9885
    endloop
  endfacet
  facet normal 0 -0.894406 -0.447256
    outer loop
      vertex 4.21206 22.0938 16.151
      vertex 6.65 21.675 16.9885
      vertex 4.21206 21.675 16.9885
    endloop
  endfacet
  facet normal 0 -0.894406 -0.447256
    outer loop
      vertex 6.65 21.675 16.9885
      vertex 4.21206 22.0938 16.151
      vertex 7.76667 22.0938 16.151
    endloop
  endfacet
  facet normal 0 0 1
    outer loop
      vertex 43.3333 10 20
      vertex 40 7.93125 20
      vertex 43.3333 6.68125 20
    endloop
  endfacet
  facet normal -0 0 1
    outer loop
      vertex 36.6667 10 20
      vertex 40 7.93125 20
      vertex 43.3333 10 20
    endloop
  endfacet
  facet normal 0 0 1
    outer loop
      vertex 40 7.93125 20
      vertex 36.6667 10 20
      vertex 36.6667 6.68125 20
    endloop
  endfacet
  facet normal -0 0 1
    outer loop
      vertex 40 2.06875 20
      vertex 43.3333 0 20
      vertex 43.3333 3.31875 20
    endloop
  endfacet
  facet normal 0 0 1
    outer loop
      vertex 36.6667 0 20
      vertex 40 2.06875 20
      vertex 36.6667 3.31875 20
    endloop
  endfacet
  facet normal 0 0 1
    outer loop
      vertex 40 2.06875 20
      vertex 36.6667 0 20
      vertex 43.3333 0 20
    endloop
  endfacet
  facet normal -0.498374 0 0.866962
    outer loop
      vertex 36.65 3.325 19.9904
      vertex 36.6667 0 20
      vertex 36.6667 3.31875 20
    endloop
  endfacet
  facet normal -0.500002 -1.08876e-05 0.866024
    outer loop
      vertex 30 3.325 16.151
      vertex 36.6667 0 20
      vertex 36.65 3.325 19.9904
    endloop
  endfacet
  facet normal -0.499998 0 0.866027
    outer loop
      vertex 36.6667 0 20
      vertex 30 3.325 16.151
      vertex 30 0 16.151
    endloop
  endfacet
  facet normal -0.498374 0 0.866962
    outer loop
      vertex 36.6667 10 20
      vertex 36.65 6.675 19.9904
      vertex 36.6667 6.68125 20
    endloop
  endfacet
  facet normal -0.499998 1.08603e-05 0.866027
    outer loop
      vertex 30 10 16.151
      vertex 36.65 6.675 19.9904
      vertex 36.6667 10 20
    endloop
  endfacet
  facet normal -0.500002 0 0.866024
    outer loop
      vertex 36.65 6.675 19.9904
      vertex 30 10 16.151
      vertex 30 6.675 16.151
    endloop
  endfacet
  facet normal 0.500002 0 0.866024
    outer loop
      vertex 50 10 16.151
      vertex 43.35 6.675 19.9904
      vertex 50 6.675 16.151
    endloop
  endfacet
  facet normal 0.499998 1.08603e-05 0.866027
    outer loop
      vertex 43.3333 10 20
      vertex 43.35 6.675 19.9904
      vertex 50 10 16.151
    endloop
  endfacet
  facet normal 0.498374 0 0.866962
    outer loop
      vertex 43.35 6.675 19.9904
      vertex 43.3333 10 20
      vertex 43.3333 6.68125 20
    endloop
  endfacet
  facet normal 0.500002 0 0.866024
    outer loop
      vertex 43.35 3.325 19.9904
      vertex 50 0 16.151
      vertex 50 3.325 16.151
    endloop
  endfacet
  facet normal 0.498374 -0 0.866962
    outer loop
      vertex 43.3333 0 20
      vertex 43.35 3.325 19.9904
      vertex 43.3333 3.31875 20
    endloop
  endfacet
  facet normal 0.499998 -1.08603e-05 0.866027
    outer loop
      vertex 43.35 3.325 19.9904
      vertex 43.3333 0 20
      vertex 50 0 16.151
    endloop
  endfacet
  facet normal 0 1 0
    outer loop
      vertex 50 3.325 16.151
      vertex 45.7879 3.325 16.9885
      vertex 43.35 3.325 19.9904
    endloop
  endfacet
  facet normal 0 1 0
    outer loop
      vertex 45.7879 3.325 16.9885
      vertex 50 3.325 16.151
      vertex 45.7879 3.325 16.151
    endloop
  endfacet
  facet normal 0 1 0
    outer loop
      vertex 43.35 3.325 19.9904
      vertex 45.7879 3.325 16.9885
      vertex 43.35 3.325 16.9885
    endloop
  endfacet
  facet normal 0 1 0
    outer loop
      vertex 34.2121 3.325 16.9885
      vertex 36.65 3.325 19.9904
      vertex 36.65 3.325 16.9885
    endloop
  endfacet
  facet normal 0 1 -0
    outer loop
      vertex 34.2121 3.325 16.9885
      vertex 30 3.325 16.151
      vertex 36.65 3.325 19.9904
    endloop
  endfacet
  facet normal 0 1 0
    outer loop
      vertex 30 3.325 16.151
      vertex 34.2121 3.325 16.9885
      vertex 34.2121 3.325 16.151
    endloop
  endfacet
  facet normal 0 -1 0
    outer loop
      vertex 45.7879 6.675 16.9885
      vertex 43.35 6.675 19.9904
      vertex 43.35 6.675 16.9885
    endloop
  endfacet
  facet normal 0 -1 0
    outer loop
      vertex 45.7879 6.675 16.9885
      vertex 50 6.675 16.151
      vertex 43.35 6.675 19.9904
    endloop
  endfacet
  facet normal 0 -1 0
    outer loop
      vertex 50 6.675 16.151
      vertex 45.7879 6.675 16.9885
      vertex 45.7879 6.675 16.151
    endloop
  endfacet
  facet normal 0 -1 0
    outer loop
      vertex 30 6.675 16.151
      vertex 34.2121 6.675 16.9885
      vertex 36.65 6.675 19.9904
    endloop
  endfacet
  facet normal 0 -1 -0
    outer loop
      vertex 34.2121 6.675 16.9885
      vertex 30 6.675 16.151
      vertex 34.2121 6.675 16.151
    endloop
  endfacet
  facet normal 0 -1 -0
    outer loop
      vertex 36.65 6.675 19.9904
      vertex 34.2121 6.675 16.9885
      vertex 36.65 6.675 16.9885
    endloop
  endfacet
  facet normal 0 1 -0
    outer loop
      vertex 50 3.325 16.1366
      vertex 45.7879 3.325 16.151
      vertex 50 3.325 16.151
    endloop
  endfacet
  facet normal 0 1 0
    outer loop
      vertex 50 3.325 16.1366
      vertex 45.7879 3.325 15.3135
      vertex 45.7879 3.325 16.151
    endloop
  endfacet
  facet normal 0 1 0
    outer loop
      vertex 45.7879 3.325 15.3135
      vertex 43.35 3.325 12.2972
      vertex 43.35 3.325 15.3135
    endloop
  endfacet
  facet normal 0 1 0
    outer loop
      vertex 43.35 3.325 12.2972
      vertex 45.7879 3.325 15.3135
      vertex 50 3.325 16.1366
    endloop
  endfacet
  facet normal 0 1 0
    outer loop
      vertex 36.65 3.325 15.3135
      vertex 36.65 3.325 12.2972
      vertex 34.2121 3.325 15.3135
    endloop
  endfacet
  facet normal 0 1 0
    outer loop
      vertex 34.2121 3.325 16.151
      vertex 30 3.325 16.1366
      vertex 30 3.325 16.151
    endloop
  endfacet
  facet normal 0 1 -0
    outer loop
      vertex 34.2121 3.325 15.3135
      vertex 30 3.325 16.1366
      vertex 34.2121 3.325 16.151
    endloop
  endfacet
  facet normal 0 1 0
    outer loop
      vertex 34.2121 3.325 15.3135
      vertex 36.65 3.325 12.2972
      vertex 30 3.325 16.1366
    endloop
  endfacet
  facet normal 0 -1 0
    outer loop
      vertex 43.35 6.675 15.3135
      vertex 43.35 6.675 12.2972
      vertex 45.7879 6.675 15.3135
    endloop
  endfacet
  facet normal 0 -1 0
    outer loop
      vertex 45.7879 6.675 16.151
      vertex 50 6.675 16.1366
      vertex 50 6.675 16.151
    endloop
  endfacet
  facet normal 0 -1 0
    outer loop
      vertex 45.7879 6.675 15.3135
      vertex 50 6.675 16.1366
      vertex 45.7879 6.675 16.151
    endloop
  endfacet
  facet normal 0 -1 -0
    outer loop
      vertex 45.7879 6.675 15.3135
      vertex 43.35 6.675 12.2972
      vertex 50 6.675 16.1366
    endloop
  endfacet
  facet normal 0 -1 0
    outer loop
      vertex 30 6.675 16.1366
      vertex 34.2121 6.675 16.151
      vertex 30 6.675 16.151
    endloop
  endfacet
  facet normal 0 -1 0
    outer loop
      vertex 30 6.675 16.1366
      vertex 34.2121 6.675 15.3135
      vertex 34.2121 6.675 16.151
    endloop
  endfacet
  facet normal 0 -1 0
    outer loop
      vertex 34.2121 6.675 15.3135
      vertex 36.65 6.675 12.2972
      vertex 36.65 6.675 15.3135
    endloop
  endfacet
  facet normal 0 -1 0
    outer loop
      vertex 36.65 6.675 12.2972
      vertex 34.2121 6.675 15.3135
      vertex 30 6.675 16.1366
    endloop
  endfacet
  facet normal 0.500002 0 0.866024
    outer loop
      vertex 30 6.675 16.1366
      vertex 36.65 3.325 12.2972
      vertex 36.65 6.675 12.2972
    endloop
  endfacet
  facet normal 0.500002 0 0.866024
    outer loop
      vertex 36.65 3.325 12.2972
      vertex 30 6.675 16.1366
      vertex 30 3.325 16.1366
    endloop
  endfacet
  facet normal -0.500002 0 0.866024
    outer loop
      vertex 43.35 6.675 12.2972
      vertex 50 3.325 16.1366
      vertex 50 6.675 16.1366
    endloop
  endfacet
  facet normal -0.500002 0 0.866024
    outer loop
      vertex 50 3.325 16.1366
      vertex 43.35 6.675 12.2972
      vertex 43.35 3.325 12.2972
    endloop
  endfacet
  facet normal -0 0 1
    outer loop
      vertex 40 5.41875 12.2972
      vertex 43.35 3.325 12.2972
      vertex 43.35 6.675 12.2972
    endloop
  endfacet
  facet normal 0 0 1
    outer loop
      vertex 40 5.41875 12.2972
      vertex 40 4.58125 12.2972
      vertex 43.35 3.325 12.2972
    endloop
  endfacet
  facet normal 0 0 1
    outer loop
      vertex 36.65 6.675 12.2972
      vertex 40 4.58125 12.2972
      vertex 40 5.41875 12.2972
    endloop
  endfacet
  facet normal 0 0 1
    outer loop
      vertex 40 4.58125 12.2972
      vertex 36.65 6.675 12.2972
      vertex 36.65 3.325 12.2972
    endloop
  endfacet
  facet normal 0 0 1
    outer loop
      vertex 40 4.58125 12.2972
      vertex 40 2.06875 12.2972
      vertex 43.35 3.325 12.2972
    endloop
  endfacet
  facet normal -0 0 1
    outer loop
      vertex 36.65 3.325 12.2972
      vertex 40 2.06875 12.2972
      vertex 40 4.58125 12.2972
    endloop
  endfacet
  facet normal 0 0 1
    outer loop
      vertex 40 7.93125 12.2972
      vertex 40 5.41875 12.2972
      vertex 43.35 6.675 12.2972
    endloop
  endfacet
  facet normal -0 0 1
    outer loop
      vertex 36.65 6.675 12.2972
      vertex 40 5.41875 12.2972
      vertex 40 7.93125 12.2972
    endloop
  endfacet
  facet normal 0.351127 0.936328 -3.90594e-06
    outer loop
      vertex 36.65 3.325 16.9885
      vertex 36.6667 3.31875 20
      vertex 40 2.06875 20
    endloop
  endfacet
  facet normal 0.350509 0.936559 0
    outer loop
      vertex 36.6667 3.31875 20
      vertex 36.65 3.325 16.9885
      vertex 36.65 3.325 19.9904
    endloop
  endfacet
  facet normal 0.351118 0.936331 6.35624e-06
    outer loop
      vertex 40 2.06875 20
      vertex 37.7667 2.90625 16.151
      vertex 36.65 3.325 16.9885
    endloop
  endfacet
  facet normal 0.351128 0.936327 -0
    outer loop
      vertex 40 2.06875 12.2972
      vertex 37.7667 2.90625 16.151
      vertex 40 2.06875 20
    endloop
  endfacet
  facet normal 0.351118 0.936331 -6.35072e-06
    outer loop
      vertex 40 2.06875 12.2972
      vertex 36.65 3.325 15.3135
      vertex 37.7667 2.90625 16.151
    endloop
  endfacet
  facet normal 0.351123 0.936329 0
    outer loop
      vertex 36.65 3.325 15.3135
      vertex 40 2.06875 12.2972
      vertex 36.65 3.325 12.2972
    endloop
  endfacet
  facet normal -0.350509 0.936559 0
    outer loop
      vertex 43.35 3.325 16.9885
      vertex 43.3333 3.31875 20
      vertex 43.35 3.325 19.9904
    endloop
  endfacet
  facet normal -0.351127 0.936328 -3.90594e-06
    outer loop
      vertex 43.3333 3.31875 20
      vertex 43.35 3.325 16.9885
      vertex 40 2.06875 20
    endloop
  endfacet
  facet normal -0.351118 0.936331 6.35624e-06
    outer loop
      vertex 42.2333 2.90625 16.151
      vertex 40 2.06875 20
      vertex 43.35 3.325 16.9885
    endloop
  endfacet
  facet normal -0.351123 0.936329 0
    outer loop
      vertex 40 2.06875 12.2972
      vertex 43.35 3.325 15.3135
      vertex 43.35 3.325 12.2972
    endloop
  endfacet
  facet normal -0.351118 0.936331 -6.35072e-06
    outer loop
      vertex 43.35 3.325 15.3135
      vertex 40 2.06875 12.2972
      vertex 42.2333 2.90625 16.151
    endloop
  endfacet
  facet normal -0.351128 0.936327 0
    outer loop
      vertex 42.2333 2.90625 16.151
      vertex 40 2.06875 12.2972
      vertex 40 2.06875 20
    endloop
  endfacet
  facet normal -1 0 0
    outer loop
      vertex 45.7879 3.325 16.151
      vertex 45.7879 2.90625 16.151
      vertex 45.7879 3.325 16.9885
    endloop
  endfacet
  facet normal -1 0 0
    outer loop
      vertex 45.7879 3.325 15.3135
      vertex 45.7879 2.90625 16.151
      vertex 45.7879 3.325 16.151
    endloop
  endfacet
  facet normal 0 0.894427 -0.447214
    outer loop
      vertex 45.7879 2.90625 16.151
      vertex 43.35 3.325 16.9885
      vertex 45.7879 3.325 16.9885
    endloop
  endfacet
  facet normal 0 0.894427 -0.447214
    outer loop
      vertex 43.35 3.325 16.9885
      vertex 45.7879 2.90625 16.151
      vertex 42.2333 2.90625 16.151
    endloop
  endfacet
  facet normal 0 0.894427 -0.447214
    outer loop
      vertex 34.2121 2.90625 16.151
      vertex 36.65 3.325 16.9885
      vertex 37.7667 2.90625 16.151
    endloop
  endfacet
  facet normal 0 0.894427 -0.447214
    outer loop
      vertex 36.65 3.325 16.9885
      vertex 34.2121 2.90625 16.151
      vertex 34.2121 3.325 16.9885
    endloop
  endfacet
  facet normal -0 0.894427 0.447214
    outer loop
      vertex 43.35 3.325 15.3135
      vertex 45.7879 2.90625 16.151
      vertex 45.7879 3.325 15.3135
    endloop
  endfacet
  facet normal 0 0.894427 0.447214
    outer loop
      vertex 45.7879 2.90625 16.151
      vertex 43.35 3.325 15.3135
      vertex 42.2333 2.90625 16.151
    endloop
  endfacet
  facet normal 0 0.894427 0.447214
    outer loop
      vertex 36.65 3.325 15.3135
      vertex 34.2121 2.90625 16.151
      vertex 37.7667 2.90625 16.151
    endloop
  endfacet
  facet normal 0 0.894427 0.447214
    outer loop
      vertex 34.2121 2.90625 16.151
      vertex 36.65 3.325 15.3135
      vertex 34.2121 3.325 15.3135
    endloop
  endfacet
  facet normal 1 0 0
    outer loop
      vertex 34.2121 3.325 16.9885
      vertex 34.2121 2.90625 16.151
      vertex 34.2121 3.325 16.151
    endloop
  endfacet
  facet normal 1 -0 0
    outer loop
      vertex 34.2121 2.90625 16.151
      vertex 34.2121 3.325 15.3135
      vertex 34.2121 3.325 16.151
    endloop
  endfacet
  facet normal 0.350509 -0.936559 0
    outer loop
      vertex 36.65 6.675 16.9885
      vertex 36.6667 6.68125 20
      vertex 36.65 6.675 19.9904
    endloop
  endfacet
  facet normal 0.351127 -0.936328 -3.90594e-06
    outer loop
      vertex 36.6667 6.68125 20
      vertex 36.65 6.675 16.9885
      vertex 40 7.93125 20
    endloop
  endfacet
  facet normal 0.351118 -0.936331 6.35624e-06
    outer loop
      vertex 37.7667 7.09375 16.151
      vertex 40 7.93125 20
      vertex 36.65 6.675 16.9885
    endloop
  endfacet
  facet normal 0.351123 -0.936329 0
    outer loop
      vertex 40 7.93125 12.2972
      vertex 36.65 6.675 15.3135
      vertex 36.65 6.675 12.2972
    endloop
  endfacet
  facet normal 0.351118 -0.936331 -6.35072e-06
    outer loop
      vertex 36.65 6.675 15.3135
      vertex 40 7.93125 12.2972
      vertex 37.7667 7.09375 16.151
    endloop
  endfacet
  facet normal 0.351128 -0.936327 0
    outer loop
      vertex 37.7667 7.09375 16.151
      vertex 40 7.93125 12.2972
      vertex 40 7.93125 20
    endloop
  endfacet
  facet normal -0.351127 -0.936328 -3.90594e-06
    outer loop
      vertex 43.35 6.675 16.9885
      vertex 43.3333 6.68125 20
      vertex 40 7.93125 20
    endloop
  endfacet
  facet normal -0.350509 -0.936559 0
    outer loop
      vertex 43.3333 6.68125 20
      vertex 43.35 6.675 16.9885
      vertex 43.35 6.675 19.9904
    endloop
  endfacet
  facet normal -0.351118 -0.936331 6.35624e-06
    outer loop
      vertex 40 7.93125 20
      vertex 42.2333 7.09375 16.151
      vertex 43.35 6.675 16.9885
    endloop
  endfacet
  facet normal -0.351128 -0.936327 0
    outer loop
      vertex 40 7.93125 12.2972
      vertex 42.2333 7.09375 16.151
      vertex 40 7.93125 20
    endloop
  endfacet
  facet normal -0.351118 -0.936331 -6.35072e-06
    outer loop
      vertex 40 7.93125 12.2972
      vertex 43.35 6.675 15.3135
      vertex 42.2333 7.09375 16.151
    endloop
  endfacet
  facet normal -0.351123 -0.936329 -0
    outer loop
      vertex 43.35 6.675 15.3135
      vertex 40 7.93125 12.2972
      vertex 43.35 6.675 12.2972
    endloop
  endfacet
  facet normal -1 -0 0
    outer loop
      vertex 45.7879 7.09375 16.151
      vertex 45.7879 6.675 15.3135
      vertex 45.7879 6.675 16.151
    endloop
  endfacet
  facet normal -1 0 0
    outer loop
      vertex 45.7879 7.09375 16.151
      vertex 45.7879 6.675 16.151
      vertex 45.7879 6.675 16.9885
    endloop
  endfacet
  facet normal 0 -0.894427 0.447214
    outer loop
      vertex 43.35 6.675 15.3135
      vertex 45.7879 7.09375 16.151
      vertex 42.2333 7.09375 16.151
    endloop
  endfacet
  facet normal 0 -0.894427 0.447214
    outer loop
      vertex 45.7879 7.09375 16.151
      vertex 43.35 6.675 15.3135
      vertex 45.7879 6.675 15.3135
    endloop
  endfacet
  facet normal 0 -0.894427 0.447214
    outer loop
      vertex 36.65 6.675 15.3135
      vertex 34.2121 7.09375 16.151
      vertex 34.2121 6.675 15.3135
    endloop
  endfacet
  facet normal 0 -0.894427 0.447214
    outer loop
      vertex 34.2121 7.09375 16.151
      vertex 36.65 6.675 15.3135
      vertex 37.7667 7.09375 16.151
    endloop
  endfacet
  facet normal 1 0 0
    outer loop
      vertex 34.2121 6.675 16.151
      vertex 34.2121 7.09375 16.151
      vertex 34.2121 6.675 16.9885
    endloop
  endfacet
  facet normal 1 0 0
    outer loop
      vertex 34.2121 6.675 15.3135
      vertex 34.2121 7.09375 16.151
      vertex 34.2121 6.675 16.151
    endloop
  endfacet
  facet normal -0 -0.894427 -0.447214
    outer loop
      vertex 45.7879 7.09375 16.151
      vertex 43.35 6.675 16.9885
      vertex 42.2333 7.09375 16.151
    endloop
  endfacet
  facet normal 0 -0.894427 -0.447214
    outer loop
      vertex 43.35 6.675 16.9885
      vertex 45.7879 7.09375 16.151
      vertex 45.7879 6.675 16.9885
    endloop
  endfacet
  facet normal 0 -0.894427 -0.447214
    outer loop
      vertex 34.2121 7.09375 16.151
      vertex 36.65 6.675 16.9885
      vertex 34.2121 6.675 16.9885
    endloop
  endfacet
  facet normal 0 -0.894427 -0.447214
    outer loop
      vertex 36.65 6.675 16.9885
      vertex 34.2121 7.09375 16.151
      vertex 37.7667 7.09375 16.151
    endloop
  endfacet
  facet normal 0 0 1
    outer loop
      vertex 43.3333 25 20
      vertex 40 22.9312 20
      vertex 43.3333 21.6812 20
    endloop
  endfacet
  facet normal -0 0 1
    outer loop
      vertex 36.6667 25 20
      vertex 40 22.9312 20
      vertex 43.3333 25 20
    endloop
  endfacet
  facet normal 0 0 1
    outer loop
      vertex 40 22.9312 20
      vertex 36.6667 25 20
      vertex 36.6667 21.6812 20
    endloop
  endfacet
  facet normal -0 0 1
    outer loop
      vertex 40 17.0688 20
      vertex 43.3333 15 20
      vertex 43.3333 18.3188 20
    endloop
  endfacet
  facet normal 0 0 1
    outer loop
      vertex 36.6667 15 20
      vertex 40 17.0688 20
      vertex 36.6667 18.3188 20
    endloop
  endfacet
  facet normal 0 0 1
    outer loop
      vertex 40 17.0688 20
      vertex 36.6667 15 20
      vertex 43.3333 15 20
    endloop
  endfacet
  facet normal -0.498374 0 0.866962
    outer loop
      vertex 36.65 18.325 19.9904
      vertex 36.6667 15 20
      vertex 36.6667 18.3188 20
    endloop
  endfacet
  facet normal -0.500002 -1.08876e-05 0.866024
    outer loop
      vertex 30 18.325 16.151
      vertex 36.6667 15 20
      vertex 36.65 18.325 19.9904
    endloop
  endfacet
  facet normal -0.499998 0 0.866027
    outer loop
      vertex 36.6667 15 20
      vertex 30 18.325 16.151
      vertex 30 15 16.151
    endloop
  endfacet
  facet normal -0.498374 0 0.866962
    outer loop
      vertex 36.6667 25 20
      vertex 36.65 21.675 19.9904
      vertex 36.6667 21.6812 20
    endloop
  endfacet
  facet normal -0.499998 1.08603e-05 0.866027
    outer loop
      vertex 30 25 16.151
      vertex 36.65 21.675 19.9904
      vertex 36.6667 25 20
    endloop
  endfacet
  facet normal -0.500002 0 0.866024
    outer loop
      vertex 36.65 21.675 19.9904
      vertex 30 25 16.151
      vertex 30 21.675 16.151
    endloop
  endfacet
  facet normal 0.500002 0 0.866024
    outer loop
      vertex 50 25 16.151
      vertex 43.35 21.675 19.9904
      vertex 50 21.675 16.151
    endloop
  endfacet
  facet normal 0.499998 1.08603e-05 0.866027
    outer loop
      vertex 43.3333 25 20
      vertex 43.35 21.675 19.9904
      vertex 50 25 16.151
    endloop
  endfacet
  facet normal 0.498374 0 0.866962
    outer loop
      vertex 43.35 21.675 19.9904
      vertex 43.3333 25 20
      vertex 43.3333 21.6812 20
    endloop
  endfacet
  facet normal 0.500002 0 0.866024
    outer loop
      vertex 43.35 18.325 19.9904
      vertex 50 15 16.151
      vertex 50 18.325 16.151
    endloop
  endfacet
  facet normal 0.498374 -0 0.866962
    outer loop
      vertex 43.3333 15 20
      vertex 43.35 18.325 19.9904
      vertex 43.3333 18.3188 20
    endloop
  endfacet
  facet normal 0.499998 -1.08603e-05 0.866027
    outer loop
      vertex 43.35 18.325 19.9904
      vertex 43.3333 15 20
      vertex 50 15 16.151
    endloop
  endfacet
  facet normal 0 1 0
    outer loop
      vertex 50 18.325 16.151
      vertex 45.7879 18.325 16.9885
      vertex 43.35 18.325 19.9904
    endloop
  endfacet
  facet normal 0 1 0
    outer loop
      vertex 45.7879 18.325 16.9885
      vertex 50 18.325 16.151
      vertex 45.7879 18.325 16.151
    endloop
  endfacet
  facet normal 0 1 0
    outer loop
      vertex 43.35 18.325 19.9904
      vertex 45.7879 18.325 16.9885
      vertex 43.35 18.325 16.9885
    endloop
  endfacet
  facet normal 0 1 0
    outer loop
      vertex 34.2121 18.325 16.9885
      vertex 36.65 18.325 19.9904
      vertex 36.65 18.325 16.9885
    endloop
  endfacet
  facet normal 0 1 -0
    outer loop
      vertex 34.2121 18.325 16.9885
      vertex 30 18.325 16.151
      vertex 36.65 18.325 19.9904
    endloop
  endfacet
  facet normal 0 1 0
    outer loop
      vertex 30 18.325 16.151
      vertex 34.2121 18.325 16.9885
      vertex 34.2121 18.325 16.151
    endloop
  endfacet
  facet normal 0 -1 0
    outer loop
      vertex 45.7879 21.675 16.9885
      vertex 43.35 21.675 19.9904
      vertex 43.35 21.675 16.9885
    endloop
  endfacet
  facet normal 0 -1 0
    outer loop
      vertex 45.7879 21.675 16.9885
      vertex 50 21.675 16.151
      vertex 43.35 21.675 19.9904
    endloop
  endfacet
  facet normal 0 -1 0
    outer loop
      vertex 50 21.675 16.151
      vertex 45.7879 21.675 16.9885
      vertex 45.7879 21.675 16.151
    endloop
  endfacet
  facet normal 0 -1 0
    outer loop
      vertex 30 21.675 16.151
      vertex 34.2121 21.675 16.9885
      vertex 36.65 21.675 19.9904
    endloop
  endfacet
  facet normal 0 -1 -0
    outer loop
      vertex 34.2121 21.675 16.9885
      vertex 30 21.675 16.151
      vertex 34.2121 21.675 16.151
    endloop
  endfacet
  facet normal 0 -1 -0
    outer loop
      vertex 36.65 21.675 19.9904
      vertex 34.2121 21.675 16.9885
      vertex 36.65 21.675 16.9885
    endloop
  endfacet
  facet normal 0 1 -0
    outer loop
      vertex 50 18.325 16.1366
      vertex 45.7879 18.325 16.151
      vertex 50 18.325 16.151
    endloop
  endfacet
  facet normal 0 1 0
    outer loop
      vertex 50 18.325 16.1366
      vertex 45.7879 18.325 15.3135
      vertex 45.7879 18.325 16.151
    endloop
  endfacet
  facet normal 0 1 0
    outer loop
      vertex 45.7879 18.325 15.3135
      vertex 43.35 18.325 12.2972
      vertex 43.35 18.325 15.3135
    endloop
  endfacet
  facet normal 0 1 0
    outer loop
      vertex 43.35 18.325 12.2972
      vertex 45.7879 18.325 15.3135
      vertex 50 18.325 16.1366
    endloop
  endfacet
  facet normal 0 1 0
    outer loop
      vertex 36.65 18.325 15.3135
      vertex 36.65 18.325 12.2972
      vertex 34.2121 18.325 15.3135
    endloop
  endfacet
  facet normal 0 1 0
    outer loop
      vertex 34.2121 18.325 16.151
      vertex 30 18.325 16.1366
      vertex 30 18.325 16.151
    endloop
  endfacet
  facet normal 0 1 -0
    outer loop
      vertex 34.2121 18.325 15.3135
      vertex 30 18.325 16.1366
      vertex 34.2121 18.325 16.151
    endloop
  endfacet
  facet normal 0 1 0
    outer loop
      vertex 34.2121 18.325 15.3135
      vertex 36.65 18.325 12.2972
      vertex 30 18.325 16.1366
    endloop
  endfacet
  facet normal 0 -1 0
    outer loop
      vertex 43.35 21.675 15.3135
      vertex 43.35 21.675 12.2972
      vertex 45.7879 21.675 15.3135
    endloop
  endfacet
  facet normal 0 -1 0
    outer loop
      vertex 45.7879 21.675 16.151
      vertex 50 21.675 16.1366
      vertex 50 21.675 16.151
    endloop
  endfacet
  facet normal 0 -1 0
    outer loop
      vertex 45.7879 21.675 15.3135
      vertex 50 21.675 16.1366
      vertex 45.7879 21.675 16.151
    endloop
  endfacet
  facet normal 0 -1 -0
    outer loop
      vertex 45.7879 21.675 15.3135
      vertex 43.35 21.675 12.2972
      vertex 50 21.675 16.1366
    endloop
  endfacet
  facet normal 0 -1 0
    outer loop
      vertex 30 21.675 16.1366
      vertex 34.2121 21.675 16.151
      vertex 30 21.675 16.151
    endloop
  endfacet
  facet normal 0 -1 0
    outer loop
      vertex 30 21.675 16.1366
      vertex 34.2121 21.675 15.3135
      vertex 34.2121 21.675 16.151
    endloop
  endfacet
  facet normal 0 -1 0
    outer loop
      vertex 34.2121 21.675 15.3135
      vertex 36.65 21.675 12.2972
      vertex 36.65 21.675 15.3135
    endloop
  endfacet
  facet normal 0 -1 0
    outer loop
      vertex 36.65 21.675 12.2972
      vertex 34.2121 21.675 15.3135
      vertex 30 21.675 16.1366
    endloop
  endfacet
  facet normal 0.500002 0 0.866024
    outer loop
      vertex 30 21.675 16.1366
      vertex 36.65 18.325 12.2972
      vertex 36.65 21.675 12.2972
    endloop
  endfacet
  facet normal 0.500002 0 0.866024
    outer loop
      vertex 36.65 18.325 12.2972
      vertex 30 21.675 16.1366
      vertex 30 18.325 16.1366
    endloop
  endfacet
  facet normal -0.500002 0 0.866024
    outer loop
      vertex 43.35 21.675 12.2972
      vertex 50 18.325 16.1366
      vertex 50 21.675 16.1366
    endloop
  endfacet
  facet normal -0.500002 0 0.866024
    outer loop
      vertex 50 18.325 16.1366
      vertex 43.35 21.675 12.2972
      vertex 43.35 18.325 12.2972
    endloop
  endfacet
  facet normal -0 0 1
    outer loop
      vertex 40 20.4188 12.2972
      vertex 43.35 18.325 12.2972
      vertex 43.35 21.675 12.2972
    endloop
  endfacet
  facet normal 0 0 1
    outer loop
      vertex 40 20.4188 12.2972
      vertex 40 19.5812 12.2972
      vertex 43.35 18.325 12.2972
    endloop
  endfacet
  facet normal 0 0 1
    outer loop
      vertex 36.65 21.675 12.2972
      vertex 40 19.5812 12.2972
      vertex 40 20.4188 12.2972
    endloop
  endfacet
  facet normal 0 0 1
    outer loop
      vertex 40 19.5812 12.2972
      vertex 36.65 21.675 12.2972
      vertex 36.65 18.325 12.2972
    endloop
  endfacet
  facet normal 0 0 1
    outer loop
      vertex 40 19.5812 12.2972
      vertex 40 17.0688 12.2972
      vertex 43.35 18.325 12.2972
    endloop
  endfacet
  facet normal 0 -0 1
    outer loop
      vertex 40 17.0688 12.2972
      vertex 40 19.5812 12.2972
      vertex 36.65 18.325 12.2972
    endloop
  endfacet
  facet normal 0 0 1
    outer loop
      vertex 40 22.9312 12.2972
      vertex 40 20.4188 12.2972
      vertex 43.35 21.675 12.2972
    endloop
  endfacet
  facet normal 0 -0 1
    outer loop
      vertex 40 20.4188 12.2972
      vertex 40 22.9312 12.2972
      vertex 36.65 21.675 12.2972
    endloop
  endfacet
  facet normal 0.351127 0.936328 -1.94518e-05
    outer loop
      vertex 36.65 18.325 16.9885
      vertex 36.6667 18.3188 20
      vertex 40 17.0688 20
    endloop
  endfacet
  facet normal 0.348046 0.937478 0
    outer loop
      vertex 36.6667 18.3188 20
      vertex 36.65 18.325 16.9885
      vertex 36.65 18.325 19.9904
    endloop
  endfacet
  facet normal 0.351133 0.936326 -2.75438e-05
    outer loop
      vertex 40 17.0688 20
      vertex 37.7667 17.9062 16.151
      vertex 36.65 18.325 16.9885
    endloop
  endfacet
  facet normal 0.351091 0.936341 -0
    outer loop
      vertex 40 17.0688 12.2972
      vertex 37.7667 17.9062 16.151
      vertex 40 17.0688 20
    endloop
  endfacet
  facet normal 0.351133 0.936326 2.75199e-05
    outer loop
      vertex 40 17.0688 12.2972
      vertex 36.65 18.325 15.3135
      vertex 37.7667 17.9062 16.151
    endloop
  endfacet
  facet normal 0.351111 0.936334 0
    outer loop
      vertex 36.65 18.325 15.3135
      vertex 40 17.0688 12.2972
      vertex 36.65 18.325 12.2972
    endloop
  endfacet
  facet normal -0.348046 0.937478 0
    outer loop
      vertex 43.35 18.325 16.9885
      vertex 43.3333 18.3188 20
      vertex 43.35 18.325 19.9904
    endloop
  endfacet
  facet normal -0.351127 0.936328 -1.94518e-05
    outer loop
      vertex 43.3333 18.3188 20
      vertex 43.35 18.325 16.9885
      vertex 40 17.0688 20
    endloop
  endfacet
  facet normal -0.351133 0.936326 -2.75438e-05
    outer loop
      vertex 42.2333 17.9062 16.151
      vertex 40 17.0688 20
      vertex 43.35 18.325 16.9885
    endloop
  endfacet
  facet normal -0.351111 0.936334 0
    outer loop
      vertex 40 17.0688 12.2972
      vertex 43.35 18.325 15.3135
      vertex 43.35 18.325 12.2972
    endloop
  endfacet
  facet normal -0.351133 0.936326 2.75199e-05
    outer loop
      vertex 43.35 18.325 15.3135
      vertex 40 17.0688 12.2972
      vertex 42.2333 17.9062 16.151
    endloop
  endfacet
  facet normal -0.351091 0.936341 0
    outer loop
      vertex 42.2333 17.9062 16.151
      vertex 40 17.0688 12.2972
      vertex 40 17.0688 20
    endloop
  endfacet
  facet normal -1 0 0
    outer loop
      vertex 45.7879 18.325 16.151
      vertex 45.7879 17.9062 16.151
      vertex 45.7879 18.325 16.9885
    endloop
  endfacet
  facet normal -1 0 0
    outer loop
      vertex 45.7879 18.325 15.3135
      vertex 45.7879 17.9062 16.151
      vertex 45.7879 18.325 16.151
    endloop
  endfacet
  facet normal 0 0.894406 -0.447256
    outer loop
      vertex 45.7879 17.9062 16.151
      vertex 43.35 18.325 16.9885
      vertex 45.7879 18.325 16.9885
    endloop
  endfacet
  facet normal 0 0.894406 -0.447256
    outer loop
      vertex 43.35 18.325 16.9885
      vertex 45.7879 17.9062 16.151
      vertex 42.2333 17.9062 16.151
    endloop
  endfacet
  facet normal 0 0.894406 -0.447256
    outer loop
      vertex 34.2121 17.9062 16.151
      vertex 36.65 18.325 16.9885
      vertex 37.7667 17.9062 16.151
    endloop
  endfacet
  facet normal 0 0.894406 -0.447256
    outer loop
      vertex 36.65 18.325 16.9885
      vertex 34.2121 17.9062 16.151
      vertex 34.2121 18.325 16.9885
    endloop
  endfacet
  facet normal -0 0.894406 0.447256
    outer loop
      vertex 43.35 18.325 15.3135
      vertex 45.7879 17.9062 16.151
      vertex 45.7879 18.325 15.3135
    endloop
  endfacet
  facet normal 0 0.894406 0.447256
    outer loop
      vertex 45.7879 17.9062 16.151
      vertex 43.35 18.325 15.3135
      vertex 42.2333 17.9062 16.151
    endloop
  endfacet
  facet normal 0 0.894406 0.447256
    outer loop
      vertex 36.65 18.325 15.3135
      vertex 34.2121 17.9062 16.151
      vertex 37.7667 17.9062 16.151
    endloop
  endfacet
  facet normal 0 0.894406 0.447256
    outer loop
      vertex 34.2121 17.9062 16.151
      vertex 36.65 18.325 15.3135
      vertex 34.2121 18.325 15.3135
    endloop
  endfacet
  facet normal 1 0 0
    outer loop
      vertex 34.2121 18.325 16.9885
      vertex 34.2121 17.9062 16.151
      vertex 34.2121 18.325 16.151
    endloop
  endfacet
  facet normal 1 -0 0
    outer loop
      vertex 34.2121 17.9062 16.151
      vertex 34.2121 18.325 15.3135
      vertex 34.2121 18.325 16.151
    endloop
  endfacet
  facet normal 0.348046 -0.937478 0
    outer loop
      vertex 36.65 21.675 16.9885
      vertex 36.6667 21.6812 20
      vertex 36.65 21.675 19.9904
    endloop
  endfacet
  facet normal 0.351127 -0.936328 -1.94518e-05
    outer loop
      vertex 36.6667 21.6812 20
      vertex 36.65 21.675 16.9885
      vertex 40 22.9312 20
    endloop
  endfacet
  facet normal 0.351133 -0.936326 -2.75438e-05
    outer loop
      vertex 37.7667 22.0938 16.151
      vertex 40 22.9312 20
      vertex 36.65 21.675 16.9885
    endloop
  endfacet
  facet normal 0.351111 -0.936334 0
    outer loop
      vertex 40 22.9312 12.2972
      vertex 36.65 21.675 15.3135
      vertex 36.65 21.675 12.2972
    endloop
  endfacet
  facet normal 0.351133 -0.936326 2.75199e-05
    outer loop
      vertex 36.65 21.675 15.3135
      vertex 40 22.9312 12.2972
      vertex 37.7667 22.0938 16.151
    endloop
  endfacet
  facet normal 0.351091 -0.936341 0
    outer loop
      vertex 37.7667 22.0938 16.151
      vertex 40 22.9312 12.2972
      vertex 40 22.9312 20
    endloop
  endfacet
  facet normal -0.351127 -0.936328 -1.94518e-05
    outer loop
      vertex 43.35 21.675 16.9885
      vertex 43.3333 21.6812 20
      vertex 40 22.9312 20
    endloop
  endfacet
  facet normal -0.348046 -0.937478 0
    outer loop
      vertex 43.3333 21.6812 20
      vertex 43.35 21.675 16.9885
      vertex 43.35 21.675 19.9904
    endloop
  endfacet
  facet normal -0.351133 -0.936326 -2.75438e-05
    outer loop
      vertex 40 22.9312 20
      vertex 42.2333 22.0938 16.151
      vertex 43.35 21.675 16.9885
    endloop
  endfacet
  facet normal -0.351091 -0.936341 0
    outer loop
      vertex 40 22.9312 12.2972
      vertex 42.2333 22.0938 16.151
      vertex 40 22.9312 20
    endloop
  endfacet
  facet normal -0.351133 -0.936326 2.75199e-05
    outer loop
      vertex 40 22.9312 12.2972
      vertex 43.35 21.675 15.3135
      vertex 42.2333 22.0938 16.151
    endloop
  endfacet
  facet normal -0.351111 -0.936334 -0
    outer loop
      vertex 43.35 21.675 15.3135
      vertex 40 22.9312 12.2972
      vertex 43.35 21.675 12.2972
    endloop
  endfacet
  facet normal -1 -0 0
    outer loop
      vertex 45.7879 22.0938 16.151
      vertex 45.7879 21.675 15.3135
      vertex 45.7879 21.675 16.151
    endloop
  endfacet
  facet normal -1 0 0
    outer loop
      vertex 45.7879 22.0938 16.151
      vertex 45.7879 21.675 16.151
      vertex 45.7879 21.675 16.9885
    endloop
  endfacet
  facet normal 0 -0.894406 0.447256
    outer loop
      vertex 43.35 21.675 15.3135
      vertex 45.7879 22.0938 16.151
      vertex 42.2333 22.0938 16.151
    endloop
  endfacet
  facet normal 0 -0.894406 0.447256
    outer loop
      vertex 45.7879 22.0938 16.151
      vertex 43.35 21.675 15.3135
      vertex 45.7879 21.675 15.3135
    endloop
  endfacet
  facet normal 0 -0.894406 0.447256
    outer loop
      vertex 36.65 21.675 15.3135
      vertex 34.2121 22.0938 16.151
      vertex 34.2121 21.675 15.3135
    endloop
  endfacet
  facet normal 0 -0.894406 0.447256
    outer loop
      vertex 34.2121 22.0938 16.151
      vertex 36.65 21.675 15.3135
      vertex 37.7667 22.0938 16.151
    endloop
  endfacet
  facet normal 1 0 0
    outer loop
      vertex 34.2121 21.675 16.151
      vertex 34.2121 22.0938 16.151
      vertex 34.2121 21.675 16.9885
    endloop
  endfacet
  facet normal 1 -0 0
    outer loop
      vertex 34.2121 21.675 16.151
      vertex 34.2121 21.675 15.3135
      vertex 34.2121 22.0938 16.151
    endloop
  endfacet
  facet normal -0 -0.894406 -0.447256
    outer loop
      vertex 45.7879 22.0938 16.151
      vertex 43.35 21.675 16.9885
      vertex 42.2333 22.0938 16.151
    endloop
  endfacet
  facet normal 0 -0.894406 -0.447256
    outer loop
      vertex 43.35 21.675 16.9885
      vertex 45.7879 22.0938 16.151
      vertex 45.7879 21.675 16.9885
    endloop
  endfacet
  facet normal 0 -0.894406 -0.447256
    outer loop
      vertex 34.2121 22.0938 16.151
      vertex 36.65 21.675 16.9885
      vertex 34.2121 21.675 16.9885
    endloop
  endfacet
  facet normal 0 -0.894406 -0.447256
    outer loop
      vertex 36.65 21.675 16.9885
      vertex 34.2121 22.0938 16.151
      vertex 37.7667 22.0938 16.151
    endloop
  endfacet
endsolid OpenSCAD_Model
