solid OpenSCAD_Model
  facet normal -0.987692 -0.15641 0
    outer loop
      vertex -3.42352 -10.7277 -36
      vertex -3.48083 -10.3658 0
      vertex -3.48083 -10.3658 -36
    endloop
  endfacet
  facet normal -0.987692 -0.15641 0
    outer loop
      vertex -3.48083 -10.3658 0
      vertex -3.42352 -10.7277 -36
      vertex -3.42352 -10.7277 0
    endloop
  endfacet
  facet normal 0.156407 -0.987693 0
    outer loop
      vertex 0.365849 -13.4808 -36
      vertex 0.727691 -13.4235 0
      vertex 0.365849 -13.4808 0
    endloop
  endfacet
  facet normal 0.156407 -0.987693 0
    outer loop
      vertex 0.727691 -13.4235 0
      vertex 0.365849 -13.4808 -36
      vertex 0.727691 -13.4235 -36
    endloop
  endfacet
  facet normal 0.987688 0.156435 0
    outer loop
      vertex 3.48083 -9.63415 0
      vertex 3.42352 -9.27231 -36
      vertex 3.42352 -9.27231 0
    endloop
  endfacet
  facet normal 0.987688 0.156435 0
    outer loop
      vertex 3.42352 -9.27231 -36
      vertex 3.48083 -9.63415 0
      vertex 3.48083 -9.63415 -36
    endloop
  endfacet
  facet normal -0.629314 0.777151 0
    outer loop
      vertex -2.05725 -7.16844 -36
      vertex -2.34196 -7.39899 0
      vertex -2.05725 -7.16844 0
    endloop
  endfacet
  facet normal -0.629314 0.777151 0
    outer loop
      vertex -2.34196 -7.39899 0
      vertex -2.05725 -7.16844 -36
      vertex -2.34196 -7.39899 -36
    endloop
  endfacet
  facet normal -0.99863 -0.0523339 0
    outer loop
      vertex -3.48083 -10.3658 -36
      vertex -3.5 -10 0
      vertex -3.5 -10 -36
    endloop
  endfacet
  facet normal -0.99863 -0.0523339 0
    outer loop
      vertex -3.5 -10 0
      vertex -3.48083 -10.3658 -36
      vertex -3.48083 -10.3658 0
    endloop
  endfacet
  facet normal -0.838631 -0.5447 0
    outer loop
      vertex -2.83156 -12.0572 -36
      vertex -3.03109 -11.75 0
      vertex -3.03109 -11.75 -36
    endloop
  endfacet
  facet normal -0.838631 -0.5447 0
    outer loop
      vertex -3.03109 -11.75 0
      vertex -2.83156 -12.0572 -36
      vertex -2.83156 -12.0572 0
    endloop
  endfacet
  facet normal 0.838631 -0.5447 0
    outer loop
      vertex 2.83156 -12.0572 0
      vertex 3.03109 -11.75 -36
      vertex 3.03109 -11.75 0
    endloop
  endfacet
  facet normal 0.838631 -0.5447 0
    outer loop
      vertex 3.03109 -11.75 -36
      vertex 2.83156 -12.0572 0
      vertex 2.83156 -12.0572 -36
    endloop
  endfacet
  facet normal 0.0523269 0.99863 -0
    outer loop
      vertex 0.365849 -6.51917 -36
      vertex 0 -6.5 0
      vertex 0.365849 -6.51917 0
    endloop
  endfacet
  facet normal 0.0523269 0.99863 0
    outer loop
      vertex 0 -6.5 0
      vertex 0.365849 -6.51917 -36
      vertex 0 -6.5 -36
    endloop
  endfacet
  facet normal -0.707039 -0.707175 0
    outer loop
      vertex -2.34196 -12.601 -36
      vertex -2.60101 -12.342 0
      vertex -2.60101 -12.342 -36
    endloop
  endfacet
  facet normal -0.707039 -0.707175 0
    outer loop
      vertex -2.60101 -12.342 0
      vertex -2.34196 -12.601 -36
      vertex -2.34196 -12.601 0
    endloop
  endfacet
  facet normal 0.965931 -0.258801 0
    outer loop
      vertex 3.3287 -11.0816 0
      vertex 3.42352 -10.7277 -36
      vertex 3.42352 -10.7277 0
    endloop
  endfacet
  facet normal 0.965931 -0.258801 0
    outer loop
      vertex 3.42352 -10.7277 -36
      vertex 3.3287 -11.0816 0
      vertex 3.3287 -11.0816 -36
    endloop
  endfacet
  facet normal 0.965925 0.258821 0
    outer loop
      vertex 3.42352 -9.27231 0
      vertex 3.3287 -8.91844 -36
      vertex 3.3287 -8.91844 0
    endloop
  endfacet
  facet normal 0.965925 0.258821 0
    outer loop
      vertex 3.3287 -8.91844 -36
      vertex 3.42352 -9.27231 0
      vertex 3.42352 -9.27231 -36
    endloop
  endfacet
  facet normal -0.777151 0.629314 0
    outer loop
      vertex -2.83156 -7.94275 -36
      vertex -2.60101 -7.65804 0
      vertex -2.60101 -7.65804 -36
    endloop
  endfacet
  facet normal -0.777151 0.629314 0
    outer loop
      vertex -2.60101 -7.65804 0
      vertex -2.83156 -7.94275 -36
      vertex -2.83156 -7.94275 0
    endloop
  endfacet
  facet normal -0.258822 0.965925 0
    outer loop
      vertex -0.727691 -6.57648 -36
      vertex -1.08156 -6.6713 0
      vertex -0.727691 -6.57648 0
    endloop
  endfacet
  facet normal -0.258822 0.965925 0
    outer loop
      vertex -1.08156 -6.6713 0
      vertex -0.727691 -6.57648 -36
      vertex -1.08156 -6.6713 -36
    endloop
  endfacet
  facet normal 0.0524085 -0.998626 0
    outer loop
      vertex 0 -13.5 -36
      vertex 0.365849 -13.4808 0
      vertex 0 -13.5 0
    endloop
  endfacet
  facet normal 0.0524085 -0.998626 0
    outer loop
      vertex 0.365849 -13.4808 0
      vertex 0 -13.5 -36
      vertex 0.365849 -13.4808 -36
    endloop
  endfacet
  facet normal -0.890994 -0.454014 0
    outer loop
      vertex -3.03109 -11.75 -36
      vertex -3.19741 -11.4236 0
      vertex -3.19741 -11.4236 -36
    endloop
  endfacet
  facet normal -0.890994 -0.454014 0
    outer loop
      vertex -3.19741 -11.4236 0
      vertex -3.03109 -11.75 -36
      vertex -3.03109 -11.75 0
    endloop
  endfacet
  facet normal -0.965925 0.258821 0
    outer loop
      vertex -3.42352 -9.27231 -36
      vertex -3.3287 -8.91844 0
      vertex -3.3287 -8.91844 -36
    endloop
  endfacet
  facet normal -0.965925 0.258821 0
    outer loop
      vertex -3.3287 -8.91844 0
      vertex -3.42352 -9.27231 -36
      vertex -3.42352 -9.27231 0
    endloop
  endfacet
  facet normal 0.99863 0.0523267 0
    outer loop
      vertex 3.5 -10 0
      vertex 3.48083 -9.63415 -36
      vertex 3.48083 -9.63415 0
    endloop
  endfacet
  facet normal 0.99863 0.0523267 0
    outer loop
      vertex 3.48083 -9.63415 -36
      vertex 3.5 -10 0
      vertex 3.5 -10 -36
    endloop
  endfacet
  facet normal -0.544638 0.838671 0
    outer loop
      vertex -1.75 -6.96891 -36
      vertex -2.05725 -7.16844 0
      vertex -1.75 -6.96891 0
    endloop
  endfacet
  facet normal -0.544638 0.838671 0
    outer loop
      vertex -2.05725 -7.16844 0
      vertex -1.75 -6.96891 -36
      vertex -2.05725 -7.16844 -36
    endloop
  endfacet
  facet normal 0.35837 0.93358 -0
    outer loop
      vertex 1.42358 -6.80259 -36
      vertex 1.08156 -6.6713 0
      vertex 1.42358 -6.80259 0
    endloop
  endfacet
  facet normal 0.35837 0.93358 0
    outer loop
      vertex 1.08156 -6.6713 0
      vertex 1.42358 -6.80259 -36
      vertex 1.08156 -6.6713 -36
    endloop
  endfacet
  facet normal 0.258822 0.965925 -0
    outer loop
      vertex 1.08156 -6.6713 -36
      vertex 0.727691 -6.57648 0
      vertex 1.08156 -6.6713 0
    endloop
  endfacet
  facet normal 0.258822 0.965925 0
    outer loop
      vertex 0.727691 -6.57648 0
      vertex 1.08156 -6.6713 -36
      vertex 0.727691 -6.57648 -36
    endloop
  endfacet
  facet normal 0.156434 0.987688 -0
    outer loop
      vertex 0.727691 -6.57648 -36
      vertex 0.365849 -6.51917 0
      vertex 0.727691 -6.57648 0
    endloop
  endfacet
  facet normal 0.156434 0.987688 0
    outer loop
      vertex 0.365849 -6.51917 0
      vertex 0.727691 -6.57648 -36
      vertex 0.365849 -6.51917 -36
    endloop
  endfacet
  facet normal -0.707107 0.707107 0
    outer loop
      vertex -2.60101 -7.65804 -36
      vertex -2.34196 -7.39899 0
      vertex -2.34196 -7.39899 -36
    endloop
  endfacet
  facet normal -0.707107 0.707107 0
    outer loop
      vertex -2.34196 -7.39899 0
      vertex -2.60101 -7.65804 -36
      vertex -2.60101 -7.65804 0
    endloop
  endfacet
  facet normal -0.453949 -0.891028 0
    outer loop
      vertex -1.75 -13.0311 -36
      vertex -1.42358 -13.1974 0
      vertex -1.75 -13.0311 0
    endloop
  endfacet
  facet normal -0.453949 -0.891028 -0
    outer loop
      vertex -1.42358 -13.1974 0
      vertex -1.75 -13.0311 -36
      vertex -1.42358 -13.1974 -36
    endloop
  endfacet
  facet normal 0.777248 -0.629194 0
    outer loop
      vertex 2.60101 -12.342 0
      vertex 2.83156 -12.0572 -36
      vertex 2.83156 -12.0572 0
    endloop
  endfacet
  facet normal 0.777248 -0.629194 0
    outer loop
      vertex 2.83156 -12.0572 -36
      vertex 2.60101 -12.342 0
      vertex 2.60101 -12.342 -36
    endloop
  endfacet
  facet normal 0 0 1
    outer loop
      vertex 2.5 -10 0
      vertex 3.5 -10 0
      vertex 3.48083 -9.63415 0
    endloop
  endfacet
  facet normal 0 0 1
    outer loop
      vertex 2.4863 -9.73868 0
      vertex 3.48083 -9.63415 0
      vertex 3.42352 -9.27231 0
    endloop
  endfacet
  facet normal 0 0 1
    outer loop
      vertex 3.5 -10 0
      vertex 2.5 -10 0
      vertex 3.48083 -10.3658 0
    endloop
  endfacet
  facet normal 0 0 1
    outer loop
      vertex 2.44537 -9.48022 0
      vertex 3.42352 -9.27231 0
      vertex 3.3287 -8.91844 0
    endloop
  endfacet
  facet normal -0 0 1
    outer loop
      vertex 2.4863 -10.2613 0
      vertex 3.48083 -10.3658 0
      vertex 2.5 -10 0
    endloop
  endfacet
  facet normal 0 0 1
    outer loop
      vertex 2.37764 -9.22746 0
      vertex 3.3287 -8.91844 0
      vertex 3.19741 -8.57642 0
    endloop
  endfacet
  facet normal 0 0 1
    outer loop
      vertex 3.48083 -10.3658 0
      vertex 2.4863 -10.2613 0
      vertex 3.42352 -10.7277 0
    endloop
  endfacet
  facet normal 0 0 1
    outer loop
      vertex 2.28386 -8.98316 0
      vertex 3.19741 -8.57642 0
      vertex 3.03109 -8.25 0
    endloop
  endfacet
  facet normal -0 0 1
    outer loop
      vertex 2.44537 -10.5198 0
      vertex 3.42352 -10.7277 0
      vertex 2.4863 -10.2613 0
    endloop
  endfacet
  facet normal 0 0 1
    outer loop
      vertex 2.16506 -8.75 0
      vertex 3.03109 -8.25 0
      vertex 2.83156 -7.94275 0
    endloop
  endfacet
  facet normal 0 0 1
    outer loop
      vertex 3.42352 -10.7277 0
      vertex 2.44537 -10.5198 0
      vertex 3.3287 -11.0816 0
    endloop
  endfacet
  facet normal 0 0 1
    outer loop
      vertex 2.02254 -8.53054 0
      vertex 2.83156 -7.94275 0
      vertex 2.60101 -7.65804 0
    endloop
  endfacet
  facet normal -0 0 1
    outer loop
      vertex 2.37764 -10.7725 0
      vertex 3.3287 -11.0816 0
      vertex 2.44537 -10.5198 0
    endloop
  endfacet
  facet normal 0 0 1
    outer loop
      vertex 3.3287 -11.0816 0
      vertex 2.37764 -10.7725 0
      vertex 3.19741 -11.4236 0
    endloop
  endfacet
  facet normal 0 0 1
    outer loop
      vertex 3.48083 -9.63415 0
      vertex 2.4863 -9.73868 0
      vertex 2.5 -10 0
    endloop
  endfacet
  facet normal 0 0 1
    outer loop
      vertex 3.42352 -9.27231 0
      vertex 2.44537 -9.48022 0
      vertex 2.4863 -9.73868 0
    endloop
  endfacet
  facet normal 0 0 1
    outer loop
      vertex 3.3287 -8.91844 0
      vertex 2.37764 -9.22746 0
      vertex 2.44537 -9.48022 0
    endloop
  endfacet
  facet normal 0 0 1
    outer loop
      vertex 1.85786 -8.32717 0
      vertex 2.60101 -7.65804 0
      vertex 2.34196 -7.39899 0
    endloop
  endfacet
  facet normal 0 0 1
    outer loop
      vertex 3.19741 -8.57642 0
      vertex 2.28386 -8.98316 0
      vertex 2.37764 -9.22746 0
    endloop
  endfacet
  facet normal 0 0 1
    outer loop
      vertex 3.03109 -8.25 0
      vertex 2.16506 -8.75 0
      vertex 2.28386 -8.98316 0
    endloop
  endfacet
  facet normal 0 0 1
    outer loop
      vertex 1.67283 -8.14214 0
      vertex 2.34196 -7.39899 0
      vertex 2.05725 -7.16844 0
    endloop
  endfacet
  facet normal 0 0 1
    outer loop
      vertex 2.83156 -7.94275 0
      vertex 2.02254 -8.53054 0
      vertex 2.16506 -8.75 0
    endloop
  endfacet
  facet normal 0 0 1
    outer loop
      vertex 2.60101 -7.65804 0
      vertex 1.85786 -8.32717 0
      vertex 2.02254 -8.53054 0
    endloop
  endfacet
  facet normal 0 0 1
    outer loop
      vertex 1.46946 -7.97746 0
      vertex 2.05725 -7.16844 0
      vertex 1.75 -6.96891 0
    endloop
  endfacet
  facet normal 0 0 1
    outer loop
      vertex 2.34196 -7.39899 0
      vertex 1.67283 -8.14214 0
      vertex 1.85786 -8.32717 0
    endloop
  endfacet
  facet normal 0 0 1
    outer loop
      vertex 2.05725 -7.16844 0
      vertex 1.46946 -7.97746 0
      vertex 1.67283 -8.14214 0
    endloop
  endfacet
  facet normal 0 0 1
    outer loop
      vertex 1.25 -7.83494 0
      vertex 1.75 -6.96891 0
      vertex 1.42358 -6.80259 0
    endloop
  endfacet
  facet normal 0 0 1
    outer loop
      vertex 1.75 -6.96891 0
      vertex 1.25 -7.83494 0
      vertex 1.46946 -7.97746 0
    endloop
  endfacet
  facet normal 0 0 1
    outer loop
      vertex 1.01684 -7.71614 0
      vertex 1.42358 -6.80259 0
      vertex 1.08156 -6.6713 0
    endloop
  endfacet
  facet normal 0 0 1
    outer loop
      vertex 1.42358 -6.80259 0
      vertex 1.01684 -7.71614 0
      vertex 1.25 -7.83494 0
    endloop
  endfacet
  facet normal 0 0 1
    outer loop
      vertex 1.08156 -6.6713 0
      vertex 0.772542 -7.62236 0
      vertex 1.01684 -7.71614 0
    endloop
  endfacet
  facet normal 0 0 1
    outer loop
      vertex 0.727691 -6.57648 0
      vertex 0.772542 -7.62236 0
      vertex 1.08156 -6.6713 0
    endloop
  endfacet
  facet normal 0 0 1
    outer loop
      vertex 0.727691 -6.57648 0
      vertex 0.519779 -7.55463 0
      vertex 0.772542 -7.62236 0
    endloop
  endfacet
  facet normal 0 0 1
    outer loop
      vertex 0.365849 -6.51917 0
      vertex 0.519779 -7.55463 0
      vertex 0.727691 -6.57648 0
    endloop
  endfacet
  facet normal 0 0 1
    outer loop
      vertex 0.365849 -6.51917 0
      vertex 0.261321 -7.5137 0
      vertex 0.519779 -7.55463 0
    endloop
  endfacet
  facet normal 0 0 1
    outer loop
      vertex 0 -6.5 0
      vertex 0.261321 -7.5137 0
      vertex 0.365849 -6.51917 0
    endloop
  endfacet
  facet normal 0 0 1
    outer loop
      vertex 0 -6.5 0
      vertex 0 -7.5 0
      vertex 0.261321 -7.5137 0
    endloop
  endfacet
  facet normal 0 0 1
    outer loop
      vertex 0 -6.5 0
      vertex -0.261321 -7.5137 0
      vertex 0 -7.5 0
    endloop
  endfacet
  facet normal -0 0 1
    outer loop
      vertex -0.365849 -6.51917 0
      vertex -0.261321 -7.5137 0
      vertex 0 -6.5 0
    endloop
  endfacet
  facet normal 0 0 1
    outer loop
      vertex -0.365849 -6.51917 0
      vertex -0.519779 -7.55463 0
      vertex -0.261321 -7.5137 0
    endloop
  endfacet
  facet normal -0 0 1
    outer loop
      vertex -0.727691 -6.57648 0
      vertex -0.519779 -7.55463 0
      vertex -0.365849 -6.51917 0
    endloop
  endfacet
  facet normal 0 0 1
    outer loop
      vertex -0.727691 -6.57648 0
      vertex -0.772542 -7.62236 0
      vertex -0.519779 -7.55463 0
    endloop
  endfacet
  facet normal -0 0 1
    outer loop
      vertex -1.08156 -6.6713 0
      vertex -0.772542 -7.62236 0
      vertex -0.727691 -6.57648 0
    endloop
  endfacet
  facet normal 0 0 1
    outer loop
      vertex -0.772542 -7.62236 0
      vertex -1.08156 -6.6713 0
      vertex -1.01684 -7.71614 0
    endloop
  endfacet
  facet normal -0 0 1
    outer loop
      vertex -1.42358 -6.80259 0
      vertex -1.01684 -7.71614 0
      vertex -1.08156 -6.6713 0
    endloop
  endfacet
  facet normal 0 0 1
    outer loop
      vertex -1.01684 -7.71614 0
      vertex -1.42358 -6.80259 0
      vertex -1.25 -7.83494 0
    endloop
  endfacet
  facet normal -0 0 1
    outer loop
      vertex -1.75 -6.96891 0
      vertex -1.25 -7.83494 0
      vertex -1.42358 -6.80259 0
    endloop
  endfacet
  facet normal 0 0 1
    outer loop
      vertex -1.25 -7.83494 0
      vertex -1.75 -6.96891 0
      vertex -1.46946 -7.97746 0
    endloop
  endfacet
  facet normal -0 0 1
    outer loop
      vertex -2.05725 -7.16844 0
      vertex -1.46946 -7.97746 0
      vertex -1.75 -6.96891 0
    endloop
  endfacet
  facet normal 0 0 1
    outer loop
      vertex -1.46946 -7.97746 0
      vertex -2.05725 -7.16844 0
      vertex -1.67283 -8.14214 0
    endloop
  endfacet
  facet normal -0 0 1
    outer loop
      vertex -2.34196 -7.39899 0
      vertex -1.67283 -8.14214 0
      vertex -2.05725 -7.16844 0
    endloop
  endfacet
  facet normal 0 0 1
    outer loop
      vertex -1.67283 -8.14214 0
      vertex -2.34196 -7.39899 0
      vertex -1.85786 -8.32717 0
    endloop
  endfacet
  facet normal -0 0 1
    outer loop
      vertex -2.60101 -7.65804 0
      vertex -1.85786 -8.32717 0
      vertex -2.34196 -7.39899 0
    endloop
  endfacet
  facet normal 0 0 1
    outer loop
      vertex -1.85786 -8.32717 0
      vertex -2.60101 -7.65804 0
      vertex -2.02254 -8.53054 0
    endloop
  endfacet
  facet normal -0 0 1
    outer loop
      vertex -2.83156 -7.94275 0
      vertex -2.02254 -8.53054 0
      vertex -2.60101 -7.65804 0
    endloop
  endfacet
  facet normal 0 0 1
    outer loop
      vertex -2.02254 -8.53054 0
      vertex -2.83156 -7.94275 0
      vertex -2.16506 -8.75 0
    endloop
  endfacet
  facet normal -0 0 1
    outer loop
      vertex -3.03109 -8.25 0
      vertex -2.16506 -8.75 0
      vertex -2.83156 -7.94275 0
    endloop
  endfacet
  facet normal 0 0 1
    outer loop
      vertex -2.16506 -8.75 0
      vertex -3.03109 -8.25 0
      vertex -2.28386 -8.98316 0
    endloop
  endfacet
  facet normal 0 0 1
    outer loop
      vertex -2.28386 -8.98316 0
      vertex -3.19741 -8.57642 0
      vertex -2.37764 -9.22746 0
    endloop
  endfacet
  facet normal -0 0 1
    outer loop
      vertex -3.19741 -8.57642 0
      vertex -2.28386 -8.98316 0
      vertex -3.03109 -8.25 0
    endloop
  endfacet
  facet normal -0 0 1
    outer loop
      vertex 2.28386 -11.0168 0
      vertex 3.19741 -11.4236 0
      vertex 2.37764 -10.7725 0
    endloop
  endfacet
  facet normal 0 0 1
    outer loop
      vertex 3.19741 -11.4236 0
      vertex 2.28386 -11.0168 0
      vertex 3.03109 -11.75 0
    endloop
  endfacet
  facet normal -0 0 1
    outer loop
      vertex 2.16506 -11.25 0
      vertex 3.03109 -11.75 0
      vertex 2.28386 -11.0168 0
    endloop
  endfacet
  facet normal 0 0 1
    outer loop
      vertex 3.03109 -11.75 0
      vertex 2.16506 -11.25 0
      vertex 2.83156 -12.0572 0
    endloop
  endfacet
  facet normal -0 0 1
    outer loop
      vertex 2.02254 -11.4695 0
      vertex 2.83156 -12.0572 0
      vertex 2.16506 -11.25 0
    endloop
  endfacet
  facet normal 0 0 1
    outer loop
      vertex 2.83156 -12.0572 0
      vertex 2.02254 -11.4695 0
      vertex 2.60101 -12.342 0
    endloop
  endfacet
  facet normal -0 0 1
    outer loop
      vertex 1.85786 -11.6728 0
      vertex 2.60101 -12.342 0
      vertex 2.02254 -11.4695 0
    endloop
  endfacet
  facet normal 0 0 1
    outer loop
      vertex 2.60101 -12.342 0
      vertex 1.85786 -11.6728 0
      vertex 2.34196 -12.601 0
    endloop
  endfacet
  facet normal -0 0 1
    outer loop
      vertex 1.67283 -11.8579 0
      vertex 2.34196 -12.601 0
      vertex 1.85786 -11.6728 0
    endloop
  endfacet
  facet normal 0 0 1
    outer loop
      vertex 2.34196 -12.601 0
      vertex 1.67283 -11.8579 0
      vertex 2.05725 -12.8316 0
    endloop
  endfacet
  facet normal -0 0 1
    outer loop
      vertex 1.46946 -12.0225 0
      vertex 2.05725 -12.8316 0
      vertex 1.67283 -11.8579 0
    endloop
  endfacet
  facet normal 0 0 1
    outer loop
      vertex 2.05725 -12.8316 0
      vertex 1.46946 -12.0225 0
      vertex 1.75 -13.0311 0
    endloop
  endfacet
  facet normal -0 0 1
    outer loop
      vertex 1.25 -12.1651 0
      vertex 1.75 -13.0311 0
      vertex 1.46946 -12.0225 0
    endloop
  endfacet
  facet normal 0 0 1
    outer loop
      vertex 1.75 -13.0311 0
      vertex 1.25 -12.1651 0
      vertex 1.42358 -13.1974 0
    endloop
  endfacet
  facet normal -0 0 1
    outer loop
      vertex 1.01684 -12.2839 0
      vertex 1.42358 -13.1974 0
      vertex 1.25 -12.1651 0
    endloop
  endfacet
  facet normal 0 0 1
    outer loop
      vertex 1.42358 -13.1974 0
      vertex 1.01684 -12.2839 0
      vertex 1.08156 -13.3287 0
    endloop
  endfacet
  facet normal -0 0 1
    outer loop
      vertex 0.772542 -12.3776 0
      vertex 1.08156 -13.3287 0
      vertex 1.01684 -12.2839 0
    endloop
  endfacet
  facet normal 0 0 1
    outer loop
      vertex 0.772542 -12.3776 0
      vertex 0.727691 -13.4235 0
      vertex 1.08156 -13.3287 0
    endloop
  endfacet
  facet normal -0 0 1
    outer loop
      vertex 0.519779 -12.4454 0
      vertex 0.727691 -13.4235 0
      vertex 0.772542 -12.3776 0
    endloop
  endfacet
  facet normal 0 0 1
    outer loop
      vertex 0.519779 -12.4454 0
      vertex 0.365849 -13.4808 0
      vertex 0.727691 -13.4235 0
    endloop
  endfacet
  facet normal -0 0 1
    outer loop
      vertex 0.261321 -12.4863 0
      vertex 0.365849 -13.4808 0
      vertex 0.519779 -12.4454 0
    endloop
  endfacet
  facet normal -0 0 1
    outer loop
      vertex 0 -12.5 0
      vertex 0.365849 -13.4808 0
      vertex 0.261321 -12.4863 0
    endloop
  endfacet
  facet normal 0 0 1
    outer loop
      vertex 0 -12.5 0
      vertex 0 -13.5 0
      vertex 0.365849 -13.4808 0
    endloop
  endfacet
  facet normal 0 0 1
    outer loop
      vertex -0.261321 -12.4863 0
      vertex 0 -13.5 0
      vertex 0 -12.5 0
    endloop
  endfacet
  facet normal 0 0 1
    outer loop
      vertex -0.261321 -12.4863 0
      vertex -0.365849 -13.4808 0
      vertex 0 -13.5 0
    endloop
  endfacet
  facet normal 0 0 1
    outer loop
      vertex -0.519779 -12.4454 0
      vertex -0.365849 -13.4808 0
      vertex -0.261321 -12.4863 0
    endloop
  endfacet
  facet normal 0 0 1
    outer loop
      vertex -0.519779 -12.4454 0
      vertex -0.727691 -13.4235 0
      vertex -0.365849 -13.4808 0
    endloop
  endfacet
  facet normal 0 0 1
    outer loop
      vertex -0.772542 -12.3776 0
      vertex -0.727691 -13.4235 0
      vertex -0.519779 -12.4454 0
    endloop
  endfacet
  facet normal 0 0 1
    outer loop
      vertex -1.08156 -13.3287 0
      vertex -0.772542 -12.3776 0
      vertex -1.01684 -12.2839 0
    endloop
  endfacet
  facet normal 0 0 1
    outer loop
      vertex -0.772542 -12.3776 0
      vertex -1.08156 -13.3287 0
      vertex -0.727691 -13.4235 0
    endloop
  endfacet
  facet normal 0 0 1
    outer loop
      vertex -1.42358 -13.1974 0
      vertex -1.01684 -12.2839 0
      vertex -1.25 -12.1651 0
    endloop
  endfacet
  facet normal 0 0 1
    outer loop
      vertex -1.01684 -12.2839 0
      vertex -1.42358 -13.1974 0
      vertex -1.08156 -13.3287 0
    endloop
  endfacet
  facet normal 0 0 1
    outer loop
      vertex -1.75 -13.0311 0
      vertex -1.25 -12.1651 0
      vertex -1.46946 -12.0225 0
    endloop
  endfacet
  facet normal 0 0 1
    outer loop
      vertex -2.05725 -12.8316 0
      vertex -1.46946 -12.0225 0
      vertex -1.67283 -11.8579 0
    endloop
  endfacet
  facet normal 0 0 1
    outer loop
      vertex -1.25 -12.1651 0
      vertex -1.75 -13.0311 0
      vertex -1.42358 -13.1974 0
    endloop
  endfacet
  facet normal 0 0 1
    outer loop
      vertex -2.34196 -12.601 0
      vertex -1.67283 -11.8579 0
      vertex -1.85786 -11.6728 0
    endloop
  endfacet
  facet normal 0 0 1
    outer loop
      vertex -2.60101 -12.342 0
      vertex -1.85786 -11.6728 0
      vertex -2.02254 -11.4695 0
    endloop
  endfacet
  facet normal 0 0 1
    outer loop
      vertex -1.46946 -12.0225 0
      vertex -2.05725 -12.8316 0
      vertex -1.75 -13.0311 0
    endloop
  endfacet
  facet normal 0 0 1
    outer loop
      vertex -2.83156 -12.0572 0
      vertex -2.02254 -11.4695 0
      vertex -2.16506 -11.25 0
    endloop
  endfacet
  facet normal 0 0 1
    outer loop
      vertex -3.03109 -11.75 0
      vertex -2.16506 -11.25 0
      vertex -2.28386 -11.0168 0
    endloop
  endfacet
  facet normal 0 0 1
    outer loop
      vertex -1.67283 -11.8579 0
      vertex -2.34196 -12.601 0
      vertex -2.05725 -12.8316 0
    endloop
  endfacet
  facet normal 0 0 1
    outer loop
      vertex -3.19741 -11.4236 0
      vertex -2.28386 -11.0168 0
      vertex -2.37764 -10.7725 0
    endloop
  endfacet
  facet normal 0 0 1
    outer loop
      vertex -3.3287 -11.0816 0
      vertex -2.37764 -10.7725 0
      vertex -2.44537 -10.5198 0
    endloop
  endfacet
  facet normal 0 0 1
    outer loop
      vertex -3.42352 -10.7277 0
      vertex -2.44537 -10.5198 0
      vertex -2.4863 -10.2613 0
    endloop
  endfacet
  facet normal 0 0 1
    outer loop
      vertex -1.85786 -11.6728 0
      vertex -2.60101 -12.342 0
      vertex -2.34196 -12.601 0
    endloop
  endfacet
  facet normal 0 0 1
    outer loop
      vertex -3.48083 -10.3658 0
      vertex -2.4863 -10.2613 0
      vertex -2.5 -10 0
    endloop
  endfacet
  facet normal -0 0 1
    outer loop
      vertex -3.3287 -8.91844 0
      vertex -2.37764 -9.22746 0
      vertex -3.19741 -8.57642 0
    endloop
  endfacet
  facet normal 0 0 1
    outer loop
      vertex -2.37764 -9.22746 0
      vertex -3.3287 -8.91844 0
      vertex -2.44537 -9.48022 0
    endloop
  endfacet
  facet normal 0 0 1
    outer loop
      vertex -2.02254 -11.4695 0
      vertex -2.83156 -12.0572 0
      vertex -2.60101 -12.342 0
    endloop
  endfacet
  facet normal -0 0 1
    outer loop
      vertex -3.42352 -9.27231 0
      vertex -2.44537 -9.48022 0
      vertex -3.3287 -8.91844 0
    endloop
  endfacet
  facet normal 0 0 1
    outer loop
      vertex -2.16506 -11.25 0
      vertex -3.03109 -11.75 0
      vertex -2.83156 -12.0572 0
    endloop
  endfacet
  facet normal 0 0 1
    outer loop
      vertex -2.44537 -9.48022 0
      vertex -3.42352 -9.27231 0
      vertex -2.4863 -9.73868 0
    endloop
  endfacet
  facet normal 0 0 1
    outer loop
      vertex -2.28386 -11.0168 0
      vertex -3.19741 -11.4236 0
      vertex -3.03109 -11.75 0
    endloop
  endfacet
  facet normal -0 0 1
    outer loop
      vertex -3.48083 -9.63415 0
      vertex -2.4863 -9.73868 0
      vertex -3.42352 -9.27231 0
    endloop
  endfacet
  facet normal 0 0 1
    outer loop
      vertex -2.37764 -10.7725 0
      vertex -3.3287 -11.0816 0
      vertex -3.19741 -11.4236 0
    endloop
  endfacet
  facet normal 0 0 1
    outer loop
      vertex -2.4863 -9.73868 0
      vertex -3.48083 -9.63415 0
      vertex -2.5 -10 0
    endloop
  endfacet
  facet normal 0 0 1
    outer loop
      vertex -2.44537 -10.5198 0
      vertex -3.42352 -10.7277 0
      vertex -3.3287 -11.0816 0
    endloop
  endfacet
  facet normal 0 0 1
    outer loop
      vertex -3.5 -10 0
      vertex -2.5 -10 0
      vertex -3.48083 -9.63415 0
    endloop
  endfacet
  facet normal 0 0 1
    outer loop
      vertex -2.4863 -10.2613 0
      vertex -3.48083 -10.3658 0
      vertex -3.42352 -10.7277 0
    endloop
  endfacet
  facet normal 0 0 1
    outer loop
      vertex -2.5 -10 0
      vertex -3.5 -10 0
      vertex -3.48083 -10.3658 0
    endloop
  endfacet
  facet normal 0.933573 -0.358388 0
    outer loop
      vertex 3.19741 -11.4236 0
      vertex 3.3287 -11.0816 -36
      vertex 3.3287 -11.0816 0
    endloop
  endfacet
  facet normal 0.933573 -0.358388 0
    outer loop
      vertex 3.3287 -11.0816 -36
      vertex 3.19741 -11.4236 0
      vertex 3.19741 -11.4236 -36
    endloop
  endfacet
  facet normal -0.629397 -0.777084 0
    outer loop
      vertex -2.34196 -12.601 -36
      vertex -2.05725 -12.8316 0
      vertex -2.34196 -12.601 0
    endloop
  endfacet
  facet normal -0.629397 -0.777084 -0
    outer loop
      vertex -2.05725 -12.8316 0
      vertex -2.34196 -12.601 -36
      vertex -2.05725 -12.8316 -36
    endloop
  endfacet
  facet normal -0.544581 -0.838709 0
    outer loop
      vertex -2.05725 -12.8316 -36
      vertex -1.75 -13.0311 0
      vertex -2.05725 -12.8316 0
    endloop
  endfacet
  facet normal -0.544581 -0.838709 -0
    outer loop
      vertex -1.75 -13.0311 0
      vertex -2.05725 -12.8316 -36
      vertex -1.75 -13.0311 -36
    endloop
  endfacet
  facet normal -0.93358 0.35837 0
    outer loop
      vertex -3.3287 -8.91844 -36
      vertex -3.19741 -8.57642 0
      vertex -3.19741 -8.57642 -36
    endloop
  endfacet
  facet normal -0.93358 0.35837 0
    outer loop
      vertex -3.19741 -8.57642 0
      vertex -3.3287 -8.91844 -36
      vertex -3.3287 -8.91844 0
    endloop
  endfacet
  facet normal -0.777248 -0.629194 0
    outer loop
      vertex -2.60101 -12.342 -36
      vertex -2.83156 -12.0572 0
      vertex -2.83156 -12.0572 -36
    endloop
  endfacet
  facet normal -0.777248 -0.629194 0
    outer loop
      vertex -2.83156 -12.0572 0
      vertex -2.60101 -12.342 -36
      vertex -2.60101 -12.342 0
    endloop
  endfacet
  facet normal 0.707039 -0.707175 0
    outer loop
      vertex 2.34196 -12.601 0
      vertex 2.60101 -12.342 -36
      vertex 2.60101 -12.342 0
    endloop
  endfacet
  facet normal 0.707039 -0.707175 0
    outer loop
      vertex 2.60101 -12.342 -36
      vertex 2.34196 -12.601 0
      vertex 2.34196 -12.601 -36
    endloop
  endfacet
  facet normal 0.453949 -0.891028 0
    outer loop
      vertex 1.42358 -13.1974 -36
      vertex 1.75 -13.0311 0
      vertex 1.42358 -13.1974 0
    endloop
  endfacet
  facet normal 0.453949 -0.891028 0
    outer loop
      vertex 1.75 -13.0311 0
      vertex 1.42358 -13.1974 -36
      vertex 1.75 -13.0311 -36
    endloop
  endfacet
  facet normal 0.890994 -0.454014 0
    outer loop
      vertex 3.03109 -11.75 0
      vertex 3.19741 -11.4236 -36
      vertex 3.19741 -11.4236 0
    endloop
  endfacet
  facet normal 0.890994 -0.454014 0
    outer loop
      vertex 3.19741 -11.4236 -36
      vertex 3.03109 -11.75 0
      vertex 3.03109 -11.75 -36
    endloop
  endfacet
  facet normal 0.838671 0.544638 0
    outer loop
      vertex 3.03109 -8.25 0
      vertex 2.83156 -7.94275 -36
      vertex 2.83156 -7.94275 0
    endloop
  endfacet
  facet normal 0.838671 0.544638 0
    outer loop
      vertex 2.83156 -7.94275 -36
      vertex 3.03109 -8.25 0
      vertex 3.03109 -8.25 -36
    endloop
  endfacet
  facet normal 0.358394 -0.933571 0
    outer loop
      vertex 1.08156 -13.3287 -36
      vertex 1.42358 -13.1974 0
      vertex 1.08156 -13.3287 0
    endloop
  endfacet
  facet normal 0.358394 -0.933571 0
    outer loop
      vertex 1.42358 -13.1974 0
      vertex 1.08156 -13.3287 -36
      vertex 1.42358 -13.1974 -36
    endloop
  endfacet
  facet normal -0.987688 0.156435 0
    outer loop
      vertex -3.48083 -9.63415 -36
      vertex -3.42352 -9.27231 0
      vertex -3.42352 -9.27231 -36
    endloop
  endfacet
  facet normal -0.987688 0.156435 0
    outer loop
      vertex -3.42352 -9.27231 0
      vertex -3.48083 -9.63415 -36
      vertex -3.48083 -9.63415 0
    endloop
  endfacet
  facet normal -0.156434 0.987688 0
    outer loop
      vertex -0.365849 -6.51917 -36
      vertex -0.727691 -6.57648 0
      vertex -0.365849 -6.51917 0
    endloop
  endfacet
  facet normal -0.156434 0.987688 0
    outer loop
      vertex -0.727691 -6.57648 0
      vertex -0.365849 -6.51917 -36
      vertex -0.727691 -6.57648 -36
    endloop
  endfacet
  facet normal -0.453992 0.891006 0
    outer loop
      vertex -1.42358 -6.80259 -36
      vertex -1.75 -6.96891 0
      vertex -1.42358 -6.80259 0
    endloop
  endfacet
  facet normal -0.453992 0.891006 0
    outer loop
      vertex -1.75 -6.96891 0
      vertex -1.42358 -6.80259 -36
      vertex -1.75 -6.96891 -36
    endloop
  endfacet
  facet normal -0.838671 0.544638 0
    outer loop
      vertex -3.03109 -8.25 -36
      vertex -2.83156 -7.94275 0
      vertex -2.83156 -7.94275 -36
    endloop
  endfacet
  facet normal -0.838671 0.544638 0
    outer loop
      vertex -2.83156 -7.94275 0
      vertex -3.03109 -8.25 -36
      vertex -3.03109 -8.25 0
    endloop
  endfacet
  facet normal 0.707107 0.707107 0
    outer loop
      vertex 2.60101 -7.65804 0
      vertex 2.34196 -7.39899 -36
      vertex 2.34196 -7.39899 0
    endloop
  endfacet
  facet normal 0.707107 0.707107 0
    outer loop
      vertex 2.34196 -7.39899 -36
      vertex 2.60101 -7.65804 0
      vertex 2.60101 -7.65804 -36
    endloop
  endfacet
  facet normal -0.99863 0.0523267 0
    outer loop
      vertex -3.5 -10 -36
      vertex -3.48083 -9.63415 0
      vertex -3.48083 -9.63415 -36
    endloop
  endfacet
  facet normal -0.99863 0.0523267 0
    outer loop
      vertex -3.48083 -9.63415 0
      vertex -3.5 -10 -36
      vertex -3.5 -10 0
    endloop
  endfacet
  facet normal -0.156407 -0.987693 0
    outer loop
      vertex -0.727691 -13.4235 -36
      vertex -0.365849 -13.4808 0
      vertex -0.727691 -13.4235 0
    endloop
  endfacet
  facet normal -0.156407 -0.987693 -0
    outer loop
      vertex -0.365849 -13.4808 0
      vertex -0.727691 -13.4235 -36
      vertex -0.365849 -13.4808 -36
    endloop
  endfacet
  facet normal 0.891006 0.453992 0
    outer loop
      vertex 3.19741 -8.57642 0
      vertex 3.03109 -8.25 -36
      vertex 3.03109 -8.25 0
    endloop
  endfacet
  facet normal 0.891006 0.453992 0
    outer loop
      vertex 3.03109 -8.25 -36
      vertex 3.19741 -8.57642 0
      vertex 3.19741 -8.57642 -36
    endloop
  endfacet
  facet normal 0 0 -1
    outer loop
      vertex 3.48083 -10.3658 -36
      vertex 3.48083 -9.63415 -36
      vertex 3.5 -10 -36
    endloop
  endfacet
  facet normal 0 0 -1
    outer loop
      vertex 3.42352 -10.7277 -36
      vertex 3.48083 -9.63415 -36
      vertex 3.48083 -10.3658 -36
    endloop
  endfacet
  facet normal 0 0 -1
    outer loop
      vertex 3.42352 -10.7277 -36
      vertex 3.42352 -9.27231 -36
      vertex 3.48083 -9.63415 -36
    endloop
  endfacet
  facet normal 0 0 -1
    outer loop
      vertex 3.3287 -11.0816 -36
      vertex 3.42352 -9.27231 -36
      vertex 3.42352 -10.7277 -36
    endloop
  endfacet
  facet normal 0 0 -1
    outer loop
      vertex 3.3287 -11.0816 -36
      vertex 3.3287 -8.91844 -36
      vertex 3.42352 -9.27231 -36
    endloop
  endfacet
  facet normal 0 0 -1
    outer loop
      vertex 3.19741 -11.4236 -36
      vertex 3.3287 -8.91844 -36
      vertex 3.3287 -11.0816 -36
    endloop
  endfacet
  facet normal 0 0 -1
    outer loop
      vertex 3.19741 -11.4236 -36
      vertex 3.19741 -8.57642 -36
      vertex 3.3287 -8.91844 -36
    endloop
  endfacet
  facet normal 0 0 -1
    outer loop
      vertex 3.03109 -11.75 -36
      vertex 3.19741 -8.57642 -36
      vertex 3.19741 -11.4236 -36
    endloop
  endfacet
  facet normal 0 0 -1
    outer loop
      vertex 3.03109 -11.75 -36
      vertex 3.03109 -8.25 -36
      vertex 3.19741 -8.57642 -36
    endloop
  endfacet
  facet normal 0 0 -1
    outer loop
      vertex 2.83156 -12.0572 -36
      vertex 3.03109 -8.25 -36
      vertex 3.03109 -11.75 -36
    endloop
  endfacet
  facet normal 0 0 -1
    outer loop
      vertex 2.83156 -12.0572 -36
      vertex 2.83156 -7.94275 -36
      vertex 3.03109 -8.25 -36
    endloop
  endfacet
  facet normal 0 0 -1
    outer loop
      vertex 2.60101 -12.342 -36
      vertex 2.83156 -7.94275 -36
      vertex 2.83156 -12.0572 -36
    endloop
  endfacet
  facet normal 0 0 -1
    outer loop
      vertex 2.60101 -12.342 -36
      vertex 2.60101 -7.65804 -36
      vertex 2.83156 -7.94275 -36
    endloop
  endfacet
  facet normal 0 0 -1
    outer loop
      vertex 2.34196 -12.601 -36
      vertex 2.60101 -7.65804 -36
      vertex 2.60101 -12.342 -36
    endloop
  endfacet
  facet normal 0 0 -1
    outer loop
      vertex 2.34196 -12.601 -36
      vertex 2.34196 -7.39899 -36
      vertex 2.60101 -7.65804 -36
    endloop
  endfacet
  facet normal 0 0 -1
    outer loop
      vertex 2.05725 -12.8316 -36
      vertex 2.34196 -7.39899 -36
      vertex 2.34196 -12.601 -36
    endloop
  endfacet
  facet normal 0 0 -1
    outer loop
      vertex 2.05725 -12.8316 -36
      vertex 2.05725 -7.16844 -36
      vertex 2.34196 -7.39899 -36
    endloop
  endfacet
  facet normal 0 0 -1
    outer loop
      vertex 1.75 -13.0311 -36
      vertex 2.05725 -7.16844 -36
      vertex 2.05725 -12.8316 -36
    endloop
  endfacet
  facet normal 0 0 -1
    outer loop
      vertex 1.75 -13.0311 -36
      vertex 1.75 -6.96891 -36
      vertex 2.05725 -7.16844 -36
    endloop
  endfacet
  facet normal 0 0 -1
    outer loop
      vertex 1.42358 -13.1974 -36
      vertex 1.75 -6.96891 -36
      vertex 1.75 -13.0311 -36
    endloop
  endfacet
  facet normal 0 0 -1
    outer loop
      vertex 1.42358 -13.1974 -36
      vertex 1.42358 -6.80259 -36
      vertex 1.75 -6.96891 -36
    endloop
  endfacet
  facet normal 0 0 -1
    outer loop
      vertex 1.08156 -13.3287 -36
      vertex 1.42358 -6.80259 -36
      vertex 1.42358 -13.1974 -36
    endloop
  endfacet
  facet normal 0 0 -1
    outer loop
      vertex 1.08156 -13.3287 -36
      vertex 1.08156 -6.6713 -36
      vertex 1.42358 -6.80259 -36
    endloop
  endfacet
  facet normal 0 0 -1
    outer loop
      vertex 0.727691 -13.4235 -36
      vertex 1.08156 -6.6713 -36
      vertex 1.08156 -13.3287 -36
    endloop
  endfacet
  facet normal 0 0 -1
    outer loop
      vertex 0.727691 -13.4235 -36
      vertex 0.727691 -6.57648 -36
      vertex 1.08156 -6.6713 -36
    endloop
  endfacet
  facet normal 0 0 -1
    outer loop
      vertex 0.365849 -13.4808 -36
      vertex 0.727691 -6.57648 -36
      vertex 0.727691 -13.4235 -36
    endloop
  endfacet
  facet normal 0 0 -1
    outer loop
      vertex 0.365849 -13.4808 -36
      vertex 0.365849 -6.51917 -36
      vertex 0.727691 -6.57648 -36
    endloop
  endfacet
  facet normal 0 0 -1
    outer loop
      vertex 0 -13.5 -36
      vertex 0.365849 -6.51917 -36
      vertex 0.365849 -13.4808 -36
    endloop
  endfacet
  facet normal 0 0 -1
    outer loop
      vertex 0 -13.5 -36
      vertex 0 -6.5 -36
      vertex 0.365849 -6.51917 -36
    endloop
  endfacet
  facet normal 0 0 -1
    outer loop
      vertex -0.365849 -13.4808 -36
      vertex 0 -6.5 -36
      vertex 0 -13.5 -36
    endloop
  endfacet
  facet normal 0 0 -1
    outer loop
      vertex -0.365849 -13.4808 -36
      vertex -0.365849 -6.51917 -36
      vertex 0 -6.5 -36
    endloop
  endfacet
  facet normal 0 0 -1
    outer loop
      vertex -0.727691 -13.4235 -36
      vertex -0.365849 -6.51917 -36
      vertex -0.365849 -13.4808 -36
    endloop
  endfacet
  facet normal 0 0 -1
    outer loop
      vertex -0.727691 -13.4235 -36
      vertex -0.727691 -6.57648 -36
      vertex -0.365849 -6.51917 -36
    endloop
  endfacet
  facet normal 0 0 -1
    outer loop
      vertex -1.08156 -13.3287 -36
      vertex -0.727691 -6.57648 -36
      vertex -0.727691 -13.4235 -36
    endloop
  endfacet
  facet normal 0 0 -1
    outer loop
      vertex -1.08156 -13.3287 -36
      vertex -1.08156 -6.6713 -36
      vertex -0.727691 -6.57648 -36
    endloop
  endfacet
  facet normal 0 0 -1
    outer loop
      vertex -1.42358 -13.1974 -36
      vertex -1.08156 -6.6713 -36
      vertex -1.08156 -13.3287 -36
    endloop
  endfacet
  facet normal 0 0 -1
    outer loop
      vertex -1.42358 -13.1974 -36
      vertex -1.42358 -6.80259 -36
      vertex -1.08156 -6.6713 -36
    endloop
  endfacet
  facet normal 0 0 -1
    outer loop
      vertex -1.75 -13.0311 -36
      vertex -1.42358 -6.80259 -36
      vertex -1.42358 -13.1974 -36
    endloop
  endfacet
  facet normal 0 0 -1
    outer loop
      vertex -1.75 -13.0311 -36
      vertex -1.75 -6.96891 -36
      vertex -1.42358 -6.80259 -36
    endloop
  endfacet
  facet normal 0 0 -1
    outer loop
      vertex -2.05725 -12.8316 -36
      vertex -1.75 -6.96891 -36
      vertex -1.75 -13.0311 -36
    endloop
  endfacet
  facet normal 0 0 -1
    outer loop
      vertex -2.05725 -12.8316 -36
      vertex -2.05725 -7.16844 -36
      vertex -1.75 -6.96891 -36
    endloop
  endfacet
  facet normal 0 0 -1
    outer loop
      vertex -2.34196 -12.601 -36
      vertex -2.05725 -7.16844 -36
      vertex -2.05725 -12.8316 -36
    endloop
  endfacet
  facet normal 0 0 -1
    outer loop
      vertex -2.34196 -12.601 -36
      vertex -2.34196 -7.39899 -36
      vertex -2.05725 -7.16844 -36
    endloop
  endfacet
  facet normal 0 0 -1
    outer loop
      vertex -2.60101 -12.342 -36
      vertex -2.34196 -7.39899 -36
      vertex -2.34196 -12.601 -36
    endloop
  endfacet
  facet normal 0 0 -1
    outer loop
      vertex -2.60101 -12.342 -36
      vertex -2.60101 -7.65804 -36
      vertex -2.34196 -7.39899 -36
    endloop
  endfacet
  facet normal 0 0 -1
    outer loop
      vertex -2.83156 -12.0572 -36
      vertex -2.60101 -7.65804 -36
      vertex -2.60101 -12.342 -36
    endloop
  endfacet
  facet normal 0 0 -1
    outer loop
      vertex -2.83156 -12.0572 -36
      vertex -2.83156 -7.94275 -36
      vertex -2.60101 -7.65804 -36
    endloop
  endfacet
  facet normal 0 0 -1
    outer loop
      vertex -3.03109 -11.75 -36
      vertex -2.83156 -7.94275 -36
      vertex -2.83156 -12.0572 -36
    endloop
  endfacet
  facet normal 0 0 -1
    outer loop
      vertex -3.03109 -11.75 -36
      vertex -3.03109 -8.25 -36
      vertex -2.83156 -7.94275 -36
    endloop
  endfacet
  facet normal 0 0 -1
    outer loop
      vertex -3.19741 -11.4236 -36
      vertex -3.03109 -8.25 -36
      vertex -3.03109 -11.75 -36
    endloop
  endfacet
  facet normal 0 0 -1
    outer loop
      vertex -3.19741 -11.4236 -36
      vertex -3.19741 -8.57642 -36
      vertex -3.03109 -8.25 -36
    endloop
  endfacet
  facet normal 0 0 -1
    outer loop
      vertex -3.3287 -11.0816 -36
      vertex -3.19741 -8.57642 -36
      vertex -3.19741 -11.4236 -36
    endloop
  endfacet
  facet normal 0 0 -1
    outer loop
      vertex -3.3287 -11.0816 -36
      vertex -3.3287 -8.91844 -36
      vertex -3.19741 -8.57642 -36
    endloop
  endfacet
  facet normal 0 0 -1
    outer loop
      vertex -3.42352 -10.7277 -36
      vertex -3.3287 -8.91844 -36
      vertex -3.3287 -11.0816 -36
    endloop
  endfacet
  facet normal 0 0 -1
    outer loop
      vertex -3.42352 -10.7277 -36
      vertex -3.42352 -9.27231 -36
      vertex -3.3287 -8.91844 -36
    endloop
  endfacet
  facet normal 0 0 -1
    outer loop
      vertex -3.48083 -10.3658 -36
      vertex -3.42352 -9.27231 -36
      vertex -3.42352 -10.7277 -36
    endloop
  endfacet
  facet normal 0 0 -1
    outer loop
      vertex -3.48083 -10.3658 -36
      vertex -3.48083 -9.63415 -36
      vertex -3.42352 -9.27231 -36
    endloop
  endfacet
  facet normal 0 -0 -1
    outer loop
      vertex -3.48083 -9.63415 -36
      vertex -3.48083 -10.3658 -36
      vertex -3.5 -10 -36
    endloop
  endfacet
  facet normal -0.933573 -0.358388 0
    outer loop
      vertex -3.19741 -11.4236 -36
      vertex -3.3287 -11.0816 0
      vertex -3.3287 -11.0816 -36
    endloop
  endfacet
  facet normal -0.933573 -0.358388 0
    outer loop
      vertex -3.3287 -11.0816 0
      vertex -3.19741 -11.4236 -36
      vertex -3.19741 -11.4236 0
    endloop
  endfacet
  facet normal 0.93358 0.35837 0
    outer loop
      vertex 3.3287 -8.91844 0
      vertex 3.19741 -8.57642 -36
      vertex 3.19741 -8.57642 0
    endloop
  endfacet
  facet normal 0.93358 0.35837 0
    outer loop
      vertex 3.19741 -8.57642 -36
      vertex 3.3287 -8.91844 0
      vertex 3.3287 -8.91844 -36
    endloop
  endfacet
  facet normal 0.544581 -0.838709 0
    outer loop
      vertex 1.75 -13.0311 -36
      vertex 2.05725 -12.8316 0
      vertex 1.75 -13.0311 0
    endloop
  endfacet
  facet normal 0.544581 -0.838709 0
    outer loop
      vertex 2.05725 -12.8316 0
      vertex 1.75 -13.0311 -36
      vertex 2.05725 -12.8316 -36
    endloop
  endfacet
  facet normal 0.629314 0.777151 -0
    outer loop
      vertex 2.34196 -7.39899 -36
      vertex 2.05725 -7.16844 0
      vertex 2.34196 -7.39899 0
    endloop
  endfacet
  facet normal 0.629314 0.777151 0
    outer loop
      vertex 2.05725 -7.16844 0
      vertex 2.34196 -7.39899 -36
      vertex 2.05725 -7.16844 -36
    endloop
  endfacet
  facet normal 0.629397 -0.777084 0
    outer loop
      vertex 2.05725 -12.8316 -36
      vertex 2.34196 -12.601 0
      vertex 2.05725 -12.8316 0
    endloop
  endfacet
  facet normal 0.629397 -0.777084 0
    outer loop
      vertex 2.34196 -12.601 0
      vertex 2.05725 -12.8316 -36
      vertex 2.34196 -12.601 -36
    endloop
  endfacet
  facet normal 0.258771 -0.965939 0
    outer loop
      vertex 0.727691 -13.4235 -36
      vertex 1.08156 -13.3287 0
      vertex 0.727691 -13.4235 0
    endloop
  endfacet
  facet normal 0.258771 -0.965939 0
    outer loop
      vertex 1.08156 -13.3287 0
      vertex 0.727691 -13.4235 -36
      vertex 1.08156 -13.3287 -36
    endloop
  endfacet
  facet normal -0.358394 -0.933571 0
    outer loop
      vertex -1.42358 -13.1974 -36
      vertex -1.08156 -13.3287 0
      vertex -1.42358 -13.1974 0
    endloop
  endfacet
  facet normal -0.358394 -0.933571 -0
    outer loop
      vertex -1.08156 -13.3287 0
      vertex -1.42358 -13.1974 -36
      vertex -1.08156 -13.3287 -36
    endloop
  endfacet
  facet normal -0.35837 0.93358 0
    outer loop
      vertex -1.08156 -6.6713 -36
      vertex -1.42358 -6.80259 0
      vertex -1.08156 -6.6713 0
    endloop
  endfacet
  facet normal -0.35837 0.93358 0
    outer loop
      vertex -1.42358 -6.80259 0
      vertex -1.08156 -6.6713 -36
      vertex -1.42358 -6.80259 -36
    endloop
  endfacet
  facet normal -0.0523269 0.99863 0
    outer loop
      vertex 0 -6.5 -36
      vertex -0.365849 -6.51917 0
      vertex 0 -6.5 0
    endloop
  endfacet
  facet normal -0.0523269 0.99863 0
    outer loop
      vertex -0.365849 -6.51917 0
      vertex 0 -6.5 -36
      vertex -0.365849 -6.51917 -36
    endloop
  endfacet
  facet normal 0.987692 -0.15641 0
    outer loop
      vertex 3.42352 -10.7277 0
      vertex 3.48083 -10.3658 -36
      vertex 3.48083 -10.3658 0
    endloop
  endfacet
  facet normal 0.987692 -0.15641 0
    outer loop
      vertex 3.48083 -10.3658 -36
      vertex 3.42352 -10.7277 0
      vertex 3.42352 -10.7277 -36
    endloop
  endfacet
  facet normal 0.99863 -0.0523339 0
    outer loop
      vertex 3.48083 -10.3658 0
      vertex 3.5 -10 -36
      vertex 3.5 -10 0
    endloop
  endfacet
  facet normal 0.99863 -0.0523339 0
    outer loop
      vertex 3.5 -10 -36
      vertex 3.48083 -10.3658 0
      vertex 3.48083 -10.3658 -36
    endloop
  endfacet
  facet normal -0.258771 -0.965939 0
    outer loop
      vertex -1.08156 -13.3287 -36
      vertex -0.727691 -13.4235 0
      vertex -1.08156 -13.3287 0
    endloop
  endfacet
  facet normal -0.258771 -0.965939 -0
    outer loop
      vertex -0.727691 -13.4235 0
      vertex -1.08156 -13.3287 -36
      vertex -0.727691 -13.4235 -36
    endloop
  endfacet
  facet normal 0.777151 0.629314 0
    outer loop
      vertex 2.83156 -7.94275 0
      vertex 2.60101 -7.65804 -36
      vertex 2.60101 -7.65804 0
    endloop
  endfacet
  facet normal 0.777151 0.629314 0
    outer loop
      vertex 2.60101 -7.65804 -36
      vertex 2.83156 -7.94275 0
      vertex 2.83156 -7.94275 -36
    endloop
  endfacet
  facet normal -0.891006 0.453992 0
    outer loop
      vertex -3.19741 -8.57642 -36
      vertex -3.03109 -8.25 0
      vertex -3.03109 -8.25 -36
    endloop
  endfacet
  facet normal -0.891006 0.453992 0
    outer loop
      vertex -3.03109 -8.25 0
      vertex -3.19741 -8.57642 -36
      vertex -3.19741 -8.57642 0
    endloop
  endfacet
  facet normal 0.544638 0.838671 -0
    outer loop
      vertex 2.05725 -7.16844 -36
      vertex 1.75 -6.96891 0
      vertex 2.05725 -7.16844 0
    endloop
  endfacet
  facet normal 0.544638 0.838671 0
    outer loop
      vertex 1.75 -6.96891 0
      vertex 2.05725 -7.16844 -36
      vertex 1.75 -6.96891 -36
    endloop
  endfacet
  facet normal 0.453992 0.891006 -0
    outer loop
      vertex 1.75 -6.96891 -36
      vertex 1.42358 -6.80259 0
      vertex 1.75 -6.96891 0
    endloop
  endfacet
  facet normal 0.453992 0.891006 0
    outer loop
      vertex 1.42358 -6.80259 0
      vertex 1.75 -6.96891 -36
      vertex 1.42358 -6.80259 -36
    endloop
  endfacet
  facet normal -0.965931 -0.258801 0
    outer loop
      vertex -3.3287 -11.0816 -36
      vertex -3.42352 -10.7277 0
      vertex -3.42352 -10.7277 -36
    endloop
  endfacet
  facet normal -0.965931 -0.258801 0
    outer loop
      vertex -3.42352 -10.7277 0
      vertex -3.3287 -11.0816 -36
      vertex -3.3287 -11.0816 0
    endloop
  endfacet
  facet normal -0.0524085 -0.998626 0
    outer loop
      vertex -0.365849 -13.4808 -36
      vertex 0 -13.5 0
      vertex -0.365849 -13.4808 0
    endloop
  endfacet
  facet normal -0.0524085 -0.998626 -0
    outer loop
      vertex 0 -13.5 0
      vertex -0.365849 -13.4808 -36
      vertex 0 -13.5 -36
    endloop
  endfacet
  facet normal 0.891039 -0.453926 0
    outer loop
      vertex 2.16506 -11.25 17
      vertex 2.28386 -11.0168 0
      vertex 2.28386 -11.0168 17
    endloop
  endfacet
  facet normal 0.891039 -0.453926 0
    outer loop
      vertex 2.28386 -11.0168 0
      vertex 2.16506 -11.25 17
      vertex 2.16506 -11.25 0
    endloop
  endfacet
  facet normal 0.987692 0.156412 0
    outer loop
      vertex 2.4863 -9.73868 17
      vertex 2.44537 -9.48022 0
      vertex 2.44537 -9.48022 17
    endloop
  endfacet
  facet normal 0.987692 0.156412 0
    outer loop
      vertex 2.44537 -9.48022 0
      vertex 2.4863 -9.73868 17
      vertex 2.4863 -9.73868 0
    endloop
  endfacet
  facet normal 0.838669 0.544642 0
    outer loop
      vertex 2.16506 -8.75 17
      vertex 2.02254 -8.53054 0
      vertex 2.02254 -8.53054 17
    endloop
  endfacet
  facet normal 0.838669 0.544642 0
    outer loop
      vertex 2.02254 -8.53054 0
      vertex 2.16506 -8.75 17
      vertex 2.16506 -8.75 0
    endloop
  endfacet
  facet normal 0.259077 -0.965857 0
    outer loop
      vertex 0.519779 -12.4454 0
      vertex 0.772542 -12.3776 17
      vertex 0.519779 -12.4454 17
    endloop
  endfacet
  facet normal 0.259077 -0.965857 0
    outer loop
      vertex 0.772542 -12.3776 17
      vertex 0.519779 -12.4454 0
      vertex 0.772542 -12.3776 0
    endloop
  endfacet
  facet normal 0.707107 0.707107 0
    outer loop
      vertex 1.85786 -8.32717 17
      vertex 1.67283 -8.14214 0
      vertex 1.67283 -8.14214 17
    endloop
  endfacet
  facet normal 0.707107 0.707107 0
    outer loop
      vertex 1.67283 -8.14214 0
      vertex 1.85786 -8.32717 17
      vertex 1.85786 -8.32717 0
    endloop
  endfacet
  facet normal -0.987692 0.156412 0
    outer loop
      vertex -2.4863 -9.73868 0
      vertex -2.44537 -9.48022 17
      vertex -2.44537 -9.48022 0
    endloop
  endfacet
  facet normal -0.987692 0.156412 0
    outer loop
      vertex -2.44537 -9.48022 17
      vertex -2.4863 -9.73868 0
      vertex -2.4863 -9.73868 17
    endloop
  endfacet
  facet normal -0.453988 0.891008 0
    outer loop
      vertex -1.01684 -7.71614 0
      vertex -1.25 -7.83494 17
      vertex -1.01684 -7.71614 17
    endloop
  endfacet
  facet normal -0.453988 0.891008 0
    outer loop
      vertex -1.25 -7.83494 17
      vertex -1.01684 -7.71614 0
      vertex -1.25 -7.83494 0
    endloop
  endfacet
  facet normal -0.156413 0.987692 0
    outer loop
      vertex -0.261321 -7.5137 0
      vertex -0.519779 -7.55463 17
      vertex -0.261321 -7.5137 17
    endloop
  endfacet
  facet normal -0.156413 0.987692 0
    outer loop
      vertex -0.519779 -7.55463 17
      vertex -0.261321 -7.5137 0
      vertex -0.519779 -7.55463 0
    endloop
  endfacet
  facet normal -0.891039 -0.453926 0
    outer loop
      vertex -2.16506 -11.25 0
      vertex -2.28386 -11.0168 17
      vertex -2.28386 -11.0168 0
    endloop
  endfacet
  facet normal -0.891039 -0.453926 0
    outer loop
      vertex -2.28386 -11.0168 17
      vertex -2.16506 -11.25 0
      vertex -2.16506 -11.25 17
    endloop
  endfacet
  facet normal 0.998629 0.0523542 0
    outer loop
      vertex 2.5 -10 17
      vertex 2.4863 -9.73868 0
      vertex 2.4863 -9.73868 17
    endloop
  endfacet
  facet normal 0.998629 0.0523542 0
    outer loop
      vertex 2.4863 -9.73868 0
      vertex 2.5 -10 17
      vertex 2.5 -10 0
    endloop
  endfacet
  facet normal -0.052354 -0.998629 0
    outer loop
      vertex -0.261321 -12.4863 0
      vertex 0 -12.5 17
      vertex -0.261321 -12.4863 17
    endloop
  endfacet
  facet normal -0.052354 -0.998629 -0
    outer loop
      vertex 0 -12.5 17
      vertex -0.261321 -12.4863 0
      vertex 0 -12.5 0
    endloop
  endfacet
  facet normal 0.629307 0.777157 -0
    outer loop
      vertex 1.67283 -8.14214 0
      vertex 1.46946 -7.97746 17
      vertex 1.67283 -8.14214 17
    endloop
  endfacet
  facet normal 0.629307 0.777157 0
    outer loop
      vertex 1.46946 -7.97746 17
      vertex 1.67283 -8.14214 0
      vertex 1.46946 -7.97746 0
    endloop
  endfacet
  facet normal -0.933578 0.358375 0
    outer loop
      vertex -2.37764 -9.22746 0
      vertex -2.28386 -8.98316 17
      vertex -2.28386 -8.98316 0
    endloop
  endfacet
  facet normal -0.933578 0.358375 0
    outer loop
      vertex -2.28386 -8.98316 17
      vertex -2.37764 -9.22746 0
      vertex -2.37764 -9.22746 17
    endloop
  endfacet
  facet normal 0.998628 -0.0523582 0
    outer loop
      vertex 2.4863 -10.2613 17
      vertex 2.5 -10 0
      vertex 2.5 -10 17
    endloop
  endfacet
  facet normal 0.998628 -0.0523582 0
    outer loop
      vertex 2.5 -10 0
      vertex 2.4863 -10.2613 17
      vertex 2.4863 -10.2613 0
    endloop
  endfacet
  facet normal 0.965923 0.25883 0
    outer loop
      vertex 2.44537 -9.48022 17
      vertex 2.37764 -9.22746 0
      vertex 2.37764 -9.22746 17
    endloop
  endfacet
  facet normal 0.965923 0.25883 0
    outer loop
      vertex 2.37764 -9.22746 0
      vertex 2.44537 -9.48022 17
      vertex 2.44537 -9.48022 0
    endloop
  endfacet
  facet normal -0.258827 0.965924 0
    outer loop
      vertex -0.519779 -7.55463 0
      vertex -0.772542 -7.62236 17
      vertex -0.519779 -7.55463 17
    endloop
  endfacet
  facet normal -0.258827 0.965924 0
    outer loop
      vertex -0.772542 -7.62236 17
      vertex -0.519779 -7.55463 0
      vertex -0.772542 -7.62236 0
    endloop
  endfacet
  facet normal -0.156301 -0.987709 0
    outer loop
      vertex -0.519779 -12.4454 0
      vertex -0.261321 -12.4863 17
      vertex -0.519779 -12.4454 17
    endloop
  endfacet
  facet normal -0.156301 -0.987709 -0
    outer loop
      vertex -0.261321 -12.4863 17
      vertex -0.519779 -12.4454 0
      vertex -0.261321 -12.4863 0
    endloop
  endfacet
  facet normal 0.453988 0.891008 -0
    outer loop
      vertex 1.25 -7.83494 0
      vertex 1.01684 -7.71614 17
      vertex 1.25 -7.83494 17
    endloop
  endfacet
  facet normal 0.453988 0.891008 0
    outer loop
      vertex 1.01684 -7.71614 17
      vertex 1.25 -7.83494 0
      vertex 1.01684 -7.71614 0
    endloop
  endfacet
  facet normal 0.891008 0.453988 0
    outer loop
      vertex 2.28386 -8.98316 17
      vertex 2.16506 -8.75 0
      vertex 2.16506 -8.75 17
    endloop
  endfacet
  facet normal 0.891008 0.453988 0
    outer loop
      vertex 2.16506 -8.75 0
      vertex 2.28386 -8.98316 17
      vertex 2.28386 -8.98316 0
    endloop
  endfacet
  facet normal -0.358111 -0.933679 0
    outer loop
      vertex -1.01684 -12.2839 0
      vertex -0.772542 -12.3776 17
      vertex -1.01684 -12.2839 17
    endloop
  endfacet
  facet normal -0.358111 -0.933679 -0
    outer loop
      vertex -0.772542 -12.3776 17
      vertex -1.01684 -12.2839 0
      vertex -0.772542 -12.3776 0
    endloop
  endfacet
  facet normal 0.258827 0.965924 -0
    outer loop
      vertex 0.772542 -7.62236 0
      vertex 0.519779 -7.55463 17
      vertex 0.772542 -7.62236 17
    endloop
  endfacet
  facet normal 0.258827 0.965924 0
    outer loop
      vertex 0.519779 -7.55463 17
      vertex 0.772542 -7.62236 0
      vertex 0.519779 -7.55463 0
    endloop
  endfacet
  facet normal 0.933578 0.358375 0
    outer loop
      vertex 2.37764 -9.22746 17
      vertex 2.28386 -8.98316 0
      vertex 2.28386 -8.98316 17
    endloop
  endfacet
  facet normal 0.933578 0.358375 0
    outer loop
      vertex 2.28386 -8.98316 0
      vertex 2.37764 -9.22746 17
      vertex 2.37764 -9.22746 0
    endloop
  endfacet
  facet normal -0.998628 -0.0523582 0
    outer loop
      vertex -2.4863 -10.2613 0
      vertex -2.5 -10 17
      vertex -2.5 -10 0
    endloop
  endfacet
  facet normal -0.998628 -0.0523582 0
    outer loop
      vertex -2.5 -10 17
      vertex -2.4863 -10.2613 0
      vertex -2.4863 -10.2613 17
    endloop
  endfacet
  facet normal -0.629307 0.777157 0
    outer loop
      vertex -1.46946 -7.97746 0
      vertex -1.67283 -8.14214 17
      vertex -1.46946 -7.97746 17
    endloop
  endfacet
  facet normal -0.629307 0.777157 0
    outer loop
      vertex -1.67283 -8.14214 17
      vertex -1.46946 -7.97746 0
      vertex -1.67283 -8.14214 0
    endloop
  endfacet
  facet normal 0.052354 -0.998629 0
    outer loop
      vertex 0 -12.5 0
      vertex 0.261321 -12.4863 17
      vertex 0 -12.5 17
    endloop
  endfacet
  facet normal 0.052354 -0.998629 0
    outer loop
      vertex 0.261321 -12.4863 17
      vertex 0 -12.5 0
      vertex 0.261321 -12.4863 0
    endloop
  endfacet
  facet normal 0.156301 -0.987709 0
    outer loop
      vertex 0.261321 -12.4863 0
      vertex 0.519779 -12.4454 17
      vertex 0.261321 -12.4863 17
    endloop
  endfacet
  facet normal 0.156301 -0.987709 0
    outer loop
      vertex 0.519779 -12.4454 17
      vertex 0.261321 -12.4863 0
      vertex 0.519779 -12.4454 0
    endloop
  endfacet
  facet normal 0.987696 -0.156388 0
    outer loop
      vertex 2.44537 -10.5198 17
      vertex 2.4863 -10.2613 0
      vertex 2.4863 -10.2613 17
    endloop
  endfacet
  facet normal 0.987696 -0.156388 0
    outer loop
      vertex 2.4863 -10.2613 0
      vertex 2.44537 -10.5198 17
      vertex 2.44537 -10.5198 0
    endloop
  endfacet
  facet normal 0.544642 0.838669 -0
    outer loop
      vertex 1.46946 -7.97746 0
      vertex 1.25 -7.83494 17
      vertex 1.46946 -7.97746 17
    endloop
  endfacet
  facet normal 0.544642 0.838669 0
    outer loop
      vertex 1.25 -7.83494 17
      vertex 1.46946 -7.97746 0
      vertex 1.25 -7.83494 0
    endloop
  endfacet
  facet normal 0.777157 0.629307 0
    outer loop
      vertex 2.02254 -8.53054 17
      vertex 1.85786 -8.32717 0
      vertex 1.85786 -8.32717 17
    endloop
  endfacet
  facet normal 0.777157 0.629307 0
    outer loop
      vertex 1.85786 -8.32717 0
      vertex 2.02254 -8.53054 17
      vertex 2.02254 -8.53054 0
    endloop
  endfacet
  facet normal -0.629122 -0.777306 0
    outer loop
      vertex -1.67283 -11.8579 0
      vertex -1.46946 -12.0225 17
      vertex -1.67283 -11.8579 17
    endloop
  endfacet
  facet normal -0.629122 -0.777306 -0
    outer loop
      vertex -1.46946 -12.0225 17
      vertex -1.67283 -11.8579 0
      vertex -1.46946 -12.0225 0
    endloop
  endfacet
  facet normal -0.998629 0.0523542 0
    outer loop
      vertex -2.5 -10 0
      vertex -2.4863 -9.73868 17
      vertex -2.4863 -9.73868 0
    endloop
  endfacet
  facet normal -0.998629 0.0523542 0
    outer loop
      vertex -2.4863 -9.73868 17
      vertex -2.5 -10 0
      vertex -2.5 -10 17
    endloop
  endfacet
  facet normal -0.965907 -0.258888 0
    outer loop
      vertex -2.37764 -10.7725 0
      vertex -2.44537 -10.5198 17
      vertex -2.44537 -10.5198 0
    endloop
  endfacet
  facet normal -0.965907 -0.258888 0
    outer loop
      vertex -2.44537 -10.5198 17
      vertex -2.37764 -10.7725 0
      vertex -2.37764 -10.7725 17
    endloop
  endfacet
  facet normal 0.453988 -0.891008 0
    outer loop
      vertex 1.01684 -12.2839 0
      vertex 1.25 -12.1651 17
      vertex 1.01684 -12.2839 17
    endloop
  endfacet
  facet normal 0.453988 -0.891008 0
    outer loop
      vertex 1.25 -12.1651 17
      vertex 1.01684 -12.2839 0
      vertex 1.25 -12.1651 0
    endloop
  endfacet
  facet normal -0.052354 0.998629 0
    outer loop
      vertex 0 -7.5 0
      vertex -0.261321 -7.5137 17
      vertex 0 -7.5 17
    endloop
  endfacet
  facet normal -0.052354 0.998629 0
    outer loop
      vertex -0.261321 -7.5137 17
      vertex 0 -7.5 0
      vertex -0.261321 -7.5137 0
    endloop
  endfacet
  facet normal 0.777051 -0.629438 0
    outer loop
      vertex 1.85786 -11.6728 17
      vertex 2.02254 -11.4695 0
      vertex 2.02254 -11.4695 17
    endloop
  endfacet
  facet normal 0.777051 -0.629438 0
    outer loop
      vertex 2.02254 -11.4695 0
      vertex 1.85786 -11.6728 17
      vertex 1.85786 -11.6728 0
    endloop
  endfacet
  facet normal -0.838669 0.544642 0
    outer loop
      vertex -2.16506 -8.75 0
      vertex -2.02254 -8.53054 17
      vertex -2.02254 -8.53054 0
    endloop
  endfacet
  facet normal -0.838669 0.544642 0
    outer loop
      vertex -2.02254 -8.53054 17
      vertex -2.16506 -8.75 0
      vertex -2.16506 -8.75 17
    endloop
  endfacet
  facet normal 0.052354 0.998629 -0
    outer loop
      vertex 0.261321 -7.5137 0
      vertex 0 -7.5 17
      vertex 0.261321 -7.5137 17
    endloop
  endfacet
  facet normal 0.052354 0.998629 0
    outer loop
      vertex 0 -7.5 17
      vertex 0.261321 -7.5137 0
      vertex 0 -7.5 0
    endloop
  endfacet
  facet normal 0.156413 0.987692 -0
    outer loop
      vertex 0.519779 -7.55463 0
      vertex 0.261321 -7.5137 17
      vertex 0.519779 -7.55463 17
    endloop
  endfacet
  facet normal 0.156413 0.987692 0
    outer loop
      vertex 0.261321 -7.5137 17
      vertex 0.519779 -7.55463 0
      vertex 0.261321 -7.5137 0
    endloop
  endfacet
  facet normal -0.544642 0.838669 0
    outer loop
      vertex -1.25 -7.83494 0
      vertex -1.46946 -7.97746 17
      vertex -1.25 -7.83494 17
    endloop
  endfacet
  facet normal -0.544642 0.838669 0
    outer loop
      vertex -1.46946 -7.97746 17
      vertex -1.25 -7.83494 0
      vertex -1.46946 -7.97746 0
    endloop
  endfacet
  facet normal -0.777051 -0.629438 0
    outer loop
      vertex -1.85786 -11.6728 0
      vertex -2.02254 -11.4695 17
      vertex -2.02254 -11.4695 0
    endloop
  endfacet
  facet normal -0.777051 -0.629438 0
    outer loop
      vertex -2.02254 -11.4695 17
      vertex -1.85786 -11.6728 0
      vertex -1.85786 -11.6728 17
    endloop
  endfacet
  facet normal -0.838714 -0.544572 0
    outer loop
      vertex -2.02254 -11.4695 0
      vertex -2.16506 -11.25 17
      vertex -2.16506 -11.25 0
    endloop
  endfacet
  facet normal -0.838714 -0.544572 0
    outer loop
      vertex -2.16506 -11.25 17
      vertex -2.02254 -11.4695 0
      vertex -2.02254 -11.4695 17
    endloop
  endfacet
  facet normal -0.933578 -0.358375 0
    outer loop
      vertex -2.28386 -11.0168 0
      vertex -2.37764 -10.7725 17
      vertex -2.37764 -10.7725 0
    endloop
  endfacet
  facet normal -0.933578 -0.358375 0
    outer loop
      vertex -2.37764 -10.7725 17
      vertex -2.28386 -11.0168 0
      vertex -2.28386 -11.0168 17
    endloop
  endfacet
  facet normal 0.838714 -0.544572 0
    outer loop
      vertex 2.02254 -11.4695 17
      vertex 2.16506 -11.25 0
      vertex 2.16506 -11.25 17
    endloop
  endfacet
  facet normal 0.838714 -0.544572 0
    outer loop
      vertex 2.16506 -11.25 0
      vertex 2.02254 -11.4695 17
      vertex 2.02254 -11.4695 0
    endloop
  endfacet
  facet normal -0.965923 0.25883 0
    outer loop
      vertex -2.44537 -9.48022 0
      vertex -2.37764 -9.22746 17
      vertex -2.37764 -9.22746 0
    endloop
  endfacet
  facet normal -0.965923 0.25883 0
    outer loop
      vertex -2.37764 -9.22746 17
      vertex -2.44537 -9.48022 0
      vertex -2.44537 -9.48022 17
    endloop
  endfacet
  facet normal -0.358377 0.933577 0
    outer loop
      vertex -0.772542 -7.62236 0
      vertex -1.01684 -7.71614 17
      vertex -0.772542 -7.62236 17
    endloop
  endfacet
  facet normal -0.358377 0.933577 0
    outer loop
      vertex -1.01684 -7.71614 17
      vertex -0.772542 -7.62236 0
      vertex -1.01684 -7.71614 0
    endloop
  endfacet
  facet normal -0.707107 0.707107 0
    outer loop
      vertex -1.85786 -8.32717 0
      vertex -1.67283 -8.14214 17
      vertex -1.67283 -8.14214 0
    endloop
  endfacet
  facet normal -0.707107 0.707107 0
    outer loop
      vertex -1.67283 -8.14214 17
      vertex -1.85786 -8.32717 0
      vertex -1.85786 -8.32717 17
    endloop
  endfacet
  facet normal -0.453988 -0.891008 0
    outer loop
      vertex -1.25 -12.1651 0
      vertex -1.01684 -12.2839 17
      vertex -1.25 -12.1651 17
    endloop
  endfacet
  facet normal -0.453988 -0.891008 -0
    outer loop
      vertex -1.01684 -12.2839 17
      vertex -1.25 -12.1651 0
      vertex -1.01684 -12.2839 0
    endloop
  endfacet
  facet normal 0 0 1
    outer loop
      vertex 2.4863 -9.73868 17
      vertex 2.4863 -10.2613 17
      vertex 2.5 -10 17
    endloop
  endfacet
  facet normal 0 0 1
    outer loop
      vertex 2.44537 -9.48022 17
      vertex 2.4863 -10.2613 17
      vertex 2.4863 -9.73868 17
    endloop
  endfacet
  facet normal 0 0 1
    outer loop
      vertex 2.44537 -9.48022 17
      vertex 2.44537 -10.5198 17
      vertex 2.4863 -10.2613 17
    endloop
  endfacet
  facet normal 0 0 1
    outer loop
      vertex 2.37764 -9.22746 17
      vertex 2.44537 -10.5198 17
      vertex 2.44537 -9.48022 17
    endloop
  endfacet
  facet normal 0 0 1
    outer loop
      vertex 2.37764 -9.22746 17
      vertex 2.37764 -10.7725 17
      vertex 2.44537 -10.5198 17
    endloop
  endfacet
  facet normal 0 0 1
    outer loop
      vertex 2.28386 -8.98316 17
      vertex 2.37764 -10.7725 17
      vertex 2.37764 -9.22746 17
    endloop
  endfacet
  facet normal 0 0 1
    outer loop
      vertex 2.28386 -8.98316 17
      vertex 2.28386 -11.0168 17
      vertex 2.37764 -10.7725 17
    endloop
  endfacet
  facet normal 0 0 1
    outer loop
      vertex 2.16506 -8.75 17
      vertex 2.28386 -11.0168 17
      vertex 2.28386 -8.98316 17
    endloop
  endfacet
  facet normal 0 0 1
    outer loop
      vertex 2.16506 -8.75 17
      vertex 2.16506 -11.25 17
      vertex 2.28386 -11.0168 17
    endloop
  endfacet
  facet normal 0 0 1
    outer loop
      vertex 2.02254 -8.53054 17
      vertex 2.16506 -11.25 17
      vertex 2.16506 -8.75 17
    endloop
  endfacet
  facet normal 0 0 1
    outer loop
      vertex 2.02254 -8.53054 17
      vertex 2.02254 -11.4695 17
      vertex 2.16506 -11.25 17
    endloop
  endfacet
  facet normal 0 0 1
    outer loop
      vertex 1.85786 -8.32717 17
      vertex 2.02254 -11.4695 17
      vertex 2.02254 -8.53054 17
    endloop
  endfacet
  facet normal 0 0 1
    outer loop
      vertex 1.85786 -8.32717 17
      vertex 1.85786 -11.6728 17
      vertex 2.02254 -11.4695 17
    endloop
  endfacet
  facet normal 0 0 1
    outer loop
      vertex 1.67283 -8.14214 17
      vertex 1.85786 -11.6728 17
      vertex 1.85786 -8.32717 17
    endloop
  endfacet
  facet normal 0 0 1
    outer loop
      vertex 1.67283 -8.14214 17
      vertex 1.67283 -11.8579 17
      vertex 1.85786 -11.6728 17
    endloop
  endfacet
  facet normal 0 0 1
    outer loop
      vertex 1.46946 -7.97746 17
      vertex 1.67283 -11.8579 17
      vertex 1.67283 -8.14214 17
    endloop
  endfacet
  facet normal 0 0 1
    outer loop
      vertex 1.46946 -7.97746 17
      vertex 1.46946 -12.0225 17
      vertex 1.67283 -11.8579 17
    endloop
  endfacet
  facet normal 0 0 1
    outer loop
      vertex 1.25 -7.83494 17
      vertex 1.46946 -12.0225 17
      vertex 1.46946 -7.97746 17
    endloop
  endfacet
  facet normal 0 0 1
    outer loop
      vertex 1.25 -7.83494 17
      vertex 1.25 -12.1651 17
      vertex 1.46946 -12.0225 17
    endloop
  endfacet
  facet normal 0 0 1
    outer loop
      vertex 1.01684 -7.71614 17
      vertex 1.25 -12.1651 17
      vertex 1.25 -7.83494 17
    endloop
  endfacet
  facet normal 0 0 1
    outer loop
      vertex 1.01684 -7.71614 17
      vertex 1.01684 -12.2839 17
      vertex 1.25 -12.1651 17
    endloop
  endfacet
  facet normal 0 0 1
    outer loop
      vertex 0.772542 -7.62236 17
      vertex 1.01684 -12.2839 17
      vertex 1.01684 -7.71614 17
    endloop
  endfacet
  facet normal 0 0 1
    outer loop
      vertex 0.772542 -7.62236 17
      vertex 0.772542 -12.3776 17
      vertex 1.01684 -12.2839 17
    endloop
  endfacet
  facet normal 0 0 1
    outer loop
      vertex 0.519779 -7.55463 17
      vertex 0.772542 -12.3776 17
      vertex 0.772542 -7.62236 17
    endloop
  endfacet
  facet normal 0 0 1
    outer loop
      vertex 0.519779 -7.55463 17
      vertex 0.519779 -12.4454 17
      vertex 0.772542 -12.3776 17
    endloop
  endfacet
  facet normal 0 0 1
    outer loop
      vertex 0.261321 -7.5137 17
      vertex 0.519779 -12.4454 17
      vertex 0.519779 -7.55463 17
    endloop
  endfacet
  facet normal 0 0 1
    outer loop
      vertex 0.261321 -7.5137 17
      vertex 0.261321 -12.4863 17
      vertex 0.519779 -12.4454 17
    endloop
  endfacet
  facet normal 0 0 1
    outer loop
      vertex 0 -7.5 17
      vertex 0.261321 -12.4863 17
      vertex 0.261321 -7.5137 17
    endloop
  endfacet
  facet normal 0 0 1
    outer loop
      vertex 0 -7.5 17
      vertex 0 -12.5 17
      vertex 0.261321 -12.4863 17
    endloop
  endfacet
  facet normal -0 0 1
    outer loop
      vertex -0.261321 -7.5137 17
      vertex 0 -12.5 17
      vertex 0 -7.5 17
    endloop
  endfacet
  facet normal 0 0 1
    outer loop
      vertex -0.261321 -7.5137 17
      vertex -0.261321 -12.4863 17
      vertex 0 -12.5 17
    endloop
  endfacet
  facet normal -0 0 1
    outer loop
      vertex -0.519779 -7.55463 17
      vertex -0.261321 -12.4863 17
      vertex -0.261321 -7.5137 17
    endloop
  endfacet
  facet normal 0 0 1
    outer loop
      vertex -0.519779 -7.55463 17
      vertex -0.519779 -12.4454 17
      vertex -0.261321 -12.4863 17
    endloop
  endfacet
  facet normal -0 0 1
    outer loop
      vertex -0.772542 -7.62236 17
      vertex -0.519779 -12.4454 17
      vertex -0.519779 -7.55463 17
    endloop
  endfacet
  facet normal 0 0 1
    outer loop
      vertex -0.772542 -7.62236 17
      vertex -0.772542 -12.3776 17
      vertex -0.519779 -12.4454 17
    endloop
  endfacet
  facet normal -0 0 1
    outer loop
      vertex -1.01684 -7.71614 17
      vertex -0.772542 -12.3776 17
      vertex -0.772542 -7.62236 17
    endloop
  endfacet
  facet normal 0 0 1
    outer loop
      vertex -1.01684 -7.71614 17
      vertex -1.01684 -12.2839 17
      vertex -0.772542 -12.3776 17
    endloop
  endfacet
  facet normal -0 0 1
    outer loop
      vertex -1.25 -7.83494 17
      vertex -1.01684 -12.2839 17
      vertex -1.01684 -7.71614 17
    endloop
  endfacet
  facet normal 0 0 1
    outer loop
      vertex -1.25 -7.83494 17
      vertex -1.25 -12.1651 17
      vertex -1.01684 -12.2839 17
    endloop
  endfacet
  facet normal -0 0 1
    outer loop
      vertex -1.46946 -7.97746 17
      vertex -1.25 -12.1651 17
      vertex -1.25 -7.83494 17
    endloop
  endfacet
  facet normal 0 0 1
    outer loop
      vertex -1.46946 -7.97746 17
      vertex -1.46946 -12.0225 17
      vertex -1.25 -12.1651 17
    endloop
  endfacet
  facet normal -0 0 1
    outer loop
      vertex -1.67283 -8.14214 17
      vertex -1.46946 -12.0225 17
      vertex -1.46946 -7.97746 17
    endloop
  endfacet
  facet normal 0 0 1
    outer loop
      vertex -1.67283 -8.14214 17
      vertex -1.67283 -11.8579 17
      vertex -1.46946 -12.0225 17
    endloop
  endfacet
  facet normal -0 0 1
    outer loop
      vertex -1.85786 -8.32717 17
      vertex -1.67283 -11.8579 17
      vertex -1.67283 -8.14214 17
    endloop
  endfacet
  facet normal 0 0 1
    outer loop
      vertex -1.85786 -8.32717 17
      vertex -1.85786 -11.6728 17
      vertex -1.67283 -11.8579 17
    endloop
  endfacet
  facet normal -0 0 1
    outer loop
      vertex -2.02254 -8.53054 17
      vertex -1.85786 -11.6728 17
      vertex -1.85786 -8.32717 17
    endloop
  endfacet
  facet normal 0 0 1
    outer loop
      vertex -2.02254 -8.53054 17
      vertex -2.02254 -11.4695 17
      vertex -1.85786 -11.6728 17
    endloop
  endfacet
  facet normal -0 0 1
    outer loop
      vertex -2.16506 -8.75 17
      vertex -2.02254 -11.4695 17
      vertex -2.02254 -8.53054 17
    endloop
  endfacet
  facet normal 0 0 1
    outer loop
      vertex -2.16506 -8.75 17
      vertex -2.16506 -11.25 17
      vertex -2.02254 -11.4695 17
    endloop
  endfacet
  facet normal -0 0 1
    outer loop
      vertex -2.28386 -8.98316 17
      vertex -2.16506 -11.25 17
      vertex -2.16506 -8.75 17
    endloop
  endfacet
  facet normal 0 0 1
    outer loop
      vertex -2.28386 -8.98316 17
      vertex -2.28386 -11.0168 17
      vertex -2.16506 -11.25 17
    endloop
  endfacet
  facet normal -0 0 1
    outer loop
      vertex -2.37764 -9.22746 17
      vertex -2.28386 -11.0168 17
      vertex -2.28386 -8.98316 17
    endloop
  endfacet
  facet normal 0 0 1
    outer loop
      vertex -2.37764 -9.22746 17
      vertex -2.37764 -10.7725 17
      vertex -2.28386 -11.0168 17
    endloop
  endfacet
  facet normal -0 0 1
    outer loop
      vertex -2.44537 -9.48022 17
      vertex -2.37764 -10.7725 17
      vertex -2.37764 -9.22746 17
    endloop
  endfacet
  facet normal 0 0 1
    outer loop
      vertex -2.44537 -9.48022 17
      vertex -2.44537 -10.5198 17
      vertex -2.37764 -10.7725 17
    endloop
  endfacet
  facet normal -0 0 1
    outer loop
      vertex -2.4863 -9.73868 17
      vertex -2.44537 -10.5198 17
      vertex -2.44537 -9.48022 17
    endloop
  endfacet
  facet normal 0 0 1
    outer loop
      vertex -2.4863 -9.73868 17
      vertex -2.4863 -10.2613 17
      vertex -2.44537 -10.5198 17
    endloop
  endfacet
  facet normal 0 -0 1
    outer loop
      vertex -2.4863 -10.2613 17
      vertex -2.4863 -9.73868 17
      vertex -2.5 -10 17
    endloop
  endfacet
  facet normal 0.965907 -0.258888 0
    outer loop
      vertex 2.37764 -10.7725 17
      vertex 2.44537 -10.5198 0
      vertex 2.44537 -10.5198 17
    endloop
  endfacet
  facet normal 0.965907 -0.258888 0
    outer loop
      vertex 2.44537 -10.5198 0
      vertex 2.37764 -10.7725 17
      vertex 2.37764 -10.7725 0
    endloop
  endfacet
  facet normal 0.358377 0.933577 -0
    outer loop
      vertex 1.01684 -7.71614 0
      vertex 0.772542 -7.62236 17
      vertex 1.01684 -7.71614 17
    endloop
  endfacet
  facet normal 0.358377 0.933577 0
    outer loop
      vertex 0.772542 -7.62236 17
      vertex 1.01684 -7.71614 0
      vertex 0.772542 -7.62236 0
    endloop
  endfacet
  facet normal 0.358111 -0.933679 0
    outer loop
      vertex 0.772542 -12.3776 0
      vertex 1.01684 -12.2839 17
      vertex 0.772542 -12.3776 17
    endloop
  endfacet
  facet normal 0.358111 -0.933679 0
    outer loop
      vertex 1.01684 -12.2839 17
      vertex 0.772542 -12.3776 0
      vertex 1.01684 -12.2839 0
    endloop
  endfacet
  facet normal 0.70724 -0.706973 0
    outer loop
      vertex 1.67283 -11.8579 17
      vertex 1.85786 -11.6728 0
      vertex 1.85786 -11.6728 17
    endloop
  endfacet
  facet normal 0.70724 -0.706973 0
    outer loop
      vertex 1.85786 -11.6728 0
      vertex 1.67283 -11.8579 17
      vertex 1.67283 -11.8579 0
    endloop
  endfacet
  facet normal -0.987696 -0.156388 0
    outer loop
      vertex -2.44537 -10.5198 0
      vertex -2.4863 -10.2613 17
      vertex -2.4863 -10.2613 0
    endloop
  endfacet
  facet normal -0.987696 -0.156388 0
    outer loop
      vertex -2.4863 -10.2613 17
      vertex -2.44537 -10.5198 0
      vertex -2.44537 -10.5198 17
    endloop
  endfacet
  facet normal 0.544857 -0.838529 0
    outer loop
      vertex 1.25 -12.1651 0
      vertex 1.46946 -12.0225 17
      vertex 1.25 -12.1651 17
    endloop
  endfacet
  facet normal 0.544857 -0.838529 0
    outer loop
      vertex 1.46946 -12.0225 17
      vertex 1.25 -12.1651 0
      vertex 1.46946 -12.0225 0
    endloop
  endfacet
  facet normal -0.259077 -0.965857 0
    outer loop
      vertex -0.772542 -12.3776 0
      vertex -0.519779 -12.4454 17
      vertex -0.772542 -12.3776 17
    endloop
  endfacet
  facet normal -0.259077 -0.965857 -0
    outer loop
      vertex -0.519779 -12.4454 17
      vertex -0.772542 -12.3776 0
      vertex -0.519779 -12.4454 0
    endloop
  endfacet
  facet normal -0.777157 0.629307 0
    outer loop
      vertex -2.02254 -8.53054 0
      vertex -1.85786 -8.32717 17
      vertex -1.85786 -8.32717 0
    endloop
  endfacet
  facet normal -0.777157 0.629307 0
    outer loop
      vertex -1.85786 -8.32717 17
      vertex -2.02254 -8.53054 0
      vertex -2.02254 -8.53054 17
    endloop
  endfacet
  facet normal -0.70724 -0.706973 0
    outer loop
      vertex -1.67283 -11.8579 0
      vertex -1.85786 -11.6728 17
      vertex -1.85786 -11.6728 0
    endloop
  endfacet
  facet normal -0.70724 -0.706973 0
    outer loop
      vertex -1.85786 -11.6728 17
      vertex -1.67283 -11.8579 0
      vertex -1.67283 -11.8579 17
    endloop
  endfacet
  facet normal 0.629122 -0.777306 0
    outer loop
      vertex 1.46946 -12.0225 0
      vertex 1.67283 -11.8579 17
      vertex 1.46946 -12.0225 17
    endloop
  endfacet
  facet normal 0.629122 -0.777306 0
    outer loop
      vertex 1.67283 -11.8579 17
      vertex 1.46946 -12.0225 0
      vertex 1.67283 -11.8579 0
    endloop
  endfacet
  facet normal -0.891008 0.453988 0
    outer loop
      vertex -2.28386 -8.98316 0
      vertex -2.16506 -8.75 17
      vertex -2.16506 -8.75 0
    endloop
  endfacet
  facet normal -0.891008 0.453988 0
    outer loop
      vertex -2.16506 -8.75 17
      vertex -2.28386 -8.98316 0
      vertex -2.28386 -8.98316 17
    endloop
  endfacet
  facet normal -0.544857 -0.838529 0
    outer loop
      vertex -1.46946 -12.0225 0
      vertex -1.25 -12.1651 17
      vertex -1.46946 -12.0225 17
    endloop
  endfacet
  facet normal -0.544857 -0.838529 -0
    outer loop
      vertex -1.25 -12.1651 17
      vertex -1.46946 -12.0225 0
      vertex -1.25 -12.1651 0
    endloop
  endfacet
  facet normal 0.933578 -0.358375 0
    outer loop
      vertex 2.28386 -11.0168 17
      vertex 2.37764 -10.7725 0
      vertex 2.37764 -10.7725 17
    endloop
  endfacet
  facet normal 0.933578 -0.358375 0
    outer loop
      vertex 2.37764 -10.7725 0
      vertex 2.28386 -11.0168 17
      vertex 2.28386 -11.0168 0
    endloop
  endfacet
endsolid OpenSCAD_Model
